<svg xmlns="http://www.w3.org/2000/svg" xmlns:xlink="http://www.w3.org/1999/xlink" width="1080" zoomAndPan="magnify" viewBox="0 0 810 809.999993" height="1080" preserveAspectRatio="xMidYMid meet" version="1.0"><defs><clipPath id="38c0fd975e"><path d="M 63.421875 136 L 728.671875 136 L 728.671875 689 L 63.421875 689 Z M 63.421875 136 " clip-rule="nonzero"/></clipPath></defs><g clip-path="url(#38c0fd975e)"><path fill="#000000" d="M 728.671875 476.246094 C 728.671875 473.328125 726.304688 470.960938 723.390625 470.960938 L 713.210938 470.960938 C 714.601562 440.277344 699.082031 416.546875 672.40625 408.632812 C 671.992188 404.492188 670.519531 400.378906 667.285156 396.59375 C 657.964844 385.703125 646.597656 385.398438 634.554688 385.074219 C 627.703125 384.890625 619.941406 384.679688 611.25 382.613281 C 602.058594 380.429688 594.953125 375.976562 588.078125 371.671875 C 577.644531 365.136719 566.859375 358.371094 551.167969 362.234375 C 533.121094 366.664062 526.8125 380.441406 525.507812 390.070312 C 523.300781 390.410156 521.054688 390.800781 518.75 391.296875 C 517.339844 391.597656 516.046875 392.019531 514.695312 392.386719 C 509.230469 384.222656 493.425781 365.179688 462.519531 360.542969 L 462.519531 227.660156 C 462.519531 214.71875 456.605469 203.140625 447.339844 195.476562 L 447.339844 142.121094 C 447.339844 140.152344 446.242188 138.34375 444.492188 137.4375 C 442.746094 136.527344 440.644531 136.664062 439.03125 137.796875 L 417.730469 152.730469 L 400.324219 138.082031 C 398.550781 136.582031 396 136.433594 394.050781 137.691406 L 371.15625 152.554688 L 357.859375 138.488281 C 356.070312 136.597656 353.175781 136.285156 351.035156 137.757812 L 329.109375 152.792969 L 310.933594 138.019531 C 309.042969 136.476562 306.332031 136.445312 304.402344 137.917969 L 285.050781 152.703125 L 266.234375 137.960938 C 264.320312 136.460938 261.632812 136.460938 259.722656 137.960938 L 240.90625 152.703125 L 221.554688 137.917969 C 219.613281 136.4375 216.910156 136.476562 215.023438 138.019531 L 196.847656 152.792969 L 174.917969 137.757812 C 172.78125 136.289062 169.886719 136.597656 168.097656 138.488281 L 154.796875 152.554688 L 131.90625 137.691406 C 129.957031 136.429688 127.414062 136.582031 125.632812 138.082031 L 108.203125 152.734375 L 86.90625 137.800781 C 85.296875 136.671875 83.183594 136.527344 81.441406 137.4375 C 79.695312 138.351562 78.601562 140.152344 78.601562 142.121094 L 78.601562 195.476562 C 69.335938 203.140625 63.421875 214.71875 63.421875 227.660156 L 63.421875 587.632812 C 63.421875 600.566406 69.335938 612.152344 78.601562 619.816406 L 78.601562 673.164062 C 78.601562 675.136719 79.699219 676.941406 81.445312 677.851562 C 83.1875 678.757812 85.296875 678.621094 86.910156 677.492188 L 108.210938 662.558594 L 125.621094 677.207031 C 127.402344 678.710938 129.953125 678.859375 131.894531 677.597656 L 154.789062 662.730469 L 168.085938 676.800781 C 169.117188 677.894531 170.515625 678.453125 171.925781 678.453125 C 172.960938 678.453125 174 678.144531 174.910156 677.527344 L 196.835938 662.496094 L 215.015625 677.269531 C 216.898438 678.8125 219.613281 678.84375 221.546875 677.371094 L 240.894531 662.585938 L 259.710938 677.328125 C 261.625 678.828125 264.3125 678.828125 266.222656 677.328125 L 285.039062 662.585938 L 304.390625 677.371094 C 306.328125 678.84375 309.027344 678.804688 310.921875 677.269531 L 329.097656 662.496094 L 351.027344 677.527344 C 353 678.875 355.621094 678.742188 357.429688 677.195312 L 372.09375 664.730469 L 372.09375 683.023438 C 372.09375 685.9375 374.457031 688.304688 377.371094 688.304688 L 632.898438 688.304688 C 635.8125 688.304688 638.175781 685.9375 638.175781 683.023438 L 638.175781 655.894531 C 694.871094 613.796875 728.671875 546.882812 728.671875 476.246094 Z M 702.640625 470.960938 L 682.53125 470.960938 C 678.863281 457.285156 672.152344 445.898438 662.300781 436.769531 C 665.230469 432.828125 669.273438 426.46875 671.3125 419.335938 C 692.332031 426.441406 703.976562 445.578125 702.640625 470.960938 Z M 408.328125 470.960938 C 408.574219 468.703125 409.5625 465.945312 412.566406 464.058594 C 414.664062 462.742188 419.0625 461.855469 423.316406 461 C 432.386719 459.175781 445.257812 456.558594 448.972656 445.976562 C 456.324219 448.570312 469.191406 451.933594 484.65625 450.953125 C 493.75 450.367188 502.539062 447.601562 511.039062 444.933594 C 526.070312 440.21875 535.566406 437.671875 541.097656 444.296875 C 542.882812 446.4375 543.589844 448.6875 543.320312 451.386719 C 542.582031 458.8125 534.710938 467.167969 530.425781 470.957031 L 408.328125 470.957031 Z M 311.679688 470.960938 C 321.910156 459.917969 341.980469 441.257812 365.703125 435.027344 C 396.03125 427.066406 426.484375 426.632812 436.546875 434.015625 C 439.035156 435.84375 439.398438 437.628906 439.453125 438.8125 C 439.785156 445.683594 434.964844 447.886719 421.238281 450.652344 C 415.808594 451.738281 410.683594 452.769531 406.949219 455.121094 C 400.300781 459.296875 398.128906 465.675781 397.792969 470.96875 L 311.679688 470.96875 Z M 286.898438 470.960938 C 283.984375 470.960938 281.617188 473.328125 281.617188 476.246094 C 281.617188 479.113281 281.765625 481.964844 281.878906 484.816406 C 275.714844 486.324219 269.378906 487.125 262.96875 487.125 C 219.164062 487.125 183.527344 451.46875 183.527344 407.640625 C 183.527344 363.8125 219.164062 328.15625 262.96875 328.15625 C 306.777344 328.15625 342.414062 363.8125 342.414062 407.640625 C 342.414062 417.480469 340.582031 427.042969 337.09375 436.125 C 316.992188 448.320312 302.421875 465.070312 297.640625 470.960938 Z M 73.980469 291.113281 C 84.921875 291.359375 112.453125 293.390625 141.394531 306.789062 C 170.929688 320.460938 189.054688 340.75 195.257812 348.515625 C 181.417969 364.351562 172.964844 385.011719 172.964844 407.652344 C 172.964844 413.769531 173.589844 419.738281 174.757812 425.511719 C 164.292969 414.953125 150.210938 402.570312 133.667969 392.6875 C 106.605469 376.507812 83.9375 372.796875 73.980469 371.96875 Z M 370.628906 422.980469 C 368.058594 423.558594 365.507812 424.160156 363.023438 424.808594 C 358.617188 425.964844 354.363281 427.515625 350.25 429.300781 C 351.992188 422.253906 352.980469 415.019531 352.980469 407.640625 C 352.980469 403.878906 352.671875 400.199219 352.226562 396.5625 C 355.335938 397.164062 358.453125 397.488281 361.570312 397.488281 C 363.074219 397.488281 364.574219 397.414062 366.074219 397.277344 C 365.097656 399.726562 364.519531 402.117188 364.367188 404.371094 C 363.808594 412.691406 366.929688 418.765625 370.628906 422.980469 Z M 449.441406 434.863281 C 448.765625 432.34375 447.480469 430.042969 445.625 428.035156 C 452.605469 426.878906 459.738281 427.1875 467.128906 428.964844 C 464.816406 432.8125 463.15625 436.199219 462.070312 438.695312 C 456.335938 437.457031 451.9375 435.882812 449.441406 434.863281 Z M 553.820312 452.46875 C 553.933594 451.363281 553.894531 450.285156 553.832031 449.214844 C 560.792969 448.0625 572.136719 445.316406 580.441406 439.1875 C 593.550781 445.558594 601.554688 455.988281 604.664062 470.960938 L 545.050781 470.960938 C 549.128906 465.960938 553.121094 459.4375 553.820312 452.46875 Z M 615.351562 470.960938 C 612.109375 452.75 602.917969 439.347656 587.855469 431.085938 C 588.832031 429.378906 589.65625 427.566406 590.136719 425.542969 C 590.53125 423.890625 590.683594 422.226562 590.675781 420.566406 C 636.488281 425.511719 662.511719 441.648438 671.613281 470.960938 Z M 553.683594 372.492188 C 565.019531 369.707031 572.730469 374.519531 582.476562 380.625 C 589.71875 385.164062 597.933594 390.308594 608.8125 392.890625 C 618.5625 395.207031 626.90625 395.433594 634.269531 395.632812 C 645.546875 395.941406 652.992188 396.140625 659.257812 403.46875 C 666 411.347656 658.503906 423.957031 654.027344 430.128906 C 638.066406 419.035156 615.992188 412.269531 587.597656 409.660156 C 586.402344 407.574219 584.910156 405.550781 583.046875 403.640625 C 574.847656 395.25 558.871094 387.984375 536.429688 388.976562 C 537.75 383.425781 541.730469 375.429688 553.683594 372.492188 Z M 520.972656 401.625 C 548.617188 395.675781 567.628906 402.964844 575.5 411.023438 C 579.261719 414.871094 580.8125 419.15625 579.871094 423.085938 C 577.492188 433.042969 559.644531 437.671875 550.257812 439.066406 C 549.898438 438.554688 549.613281 438.015625 549.203125 437.53125 C 538.855469 425.136719 523.109375 430.074219 507.878906 434.863281 C 499.972656 437.34375 491.800781 439.910156 483.976562 440.414062 C 480.121094 440.667969 476.4375 440.597656 472.988281 440.324219 C 478.273438 429.605469 492.296875 407.789062 520.972656 401.625 Z M 504.269531 395.917969 C 490.304688 401.898438 480.347656 411.070312 473.492188 419.765625 C 459.296875 415.570312 445.480469 415.871094 432.328125 420.695312 C 419.683594 417.128906 401.792969 417.621094 384.054688 420.417969 C 381.238281 418.871094 374.292969 414.136719 374.902344 405.078125 C 375.660156 393.75 396.988281 371.863281 444.9375 370.140625 C 479.574219 368.863281 497.476562 386.855469 504.269531 395.917969 Z M 89.160156 152.277344 L 105.46875 163.710938 C 107.429688 165.085938 110.0625 164.96875 111.894531 163.425781 L 129.417969 148.6875 L 152.722656 163.824219 C 154.863281 165.210938 157.679688 164.875 159.433594 163.019531 L 172.65625 149.039062 L 194.113281 163.75 C 196.039062 165.070312 198.609375 164.964844 200.425781 163.496094 L 218.4375 148.859375 L 237.726562 163.597656 C 239.640625 165.054688 242.292969 165.042969 244.191406 163.554688 L 262.96875 148.84375 L 281.75 163.554688 C 283.644531 165.042969 286.300781 165.054688 288.210938 163.597656 L 307.503906 148.859375 L 325.519531 163.496094 C 327.335938 164.976562 329.90625 165.074219 331.835938 163.75 L 353.292969 149.039062 L 366.511719 163.019531 C 368.265625 164.875 371.085938 165.210938 373.222656 163.824219 L 396.527344 148.6875 L 414.050781 163.433594 C 415.878906 164.976562 418.515625 165.085938 420.476562 163.71875 L 436.785156 152.28125 L 436.785156 189.109375 C 431.855469 187.054688 426.453125 185.910156 420.789062 185.910156 L 105.152344 185.910156 C 99.488281 185.910156 94.085938 187.054688 89.15625 189.109375 L 89.15625 152.277344 Z M 105.152344 196.46875 L 420.789062 196.46875 C 437.980469 196.46875 451.960938 210.460938 451.960938 227.660156 L 451.960938 359.648438 C 449.546875 359.566406 447.125 359.492188 444.558594 359.582031 C 409.726562 360.832031 386.777344 372.105469 374.660156 384.628906 C 366.375 387.488281 358.273438 387.652344 350.011719 385.128906 C 339.980469 346.355469 304.816406 317.589844 262.96875 317.589844 C 239.796875 317.589844 218.710938 326.476562 202.738281 340.917969 C 195.273438 331.707031 176.414062 311.347656 145.828125 297.191406 C 114.71875 282.800781 85.753906 280.71875 73.980469 280.523438 L 73.980469 227.660156 C 73.980469 210.460938 87.960938 196.46875 105.152344 196.46875 Z M 73.980469 587.625 L 73.980469 382.601562 C 83.164062 383.496094 103.726562 387.097656 128.257812 401.75 C 161.769531 421.773438 185.699219 453.875 185.945312 454.195312 C 186.011719 454.289062 186.128906 454.328125 186.207031 454.417969 C 202.03125 480.316406 230.472656 497.695312 262.976562 497.695312 C 269.597656 497.695312 276.160156 496.972656 282.5625 495.550781 C 286.535156 540.976562 304.351562 583.996094 333.101562 618.820312 L 105.152344 618.820312 C 87.960938 618.820312 73.980469 604.824219 73.980469 587.625 Z M 353.675781 666.519531 L 331.824219 651.539062 C 329.890625 650.210938 327.320312 650.316406 325.507812 651.792969 L 307.496094 666.429688 L 288.203125 651.691406 C 286.292969 650.234375 283.636719 650.246094 281.738281 651.734375 L 262.960938 666.445312 L 244.179688 651.734375 C 242.285156 650.246094 239.628906 650.234375 237.71875 651.691406 L 218.425781 666.429688 L 200.414062 651.792969 C 198.605469 650.316406 196.035156 650.21875 194.101562 651.539062 L 172.644531 666.25 L 159.421875 652.265625 C 157.671875 650.417969 154.851562 650.074219 152.714844 651.464844 L 129.410156 666.597656 L 111.882812 651.855469 C 110.050781 650.308594 107.414062 650.195312 105.460938 651.570312 L 89.148438 663.007812 L 89.148438 626.175781 C 94.082031 628.230469 99.484375 629.378906 105.148438 629.378906 L 342.367188 629.378906 C 350.519531 638.074219 359.421875 646.128906 368.984375 653.5 Z M 627.628906 677.734375 L 382.664062 677.734375 L 382.664062 658.585938 L 627.628906 658.585938 Z M 631.117188 648.019531 L 379.171875 648.019531 C 326.109375 608.984375 293.886719 547.199219 292.246094 481.53125 L 403.410156 481.53125 C 403.417969 481.53125 403.421875 481.53125 403.429688 481.53125 C 403.433594 481.53125 403.4375 481.53125 403.449219 481.53125 L 718.050781 481.53125 C 716.402344 547.199219 684.183594 608.984375 631.117188 648.019531 Z M 631.117188 648.019531 " fill-opacity="1" fill-rule="nonzero"/></g><path fill="#000000" d="M 320.171875 407.644531 C 320.171875 376.089844 294.511719 350.417969 262.96875 350.417969 C 231.429688 350.417969 205.773438 376.089844 205.773438 407.644531 C 205.773438 439.203125 231.433594 464.871094 262.96875 464.871094 C 294.511719 464.871094 320.171875 439.199219 320.171875 407.644531 Z M 262.96875 454.304688 C 237.253906 454.304688 216.335938 433.371094 216.335938 407.644531 C 216.335938 381.914062 237.257812 360.980469 262.96875 360.980469 C 288.6875 360.980469 309.613281 381.914062 309.613281 407.644531 C 309.613281 433.371094 288.6875 454.304688 262.96875 454.304688 Z M 262.96875 454.304688 " fill-opacity="1" fill-rule="nonzero"/><path fill="#000000" d="M 381.582031 451.6875 C 378.4375 451.6875 375.886719 454.238281 375.886719 457.382812 C 375.886719 460.523438 378.4375 463.074219 381.582031 463.074219 C 384.722656 463.074219 387.273438 460.523438 387.273438 457.382812 C 387.273438 454.238281 384.722656 451.6875 381.582031 451.6875 Z M 381.582031 451.6875 " fill-opacity="1" fill-rule="nonzero"/><path fill="#000000" d="M 406.597656 440.699219 C 406.597656 437.554688 404.046875 435.003906 400.902344 435.003906 C 397.761719 435.003906 395.210938 437.554688 395.210938 440.699219 C 395.210938 443.84375 397.757812 446.394531 400.902344 446.394531 C 404.050781 446.394531 406.597656 443.84375 406.597656 440.699219 Z M 406.597656 440.699219 " fill-opacity="1" fill-rule="nonzero"/><path fill="#000000" d="M 400.898438 405.496094 C 400.898438 405.871094 400.863281 406.242188 400.789062 406.605469 C 400.714844 406.972656 400.609375 407.332031 400.464844 407.675781 C 400.324219 408.019531 400.148438 408.347656 399.941406 408.660156 C 399.730469 408.972656 399.496094 409.257812 399.230469 409.523438 C 398.96875 409.789062 398.679688 410.023438 398.371094 410.230469 C 398.058594 410.4375 397.730469 410.613281 397.386719 410.757812 C 397.039062 410.902344 396.683594 411.007812 396.316406 411.082031 C 395.949219 411.15625 395.582031 411.191406 395.207031 411.191406 C 394.832031 411.191406 394.464844 411.15625 394.097656 411.082031 C 393.730469 411.007812 393.375 410.902344 393.027344 410.757812 C 392.683594 410.613281 392.355469 410.4375 392.046875 410.230469 C 391.734375 410.023438 391.445312 409.789062 391.183594 409.523438 C 390.917969 409.257812 390.683594 408.972656 390.476562 408.660156 C 390.265625 408.347656 390.09375 408.019531 389.949219 407.675781 C 389.804688 407.332031 389.699219 406.972656 389.625 406.605469 C 389.550781 406.242188 389.515625 405.871094 389.515625 405.496094 C 389.515625 405.121094 389.550781 404.753906 389.625 404.386719 C 389.699219 404.019531 389.804688 403.664062 389.949219 403.316406 C 390.09375 402.972656 390.265625 402.644531 390.476562 402.332031 C 390.683594 402.023438 390.917969 401.734375 391.183594 401.46875 C 391.445312 401.207031 391.734375 400.96875 392.046875 400.761719 C 392.355469 400.554688 392.683594 400.378906 393.027344 400.234375 C 393.375 400.09375 393.730469 399.984375 394.097656 399.910156 C 394.464844 399.839844 394.832031 399.800781 395.207031 399.800781 C 395.582031 399.800781 395.949219 399.839844 396.316406 399.910156 C 396.683594 399.984375 397.039062 400.09375 397.386719 400.234375 C 397.730469 400.378906 398.058594 400.554688 398.371094 400.761719 C 398.679688 400.96875 398.96875 401.207031 399.230469 401.46875 C 399.496094 401.734375 399.730469 402.023438 399.941406 402.332031 C 400.148438 402.644531 400.324219 402.972656 400.464844 403.316406 C 400.609375 403.664062 400.714844 404.019531 400.789062 404.386719 C 400.863281 404.753906 400.898438 405.121094 400.898438 405.496094 Z M 400.898438 405.496094 " fill-opacity="1" fill-rule="nonzero"/><path fill="#000000" d="M 412.289062 385.046875 C 409.144531 385.046875 406.59375 387.597656 406.59375 390.742188 C 406.59375 393.886719 409.144531 396.4375 412.289062 396.4375 C 415.429688 396.4375 417.980469 393.886719 417.980469 390.742188 C 417.980469 387.597656 415.429688 385.046875 412.289062 385.046875 Z M 412.289062 385.046875 " fill-opacity="1" fill-rule="nonzero"/><path fill="#000000" d="M 433.453125 405.496094 C 433.453125 405.871094 433.417969 406.242188 433.34375 406.605469 C 433.273438 406.972656 433.164062 407.332031 433.019531 407.675781 C 432.878906 408.019531 432.703125 408.347656 432.496094 408.660156 C 432.285156 408.972656 432.050781 409.257812 431.785156 409.523438 C 431.523438 409.789062 431.234375 410.023438 430.925781 410.230469 C 430.613281 410.4375 430.285156 410.613281 429.941406 410.757812 C 429.59375 410.902344 429.238281 411.007812 428.871094 411.082031 C 428.507812 411.15625 428.136719 411.191406 427.761719 411.191406 C 427.386719 411.191406 427.019531 411.15625 426.652344 411.082031 C 426.285156 411.007812 425.929688 410.902344 425.585938 410.757812 C 425.238281 410.613281 424.910156 410.4375 424.601562 410.230469 C 424.289062 410.023438 424.003906 409.789062 423.738281 409.523438 C 423.472656 409.257812 423.238281 408.972656 423.03125 408.660156 C 422.824219 408.347656 422.648438 408.019531 422.503906 407.675781 C 422.359375 407.332031 422.253906 406.972656 422.179688 406.605469 C 422.105469 406.242188 422.070312 405.871094 422.070312 405.496094 C 422.070312 405.121094 422.105469 404.753906 422.179688 404.386719 C 422.253906 404.019531 422.359375 403.664062 422.503906 403.316406 C 422.648438 402.972656 422.824219 402.644531 423.03125 402.332031 C 423.238281 402.023438 423.472656 401.734375 423.738281 401.46875 C 424.003906 401.207031 424.289062 400.96875 424.601562 400.761719 C 424.910156 400.554688 425.238281 400.378906 425.585938 400.234375 C 425.929688 400.09375 426.285156 399.984375 426.652344 399.910156 C 427.019531 399.839844 427.386719 399.800781 427.761719 399.800781 C 428.136719 399.800781 428.507812 399.839844 428.871094 399.910156 C 429.238281 399.984375 429.59375 400.09375 429.941406 400.234375 C 430.285156 400.378906 430.613281 400.554688 430.925781 400.761719 C 431.234375 400.96875 431.523438 401.207031 431.785156 401.46875 C 432.050781 401.734375 432.285156 402.023438 432.496094 402.332031 C 432.703125 402.644531 432.878906 402.972656 433.019531 403.316406 C 433.164062 403.664062 433.273438 404.019531 433.34375 404.386719 C 433.417969 404.753906 433.453125 405.121094 433.453125 405.496094 Z M 433.453125 405.496094 " fill-opacity="1" fill-rule="nonzero"/><path fill="#000000" d="M 540.90625 411.628906 C 540.90625 412.003906 540.871094 412.375 540.796875 412.742188 C 540.726562 413.105469 540.617188 413.464844 540.472656 413.808594 C 540.332031 414.152344 540.15625 414.480469 539.949219 414.792969 C 539.742188 415.105469 539.503906 415.390625 539.242188 415.65625 C 538.976562 415.921875 538.6875 416.15625 538.378906 416.363281 C 538.066406 416.570312 537.738281 416.746094 537.394531 416.890625 C 537.046875 417.035156 536.691406 417.140625 536.328125 417.214844 C 535.960938 417.289062 535.589844 417.324219 535.214844 417.324219 C 534.84375 417.324219 534.472656 417.289062 534.105469 417.214844 C 533.738281 417.140625 533.382812 417.035156 533.039062 416.890625 C 532.691406 416.746094 532.363281 416.570312 532.054688 416.363281 C 531.742188 416.15625 531.457031 415.921875 531.191406 415.65625 C 530.925781 415.390625 530.691406 415.105469 530.484375 414.792969 C 530.277344 414.480469 530.101562 414.152344 529.957031 413.808594 C 529.816406 413.464844 529.707031 413.105469 529.632812 412.742188 C 529.5625 412.375 529.523438 412.003906 529.523438 411.628906 C 529.523438 411.253906 529.5625 410.886719 529.632812 410.519531 C 529.707031 410.152344 529.816406 409.796875 529.957031 409.449219 C 530.101562 409.105469 530.277344 408.777344 530.484375 408.464844 C 530.691406 408.15625 530.925781 407.867188 531.191406 407.601562 C 531.457031 407.339844 531.742188 407.101562 532.054688 406.894531 C 532.363281 406.6875 532.691406 406.511719 533.039062 406.367188 C 533.382812 406.226562 533.738281 406.117188 534.105469 406.042969 C 534.472656 405.972656 534.84375 405.933594 535.214844 405.933594 C 535.589844 405.933594 535.960938 405.972656 536.328125 406.042969 C 536.691406 406.117188 537.046875 406.226562 537.394531 406.367188 C 537.738281 406.511719 538.066406 406.6875 538.378906 406.894531 C 538.6875 407.101562 538.976562 407.339844 539.242188 407.601562 C 539.503906 407.867188 539.742188 408.15625 539.949219 408.464844 C 540.15625 408.777344 540.332031 409.105469 540.472656 409.449219 C 540.617188 409.796875 540.726562 410.152344 540.796875 410.519531 C 540.871094 410.886719 540.90625 411.253906 540.90625 411.628906 Z M 540.90625 411.628906 " fill-opacity="1" fill-rule="nonzero"/><path fill="#000000" d="M 570.75 417.957031 C 570.75 418.332031 570.710938 418.703125 570.640625 419.070312 C 570.566406 419.433594 570.457031 419.792969 570.316406 420.136719 C 570.171875 420.480469 569.996094 420.8125 569.789062 421.121094 C 569.582031 421.433594 569.347656 421.71875 569.082031 421.984375 C 568.816406 422.25 568.53125 422.484375 568.21875 422.691406 C 567.910156 422.898438 567.582031 423.074219 567.234375 423.21875 C 566.890625 423.363281 566.535156 423.46875 566.167969 423.542969 C 565.800781 423.617188 565.429688 423.652344 565.058594 423.652344 C 564.683594 423.652344 564.3125 423.617188 563.945312 423.542969 C 563.582031 423.46875 563.222656 423.363281 562.878906 423.21875 C 562.535156 423.074219 562.207031 422.898438 561.894531 422.691406 C 561.585938 422.484375 561.296875 422.25 561.03125 421.984375 C 560.769531 421.71875 560.53125 421.433594 560.324219 421.121094 C 560.117188 420.808594 559.941406 420.480469 559.800781 420.136719 C 559.65625 419.792969 559.546875 419.433594 559.476562 419.070312 C 559.402344 418.703125 559.367188 418.332031 559.367188 417.957031 C 559.367188 417.582031 559.402344 417.214844 559.476562 416.847656 C 559.546875 416.480469 559.65625 416.125 559.796875 415.777344 C 559.941406 415.433594 560.117188 415.105469 560.324219 414.792969 C 560.53125 414.484375 560.769531 414.195312 561.03125 413.929688 C 561.296875 413.667969 561.585938 413.429688 561.894531 413.222656 C 562.207031 413.015625 562.535156 412.839844 562.878906 412.695312 C 563.222656 412.554688 563.582031 412.445312 563.945312 412.371094 C 564.3125 412.300781 564.683594 412.261719 565.058594 412.261719 C 565.429688 412.261719 565.800781 412.300781 566.167969 412.371094 C 566.535156 412.445312 566.890625 412.554688 567.234375 412.695312 C 567.582031 412.839844 567.910156 413.015625 568.21875 413.222656 C 568.53125 413.429688 568.816406 413.667969 569.082031 413.929688 C 569.347656 414.195312 569.582031 414.484375 569.789062 414.792969 C 569.996094 415.105469 570.171875 415.433594 570.316406 415.777344 C 570.457031 416.125 570.566406 416.480469 570.640625 416.847656 C 570.710938 417.214844 570.75 417.582031 570.75 417.957031 Z M 570.75 417.957031 " fill-opacity="1" fill-rule="nonzero"/><path fill="#000000" d="M 646.703125 415.992188 C 649.84375 415.992188 652.394531 413.441406 652.394531 410.296875 C 652.394531 407.15625 649.84375 404.605469 646.703125 404.605469 C 643.5625 404.605469 641.011719 407.15625 641.011719 410.296875 C 641.011719 413.441406 643.558594 415.992188 646.703125 415.992188 Z M 646.703125 415.992188 " fill-opacity="1" fill-rule="nonzero"/><path fill="#000000" d="M 610.121094 429.308594 C 606.976562 429.308594 604.429688 431.859375 604.429688 435.003906 C 604.429688 438.148438 606.976562 440.699219 610.121094 440.699219 C 613.261719 440.699219 615.8125 438.148438 615.8125 435.003906 C 615.8125 431.859375 613.265625 429.308594 610.121094 429.308594 Z M 610.121094 429.308594 " fill-opacity="1" fill-rule="nonzero"/><path fill="#000000" d="M 629.539062 405.328125 C 629.539062 405.703125 629.503906 406.070312 629.429688 406.4375 C 629.355469 406.804688 629.25 407.160156 629.105469 407.507812 C 628.960938 407.851562 628.789062 408.179688 628.578125 408.492188 C 628.371094 408.800781 628.136719 409.089844 627.871094 409.355469 C 627.609375 409.617188 627.320312 409.855469 627.007812 410.0625 C 626.699219 410.269531 626.371094 410.445312 626.023438 410.589844 C 625.679688 410.730469 625.324219 410.839844 624.957031 410.914062 C 624.589844 410.984375 624.222656 411.023438 623.847656 411.023438 C 623.472656 411.023438 623.101562 410.984375 622.738281 410.914062 C 622.371094 410.839844 622.015625 410.730469 621.667969 410.589844 C 621.324219 410.445312 620.996094 410.269531 620.683594 410.0625 C 620.375 409.855469 620.085938 409.617188 619.824219 409.355469 C 619.558594 409.089844 619.324219 408.800781 619.113281 408.492188 C 618.90625 408.179688 618.730469 407.851562 618.589844 407.507812 C 618.445312 407.160156 618.339844 406.804688 618.265625 406.4375 C 618.191406 406.070312 618.15625 405.703125 618.15625 405.328125 C 618.15625 404.953125 618.191406 404.582031 618.265625 404.214844 C 618.339844 403.851562 618.445312 403.492188 618.589844 403.148438 C 618.730469 402.800781 618.90625 402.472656 619.113281 402.164062 C 619.324219 401.851562 619.558594 401.566406 619.824219 401.300781 C 620.085938 401.035156 620.375 400.800781 620.683594 400.59375 C 620.996094 400.386719 621.324219 400.210938 621.667969 400.066406 C 622.015625 399.921875 622.371094 399.816406 622.738281 399.742188 C 623.101562 399.667969 623.472656 399.632812 623.847656 399.632812 C 624.222656 399.632812 624.589844 399.667969 624.957031 399.742188 C 625.324219 399.816406 625.679688 399.921875 626.023438 400.066406 C 626.371094 400.210938 626.699219 400.386719 627.007812 400.59375 C 627.320312 400.800781 627.609375 401.035156 627.871094 401.300781 C 628.136719 401.566406 628.371094 401.851562 628.578125 402.164062 C 628.789062 402.472656 628.960938 402.800781 629.105469 403.148438 C 629.25 403.492188 629.355469 403.851562 629.429688 404.214844 C 629.503906 404.582031 629.539062 404.953125 629.539062 405.328125 Z M 629.539062 405.328125 " fill-opacity="1" fill-rule="nonzero"/><path fill="#000000" d="M 627.574219 435.675781 C 624.433594 435.675781 621.882812 438.226562 621.882812 441.371094 C 621.882812 444.511719 624.433594 447.0625 627.574219 447.0625 C 630.714844 447.0625 633.265625 444.511719 633.265625 441.371094 C 633.265625 438.226562 630.722656 435.675781 627.574219 435.675781 Z M 627.574219 435.675781 " fill-opacity="1" fill-rule="nonzero"/><path fill="#000000" d="M 683.449219 436.414062 C 683.449219 436.789062 683.414062 437.160156 683.339844 437.527344 C 683.269531 437.890625 683.160156 438.25 683.015625 438.59375 C 682.875 438.9375 682.699219 439.265625 682.492188 439.578125 C 682.285156 439.890625 682.046875 440.175781 681.785156 440.441406 C 681.519531 440.707031 681.230469 440.941406 680.921875 441.148438 C 680.609375 441.355469 680.28125 441.53125 679.9375 441.675781 C 679.589844 441.820312 679.234375 441.925781 678.871094 442 C 678.503906 442.074219 678.132812 442.109375 677.757812 442.109375 C 677.386719 442.109375 677.015625 442.074219 676.648438 442 C 676.28125 441.925781 675.925781 441.820312 675.582031 441.675781 C 675.234375 441.53125 674.90625 441.355469 674.597656 441.148438 C 674.285156 440.941406 674 440.707031 673.734375 440.441406 C 673.46875 440.175781 673.234375 439.890625 673.027344 439.578125 C 672.820312 439.265625 672.644531 438.9375 672.5 438.59375 C 672.359375 438.25 672.25 437.890625 672.175781 437.527344 C 672.105469 437.160156 672.066406 436.789062 672.066406 436.414062 C 672.066406 436.039062 672.105469 435.671875 672.175781 435.304688 C 672.25 434.9375 672.359375 434.582031 672.5 434.234375 C 672.644531 433.890625 672.820312 433.5625 673.027344 433.25 C 673.234375 432.941406 673.46875 432.652344 673.734375 432.386719 C 674 432.125 674.285156 431.886719 674.597656 431.679688 C 674.90625 431.472656 675.234375 431.296875 675.582031 431.152344 C 675.925781 431.011719 676.28125 430.902344 676.648438 430.828125 C 677.015625 430.757812 677.386719 430.71875 677.757812 430.71875 C 678.132812 430.71875 678.503906 430.757812 678.871094 430.828125 C 679.234375 430.902344 679.589844 431.011719 679.9375 431.152344 C 680.28125 431.296875 680.609375 431.472656 680.921875 431.679688 C 681.230469 431.886719 681.519531 432.125 681.785156 432.386719 C 682.046875 432.652344 682.285156 432.941406 682.492188 433.25 C 682.699219 433.5625 682.875 433.890625 683.015625 434.234375 C 683.160156 434.582031 683.269531 434.9375 683.339844 435.304688 C 683.414062 435.671875 683.449219 436.039062 683.449219 436.414062 Z M 683.449219 436.414062 " fill-opacity="1" fill-rule="nonzero"/><path fill="#000000" d="M 695.609375 454.601562 C 695.609375 454.976562 695.574219 455.347656 695.5 455.714844 C 695.425781 456.078125 695.320312 456.4375 695.175781 456.78125 C 695.035156 457.125 694.859375 457.457031 694.652344 457.765625 C 694.441406 458.078125 694.207031 458.363281 693.941406 458.628906 C 693.679688 458.894531 693.390625 459.128906 693.082031 459.335938 C 692.769531 459.542969 692.441406 459.71875 692.097656 459.863281 C 691.75 460.007812 691.394531 460.113281 691.027344 460.1875 C 690.664062 460.261719 690.292969 460.296875 689.917969 460.296875 C 689.542969 460.296875 689.175781 460.261719 688.808594 460.1875 C 688.441406 460.113281 688.085938 460.007812 687.738281 459.863281 C 687.394531 459.71875 687.066406 459.542969 686.757812 459.335938 C 686.445312 459.128906 686.15625 458.894531 685.894531 458.628906 C 685.628906 458.363281 685.394531 458.078125 685.1875 457.765625 C 684.976562 457.457031 684.804688 457.125 684.660156 456.78125 C 684.515625 456.4375 684.410156 456.078125 684.335938 455.714844 C 684.261719 455.347656 684.226562 454.976562 684.226562 454.601562 C 684.226562 454.226562 684.261719 453.859375 684.335938 453.492188 C 684.410156 453.125 684.515625 452.769531 684.660156 452.421875 C 684.804688 452.078125 684.976562 451.75 685.1875 451.4375 C 685.394531 451.128906 685.628906 450.839844 685.894531 450.574219 C 686.15625 450.3125 686.445312 450.074219 686.757812 449.867188 C 687.066406 449.660156 687.394531 449.484375 687.738281 449.339844 C 688.085938 449.199219 688.441406 449.089844 688.808594 449.015625 C 689.175781 448.945312 689.542969 448.90625 689.917969 448.90625 C 690.292969 448.90625 690.664062 448.945312 691.027344 449.015625 C 691.394531 449.089844 691.75 449.199219 692.097656 449.339844 C 692.441406 449.484375 692.769531 449.660156 693.082031 449.867188 C 693.390625 450.074219 693.679688 450.3125 693.941406 450.574219 C 694.207031 450.839844 694.441406 451.128906 694.652344 451.4375 C 694.859375 451.75 695.035156 452.078125 695.175781 452.421875 C 695.320312 452.769531 695.425781 453.125 695.5 453.492188 C 695.574219 453.859375 695.609375 454.226562 695.609375 454.601562 Z M 695.609375 454.601562 " fill-opacity="1" fill-rule="nonzero"/><path fill="#000000" d="M 624.988281 453.339844 C 621.847656 453.339844 619.296875 455.890625 619.296875 459.035156 C 619.296875 462.175781 621.847656 464.730469 624.988281 464.730469 C 628.128906 464.730469 630.679688 462.175781 630.679688 459.035156 C 630.679688 455.890625 628.128906 453.339844 624.988281 453.339844 Z M 624.988281 453.339844 " fill-opacity="1" fill-rule="nonzero"/><path fill="#000000" d="M 548.292969 429.351562 C 551.433594 429.351562 553.984375 426.800781 553.984375 423.65625 C 553.984375 420.515625 551.433594 417.964844 548.292969 417.964844 C 545.152344 417.964844 542.601562 420.515625 542.601562 423.65625 C 542.601562 426.800781 545.148438 429.351562 548.292969 429.351562 Z M 548.292969 429.351562 " fill-opacity="1" fill-rule="nonzero"/><path fill="#000000" d="M 536.199219 452.261719 C 536.199219 449.117188 533.648438 446.566406 530.507812 446.566406 C 527.363281 446.566406 524.816406 449.117188 524.816406 452.261719 C 524.816406 455.40625 527.363281 457.957031 530.507812 457.957031 C 533.648438 457.957031 536.199219 455.410156 536.199219 452.261719 Z M 536.199219 452.261719 " fill-opacity="1" fill-rule="nonzero"/><path fill="#000000" d="M 507.101562 454.121094 C 503.960938 454.121094 501.410156 456.671875 501.410156 459.816406 C 501.410156 462.960938 503.960938 465.511719 507.101562 465.511719 C 510.242188 465.511719 512.792969 462.960938 512.792969 459.816406 C 512.792969 456.671875 510.246094 454.121094 507.101562 454.121094 Z M 507.101562 454.121094 " fill-opacity="1" fill-rule="nonzero"/></svg>