<svg xmlns="http://www.w3.org/2000/svg" xmlns:xlink="http://www.w3.org/1999/xlink" width="1080" zoomAndPan="magnify" viewBox="0 0 810 809.999993" height="1080" preserveAspectRatio="xMidYMid meet" version="1.0"><defs><clipPath id="7fc58548b2"><path d="M 23.660156 102 L 796.910156 102 L 796.910156 700.871094 L 23.660156 700.871094 Z M 23.660156 102 " clip-rule="nonzero"/></clipPath></defs><g clip-path="url(#7fc58548b2)"><path fill="#000000" d="M 711.652344 247.726562 C 706.625 238.457031 696.699219 232.789062 685.832031 233.324219 L 666.195312 234.296875 C 663.945312 229.304688 661.980469 224.246094 660.09375 219.324219 C 654.289062 204.210938 648.292969 188.582031 633.511719 175.453125 C 618.136719 161.792969 591.824219 163.46875 564.605469 170.503906 C 570.074219 166.804688 575.601562 162.925781 581.21875 158.847656 C 591.066406 151.691406 594.351562 138.644531 589.035156 127.824219 C 585.523438 120.675781 580.933594 114.46875 575.394531 109.375 C 567.859375 102.445312 556.582031 100.882812 547.339844 105.488281 C 517.949219 120.125 493.371094 133.808594 472.453125 147.179688 C 469.566406 140.011719 465.800781 133.4375 461.199219 127.574219 C 454.621094 119.195312 442.511719 117.449219 433.625 123.597656 C 413.816406 137.308594 393.28125 149.367188 372.070312 159.761719 C 336.648438 158.726562 292.105469 147.707031 239.605469 126.957031 C 234.859375 125.078125 229.699219 125.207031 225.054688 127.3125 C 220.429688 129.410156 216.941406 133.191406 215.238281 137.960938 C 211.65625 147.980469 210.160156 158.117188 210.796875 168.085938 C 211.230469 174.894531 215.410156 180.890625 221.710938 183.730469 C 234.222656 189.375 247.621094 193.96875 261.746094 197.507812 C 254.308594 199.050781 246.8125 200.414062 239.257812 201.609375 C 210.710938 201.054688 185.050781 196.933594 163.003906 189.332031 C 152.402344 185.675781 140.675781 190.359375 135.746094 200.226562 C 131.679688 208.359375 129.421875 217.21875 129.042969 226.566406 C 128.890625 230.328125 129.691406 233.957031 131.238281 237.195312 C 61.902344 267.105469 23.839844 306.6875 23.839844 349.144531 C 23.839844 393.1875 64.757812 434.109375 139.050781 464.375 C 211.601562 493.929688 307.925781 510.203125 410.285156 510.203125 C 512.644531 510.203125 608.972656 493.929688 681.519531 464.375 C 755.816406 434.109375 796.734375 393.1875 796.734375 349.144531 C 796.734375 311.449219 767.3125 276.414062 711.652344 247.726562 Z M 169.101562 360.109375 C 170.230469 367.222656 173.042969 373.753906 177.570312 379.667969 C 182.691406 386.351562 190.765625 390.277344 199.328125 390.277344 C 199.636719 390.277344 199.945312 390.273438 200.253906 390.261719 C 214.734375 389.78125 229.363281 388.816406 244.097656 387.394531 C 233.828125 395.121094 224.808594 402.804688 216.839844 410.601562 C 186.589844 412.777344 156.648438 412.984375 127.816406 411.1875 C 123.199219 410.902344 119.136719 407.9375 117.460938 403.640625 C 113.3125 393.015625 112.363281 381.921875 114.636719 370.664062 C 115.632812 365.742188 119.992188 361.972656 125.234375 361.496094 C 139.636719 360.199219 154.367188 359.738281 169.101562 360.109375 Z M 214.523438 266.25 C 218.234375 269.695312 223.164062 271.648438 228.308594 271.648438 C 229.328125 271.648438 230.359375 271.570312 231.386719 271.414062 C 232.886719 271.1875 234.375 270.941406 235.863281 270.703125 C 232.074219 272.980469 228.511719 275.296875 225.171875 277.648438 C 217.847656 282.8125 214.324219 291.875 216.195312 300.734375 C 216.96875 304.40625 218.054688 307.894531 219.425781 311.199219 C 195.769531 317.109375 172.113281 319.933594 148.960938 319.625 C 144.464844 319.5625 140.464844 316.839844 138.761719 312.6875 C 135.71875 305.257812 134.035156 297.253906 133.753906 288.90625 C 133.65625 286.125 134.675781 283.449219 136.613281 281.382812 C 138.667969 279.1875 141.46875 277.929688 144.503906 277.835938 C 170.523438 277.023438 194.027344 273.101562 214.523438 266.25 Z M 447.800781 190.839844 C 484.558594 205.117188 535.269531 214.53125 606.925781 220.398438 C 609.898438 220.644531 611.277344 222.730469 611.730469 223.617188 C 612.195312 224.519531 613.101562 226.894531 611.539062 229.507812 C 607.503906 236.242188 602.835938 241.847656 597.660156 246.167969 C 593.632812 249.527344 588.457031 251.203125 583.066406 250.847656 C 521.480469 246.902344 467.234375 235.402344 409.011719 213.824219 C 422.332031 206.726562 435.265625 199.066406 447.800781 190.839844 Z M 394.304688 221.359375 C 411.480469 228.015625 428.269531 233.808594 444.941406 238.808594 L 444.9375 238.824219 C 472.179688 249.039062 499.339844 263.40625 527.96875 282.75 C 531.566406 285.179688 533.988281 288.882812 534.792969 293.175781 C 535.605469 297.527344 534.664062 301.925781 532.140625 305.566406 C 527.226562 312.65625 520.980469 318.625 513.582031 323.304688 C 508.8125 326.316406 502.652344 326.539062 497.511719 323.894531 C 444.992188 296.835938 399.054688 267.410156 360.792969 236.347656 C 372.203125 231.714844 383.378906 226.726562 394.304688 221.359375 Z M 336.4375 335.367188 L 291.929688 318.429688 C 307.410156 312.753906 322.414062 306.585938 336.898438 299.9375 C 349.746094 308.390625 366.210938 316.226562 386.789062 323.65625 C 372.878906 326.246094 358.875 328.980469 344.796875 331.878906 C 341.734375 332.511719 338.917969 333.726562 336.4375 335.367188 Z M 411.988281 319.117188 C 385.929688 311.082031 365.542969 302.710938 350.097656 293.683594 C 363.457031 287.140625 376.335938 280.171875 388.71875 272.804688 C 408.128906 286.5 429.007812 299.8125 451.296875 312.667969 C 438.34375 314.660156 425.226562 316.816406 411.988281 319.117188 Z M 347.710938 241.453125 C 357.277344 249.40625 367.316406 257.257812 377.839844 264.988281 C 339.097656 287.488281 295.40625 306.019531 247.816406 320.109375 C 243.832031 321.285156 239.640625 320.101562 237.121094 317.09375 C 232.738281 311.855469 229.738281 305.5 228.199219 298.203125 C 227.34375 294.144531 228.929688 290.011719 232.242188 287.679688 C 245.539062 278.304688 262.714844 269.527344 284.746094 260.851562 C 306.433594 255.53125 327.433594 249.058594 347.710938 241.453125 Z M 225.597656 322.257812 C 226.273438 323.183594 226.976562 324.085938 227.714844 324.96875 C 231.953125 330.035156 238.21875 332.828125 244.742188 332.828125 C 246.921875 332.828125 249.128906 332.519531 251.300781 331.875 C 258.957031 329.609375 266.503906 327.210938 273.960938 324.71875 L 327.980469 345.277344 C 326.777344 347.933594 326.042969 350.832031 325.910156 353.878906 C 325.78125 356.761719 325.859375 359.574219 326.0625 362.335938 C 283.472656 371.359375 241.039062 376.632812 199.851562 378.003906 C 194.917969 378.144531 190.214844 376 187.3125 372.210938 C 178.917969 361.242188 178.632812 347.335938 186.441406 329.78125 C 199.457031 328.179688 212.535156 325.667969 225.597656 322.257812 Z M 223.855469 420.910156 C 236.042969 408.734375 250.976562 396.8125 269.457031 384.503906 C 288.910156 381.941406 308.492188 378.585938 328.109375 374.445312 C 329.664062 380.164062 332 385.566406 335.164062 390.589844 C 335.210938 390.667969 335.269531 390.742188 335.316406 390.816406 C 312.761719 415.785156 287.199219 438.492188 259.191406 458.300781 C 256.5 460.203125 253.1875 461.105469 249.882812 460.839844 C 234.828125 459.644531 225.757812 451.878906 220.457031 435.667969 C 218.726562 430.386719 220.03125 424.730469 223.855469 420.910156 Z M 344.382812 399.082031 C 347.730469 400.816406 351.472656 401.757812 355.308594 401.757812 C 357.332031 401.757812 359.382812 401.5 361.414062 400.964844 C 367.175781 399.457031 372.964844 398.003906 378.761719 396.574219 C 402.089844 408.0625 426.539062 424.71875 453.433594 447.472656 C 456.285156 449.886719 457.792969 453.421875 457.570312 457.171875 C 457.34375 460.910156 455.433594 464.226562 452.324219 466.273438 C 446.636719 470.023438 439.917969 472.59375 432.363281 473.910156 C 425.519531 475.101562 418.320312 473.992188 412.082031 470.789062 C 380.617188 454.632812 353.558594 435.117188 331.554688 412.730469 C 335.9375 408.261719 340.203125 403.707031 344.382812 399.082031 Z M 358.304688 389.097656 C 353.394531 390.386719 348.253906 388.359375 345.542969 384.050781 C 340.085938 375.390625 337.675781 365.695312 338.164062 354.410156 C 338.386719 349.28125 342.132812 344.957031 347.273438 343.898438 C 388.691406 335.363281 429.535156 328.160156 468.726562 322.46875 C 476.304688 326.628906 484.019531 330.742188 491.890625 334.800781 C 496.035156 336.9375 500.570312 337.996094 505.078125 337.996094 C 510.351562 337.996094 515.589844 336.546875 520.136719 333.671875 C 528.640625 328.292969 535.855469 321.460938 541.621094 313.375 C 554.570312 312.035156 567.527344 310.84375 580.183594 309.835938 L 580.246094 309.832031 C 586.320312 309.367188 591.726562 313.605469 592.539062 319.511719 C 593.824219 328.894531 592.417969 337.632812 588.242188 346.226562 C 586.566406 349.671875 582.992188 352.003906 578.910156 352.316406 C 503.742188 358.058594 429.519531 370.433594 358.304688 389.097656 Z M 516.078125 371.074219 C 521.984375 390.691406 533.964844 411.558594 553.464844 436.210938 C 555.132812 438.320312 555.691406 441.039062 555.007812 443.667969 C 554.335938 446.238281 552.566406 448.285156 550.152344 449.28125 C 543.347656 452.082031 534.957031 453.820312 525.214844 454.445312 C 517.84375 454.925781 510.746094 451.585938 506.203125 445.539062 C 489.464844 423.253906 476.066406 400.722656 466.277344 378.453125 C 482.785156 375.664062 499.394531 373.207031 516.078125 371.074219 Z M 579.847656 364.546875 C 588.253906 363.90625 595.703125 358.941406 599.277344 351.589844 C 600.847656 348.359375 602.070312 345.066406 603.023438 341.726562 L 707.359375 366.003906 C 711.621094 366.996094 714.460938 370.949219 713.964844 375.199219 C 712.789062 385.25 708.1875 393.722656 699.902344 401.113281 C 697.777344 403.007812 694.839844 403.703125 692.050781 402.964844 L 554.199219 366.78125 C 562.738281 365.953125 571.285156 365.203125 579.847656 364.546875 Z M 706.382812 353.175781 L 605.113281 329.613281 C 605.355469 325.738281 605.238281 321.808594 604.695312 317.839844 C 604.21875 314.382812 602.980469 311.207031 601.195312 308.433594 L 691.492188 302.414062 L 709.414062 301.644531 C 713.734375 301.460938 717.886719 303.261719 720.722656 306.582031 C 723.453125 309.78125 724.546875 313.949219 723.722656 318.007812 C 721.359375 329.652344 715.527344 341.46875 706.382812 353.175781 Z M 686.4375 245.582031 C 693.167969 245.21875 699.527344 249.386719 701.8125 255.652344 C 703.984375 261.605469 705.160156 267.859375 705.296875 274.238281 C 705.480469 282.613281 699.082031 289.609375 690.730469 290.167969 L 579.332031 297.59375 L 579.332031 297.597656 C 579.304688 297.597656 579.277344 297.597656 579.253906 297.597656 C 568.648438 298.441406 557.835938 299.414062 546.996094 300.492188 C 547.46875 297.351562 547.449219 294.128906 546.847656 290.914062 C 545.433594 283.371094 541.167969 276.859375 534.832031 272.582031 C 524.378906 265.519531 514.113281 259.113281 503.953125 253.296875 C 529.28125 258.132812 555.074219 261.347656 582.28125 263.089844 C 583.007812 263.136719 583.734375 263.160156 584.460938 263.160156 C 592.210938 263.160156 599.617188 260.511719 605.515625 255.585938 C 607.808594 253.675781 610.007812 251.5625 612.109375 249.265625 Z M 625.363281 184.625 C 637.910156 195.773438 643.121094 209.351562 648.636719 223.722656 C 650.050781 227.394531 651.507812 231.152344 653.097656 234.949219 L 621.625 236.511719 C 621.769531 236.273438 621.921875 236.050781 622.0625 235.8125 C 625.339844 230.339844 625.558594 223.6875 622.644531 218.011719 C 619.746094 212.367188 614.242188 208.691406 607.925781 208.171875 C 575.128906 205.484375 546.863281 202.0625 522.40625 197.777344 C 557.945312 183.652344 606.230469 167.625 625.363281 184.625 Z M 552.808594 116.472656 C 557.53125 114.117188 563.269531 114.898438 567.089844 118.410156 C 571.507812 122.46875 575.183594 127.457031 578.023438 133.238281 C 580.660156 138.597656 578.933594 145.34375 574.003906 148.921875 C 548.058594 167.777344 523.933594 182.351562 500.320312 193.449219 C 485.402344 190.183594 472.125 186.5 460.285156 182.367188 C 462.71875 180.65625 465.144531 178.933594 467.546875 177.183594 C 473.238281 173.03125 476.316406 166.324219 475.945312 159.523438 C 497.148438 145.753906 522.335938 131.648438 552.808594 116.472656 Z M 440.605469 133.6875 C 442.0625 132.683594 443.722656 132.191406 445.359375 132.191406 C 447.722656 132.191406 450.023438 133.210938 451.546875 135.152344 C 456.78125 141.824219 460.761719 149.625 463.371094 158.332031 C 464.359375 161.625 463.132812 165.214844 460.320312 167.265625 C 394.898438 214.964844 317.253906 245.921875 229.539062 259.285156 C 226.414062 259.765625 223.316406 258.394531 221.644531 255.804688 C 216.722656 248.160156 214.664062 237.367188 215.523438 223.730469 C 215.765625 219.894531 218.78125 216.773438 222.699219 216.304688 C 301.757812 206.839844 375.074219 179.046875 440.605469 133.6875 Z M 226.75 172.546875 C 224.636719 171.59375 223.175781 169.539062 223.035156 167.308594 C 222.507812 159.015625 223.769531 150.53125 226.785156 142.097656 C 227.363281 140.484375 228.542969 139.203125 230.113281 138.492188 C 231.703125 137.769531 233.46875 137.726562 235.09375 138.367188 C 278.433594 155.5 316.648438 166.15625 349.144531 170.230469 C 330.015625 178.351562 310.386719 185.167969 290.289062 190.664062 C 267.273438 187.261719 245.894531 181.179688 226.75 172.546875 Z M 146.710938 205.714844 C 148.90625 201.335938 154.1875 199.28125 159.003906 200.933594 C 173.785156 206.03125 190.042969 209.644531 207.589844 211.75 C 205.109375 214.882812 203.542969 218.75 203.28125 222.960938 C 202.6875 232.320312 203.335938 240.675781 205.195312 247.976562 C 184.9375 247.683594 165.609375 243.96875 147.636719 236.910156 C 143.671875 235.355469 141.125 231.398438 141.300781 227.066406 C 141.605469 219.464844 143.425781 212.285156 146.710938 205.714844 Z M 676.894531 453.011719 C 605.777344 481.980469 511.097656 497.933594 410.285156 497.933594 C 309.476562 497.933594 214.792969 481.980469 143.675781 453.011719 C 74.308594 424.753906 36.105469 387.867188 36.105469 349.144531 C 36.105469 311.132812 72.988281 274.863281 140.019531 246.808594 C 141.011719 247.390625 142.058594 247.902344 143.148438 248.332031 C 158.792969 254.476562 175.363281 258.253906 192.617188 259.644531 C 177.785156 263.023438 161.578125 265.027344 144.121094 265.570312 C 137.808594 265.769531 131.964844 268.402344 127.664062 272.988281 C 123.480469 277.453125 121.289062 283.253906 121.492188 289.316406 C 121.820312 299.128906 123.8125 308.554688 127.410156 317.339844 C 130.980469 326.050781 139.371094 331.765625 148.789062 331.894531 C 150.035156 331.914062 151.28125 331.921875 152.527344 331.921875 C 159.210938 331.921875 165.9375 331.65625 172.683594 331.160156 C 170.59375 336.976562 169.304688 342.53125 168.796875 347.824219 C 153.796875 347.472656 138.800781 347.953125 124.132812 349.28125 C 113.523438 350.238281 104.675781 358.035156 102.613281 368.238281 C 99.863281 381.839844 101.015625 395.25 106.03125 408.105469 C 109.441406 416.835938 117.691406 422.855469 127.054688 423.4375 C 140.335938 424.261719 153.839844 424.675781 167.496094 424.675781 C 181.046875 424.675781 194.746094 424.253906 208.523438 423.445312 C 207.015625 428.558594 207.046875 434.132812 208.796875 439.480469 C 215.566406 460.195312 229.058594 471.496094 248.90625 473.074219 C 249.609375 473.128906 250.308594 473.160156 251.007812 473.160156 C 256.464844 473.160156 261.816406 471.472656 266.273438 468.320312 C 286.429688 454.0625 305.34375 438.328125 322.851562 421.375 C 345.765625 444.683594 373.871094 464.960938 406.484375 481.703125 C 412.824219 484.960938 419.890625 486.644531 426.960938 486.644531 C 429.476562 486.644531 431.992188 486.429688 434.472656 485.996094 C 443.695312 484.394531 451.972656 481.203125 459.078125 476.523438 C 465.445312 472.328125 469.363281 465.542969 469.820312 457.90625 C 470.277344 450.257812 467.195312 443.039062 461.359375 438.105469 C 438.5 418.765625 417.273438 403.664062 396.914062 392.265625 C 415.71875 387.949219 434.703125 384.0625 453.835938 380.625 C 464.101562 404.660156 478.402344 428.953125 496.398438 452.914062 C 502.988281 461.6875 513.117188 466.761719 523.828125 466.761719 C 524.550781 466.761719 525.277344 466.738281 526.003906 466.691406 C 537.082031 465.980469 546.78125 463.941406 554.828125 460.625 C 560.832031 458.152344 565.226562 453.101562 566.878906 446.769531 C 568.546875 440.382812 567.167969 433.761719 563.085938 428.601562 C 546.425781 407.527344 535.605469 389.585938 529.636719 373.019531 L 688.933594 414.835938 C 690.703125 415.300781 692.496094 415.523438 694.273438 415.523438 C 699.3125 415.523438 704.222656 413.699219 708.066406 410.273438 C 718.546875 400.929688 724.628906 389.609375 726.148438 376.625 C 727.015625 369.226562 723.8125 362.21875 718.207031 357.890625 C 727.296875 345.574219 733.195312 333.007812 735.746094 320.449219 C 737.324219 312.664062 735.25 304.707031 730.050781 298.613281 C 725.695312 293.511719 719.703125 290.378906 713.191406 289.597656 C 716.070312 285.089844 717.6875 279.714844 717.5625 273.96875 C 717.492188 270.753906 717.191406 267.5625 716.691406 264.410156 C 760.515625 289.382812 784.464844 319.160156 784.464844 349.144531 C 784.464844 387.867188 746.261719 424.753906 676.894531 453.011719 Z M 601.679688 516.511719 C 529.945312 516.511719 453.703125 535.382812 453.703125 570.359375 C 453.703125 594.195312 463.371094 615.894531 481.660156 633.101562 C 491.191406 642.070312 502.949219 649.726562 516.46875 655.84375 L 525.929688 674.890625 C 532.621094 688.371094 545.652344 697.320312 560.78125 698.832031 C 574.355469 700.183594 588.019531 700.863281 601.6875 700.863281 C 615.5625 700.863281 629.4375 700.164062 643.210938 698.769531 C 657.957031 697.273438 670.75 688.347656 677.429688 674.898438 L 686.917969 655.792969 C 693.457031 652.839844 699.625 649.539062 705.3125 645.859375 C 733.910156 627.367188 749.660156 600.554688 749.660156 570.359375 C 749.660156 535.382812 673.417969 516.511719 601.679688 516.511719 Z M 601.679688 528.78125 C 681.65625 528.78125 737.390625 550.691406 737.390625 570.359375 C 737.390625 577.246094 730.53125 584.40625 718.210938 590.808594 C 709.292969 581.46875 683.167969 556.105469 660.726562 554.242188 C 649.777344 553.335938 638.15625 555.109375 627.109375 559.382812 C 620.429688 561.96875 612.878906 561.835938 606.398438 559.019531 C 597.199219 555.023438 582.292969 550.605469 563.519531 552.265625 C 538.296875 554.492188 497.285156 582.949219 485.886719 591.183594 C 473.109375 584.6875 465.96875 577.382812 465.96875 570.359375 C 465.972656 550.691406 521.703125 528.78125 601.679688 528.78125 Z M 706.253906 596.109375 C 682.171875 605.324219 645.59375 611.9375 601.679688 611.9375 C 558.984375 611.9375 523.210938 605.6875 499.121094 596.875 C 514.363281 586.351562 545.777344 566.148438 564.597656 564.488281 C 580.804688 563.0625 593.617188 566.84375 601.507812 570.273438 C 610.925781 574.367188 621.867188 574.566406 631.535156 570.828125 C 638.035156 568.308594 648.203125 565.515625 659.710938 566.46875 C 674.796875 567.726562 694.941406 584.835938 706.253906 596.109375 Z M 698.648438 635.558594 C 673.933594 651.539062 639.496094 660.339844 601.679688 660.339844 C 598.292969 660.339844 595.546875 663.089844 595.546875 666.476562 C 595.546875 669.863281 598.292969 672.609375 601.679688 672.609375 C 626.210938 672.609375 649.476562 669.046875 669.960938 662.355469 L 666.441406 669.441406 C 661.648438 679.09375 652.5 685.496094 641.972656 686.5625 C 615.445312 689.25 588.535156 689.273438 562 686.621094 C 551.097656 685.535156 541.71875 679.109375 536.917969 669.433594 L 533.414062 662.382812 C 539.09375 664.238281 544.988281 665.871094 551.101562 667.238281 C 551.554688 667.339844 552.003906 667.390625 552.449219 667.390625 C 555.257812 667.390625 557.789062 665.449219 558.425781 662.59375 C 559.167969 659.289062 557.085938 656.007812 553.78125 655.265625 C 511.261719 645.753906 482.007812 624.609375 470.925781 596.617188 C 497.480469 614.675781 550.714844 624.207031 601.679688 624.207031 C 652.640625 624.207031 705.867188 614.679688 732.429688 596.625 C 726.429688 611.738281 715.0625 624.945312 698.648438 635.558594 Z M 698.648438 635.558594 " fill-opacity="1" fill-rule="nonzero"/></g></svg>