<svg xmlns="http://www.w3.org/2000/svg" xmlns:xlink="http://www.w3.org/1999/xlink" width="1080" zoomAndPan="magnify" viewBox="0 0 810 809.999993" height="1080" preserveAspectRatio="xMidYMid meet" version="1.0"><defs><clipPath id="f17eac024e"><path d="M 384 213 L 538 213 L 538 655.546875 L 384 655.546875 Z M 384 213 " clip-rule="nonzero"/></clipPath><clipPath id="cc63c197c8"><path d="M 557 264 L 728 264 L 728 655.546875 L 557 655.546875 Z M 557 264 " clip-rule="nonzero"/></clipPath><clipPath id="21254549ed"><path d="M 124 117.046875 L 356 117.046875 L 356 655.546875 L 124 655.546875 Z M 124 117.046875 " clip-rule="nonzero"/></clipPath></defs><g clip-path="url(#f17eac024e)"><path fill="#000000" d="M 499.476562 387.265625 L 499.476562 232.4375 L 509.09375 232.4375 L 509.09375 213.207031 L 412.917969 213.207031 L 412.917969 232.4375 L 422.535156 232.4375 L 422.535156 387.265625 C 400.617188 391.726562 384.0625 411.164062 384.0625 434.375 L 384.0625 645.929688 C 384.0625 651.238281 388.371094 655.546875 393.683594 655.546875 L 528.328125 655.546875 C 533.636719 655.546875 537.945312 651.238281 537.945312 645.929688 L 537.945312 434.375 C 537.945312 411.152344 521.394531 391.726562 499.476562 387.265625 Z M 432.152344 405.527344 C 437.460938 405.527344 441.769531 401.21875 441.769531 395.910156 L 441.769531 232.4375 L 480.238281 232.4375 L 480.238281 395.910156 C 480.238281 401.21875 484.546875 405.527344 489.859375 405.527344 C 505.765625 405.527344 518.710938 418.46875 518.710938 434.375 L 403.300781 434.375 C 403.300781 418.46875 416.246094 405.527344 432.152344 405.527344 Z M 518.710938 453.609375 L 518.710938 597.847656 L 403.300781 597.847656 L 403.300781 453.609375 Z M 403.300781 636.3125 L 403.300781 617.082031 L 518.710938 617.082031 L 518.710938 636.3125 Z M 403.300781 636.3125 " fill-opacity="1" fill-rule="nonzero"/></g><g clip-path="url(#cc63c197c8)"><path fill="#000000" d="M 711.0625 395.910156 L 673.714844 395.910156 L 681.777344 323.394531 L 727.476562 277.699219 L 713.878906 264.105469 L 665.792969 312.183594 C 664.242188 313.730469 663.273438 315.75 663.03125 317.925781 L 654.367188 395.910156 L 566.796875 395.910156 C 564.183594 395.910156 561.671875 396.980469 559.863281 398.863281 C 558.054688 400.746094 557.085938 403.296875 557.191406 405.910156 L 566.808594 646.3125 C 567.007812 651.46875 571.25 655.546875 576.414062 655.546875 L 701.445312 655.546875 C 706.609375 655.546875 710.839844 651.46875 711.050781 646.3125 L 720.667969 405.910156 C 720.773438 403.296875 719.8125 400.75 717.996094 398.863281 C 716.1875 396.980469 713.675781 395.910156 711.0625 395.910156 Z M 701.050781 415.144531 L 699.25 460.15625 C 697.203125 458.945312 695.242188 457.492188 693.019531 455.714844 C 686.488281 450.492188 678.363281 443.992188 662.964844 443.992188 C 647.566406 443.992188 639.4375 450.492188 632.898438 455.714844 C 627.253906 460.234375 623.511719 463.222656 614.867188 463.222656 C 606.21875 463.222656 602.5 460.234375 596.84375 455.714844 C 592.128906 451.945312 586.535156 447.539062 578.023438 445.355469 L 576.808594 415.144531 Z M 585.65625 636.3125 L 578.859375 466.453125 C 580.800781 467.648438 582.695312 469.03125 584.820312 470.734375 C 591.351562 475.957031 599.46875 482.457031 614.867188 482.457031 C 630.265625 482.457031 638.390625 475.957031 644.921875 470.734375 C 650.566406 466.214844 654.308594 463.222656 662.964844 463.222656 C 671.609375 463.222656 675.351562 466.214844 681.007812 470.734375 C 685.449219 474.292969 690.699219 478.398438 698.425781 480.675781 L 692.203125 636.3125 Z M 585.65625 636.3125 " fill-opacity="1" fill-rule="nonzero"/></g><g clip-path="url(#21254549ed)"><path fill="#000000" d="M 287.890625 203.589844 L 268.652344 203.589844 L 268.652344 184.359375 L 278.269531 184.359375 C 283.582031 184.359375 287.890625 180.050781 287.890625 174.742188 L 287.890625 145.894531 C 287.890625 129.988281 274.945312 117.046875 259.035156 117.046875 L 220.566406 117.046875 C 204.660156 117.046875 191.714844 129.988281 191.714844 145.894531 L 191.714844 174.742188 C 191.714844 180.050781 196.023438 184.359375 201.332031 184.359375 L 210.949219 184.359375 L 210.949219 203.589844 L 191.714844 203.589844 C 154.589844 203.589844 124.390625 233.785156 124.390625 270.902344 L 124.390625 357.445312 C 124.390625 369.984375 132.429688 380.679688 143.625 384.652344 L 143.625 455.261719 C 132.429688 459.234375 124.390625 469.925781 124.390625 482.464844 L 124.390625 607.472656 C 124.390625 623.378906 137.335938 636.324219 153.242188 636.324219 L 156.917969 636.324219 L 159.582031 641.648438 C 163.878906 650.21875 172.507812 655.546875 182.105469 655.546875 C 191.703125 655.546875 200.332031 650.21875 204.621094 641.628906 L 205.640625 639.59375 C 207.648438 635.542969 214.238281 635.542969 216.265625 639.59375 L 217.285156 641.628906 C 221.574219 650.21875 230.203125 655.546875 239.8125 655.546875 C 249.410156 655.546875 258.046875 650.207031 262.324219 641.628906 L 263.335938 639.601562 C 265.355469 635.554688 271.953125 635.574219 273.960938 639.59375 L 274.992188 641.648438 C 279.289062 650.21875 287.90625 655.546875 297.507812 655.546875 C 307.105469 655.546875 315.730469 650.21875 320.019531 641.628906 L 322.683594 636.3125 L 326.359375 636.3125 C 342.265625 636.3125 355.210938 623.371094 355.210938 607.464844 L 355.210938 482.457031 C 355.210938 469.917969 347.171875 459.222656 335.976562 455.25 L 335.976562 384.640625 C 347.171875 380.667969 355.210938 369.976562 355.210938 357.4375 L 355.210938 270.894531 C 355.210938 233.785156 325.011719 203.589844 287.890625 203.589844 Z M 210.949219 145.894531 C 210.949219 140.59375 215.265625 136.277344 220.566406 136.277344 L 259.035156 136.277344 C 264.335938 136.277344 268.652344 140.59375 268.652344 145.894531 L 268.652344 165.125 L 210.949219 165.125 Z M 230.183594 184.359375 L 249.417969 184.359375 L 249.417969 203.589844 L 230.183594 203.589844 Z M 153.242188 472.839844 C 158.550781 472.839844 162.859375 468.53125 162.859375 463.222656 L 162.859375 376.679688 C 162.859375 371.371094 158.550781 367.0625 153.242188 367.0625 C 147.945312 367.0625 143.625 362.746094 143.625 357.445312 L 143.625 299.75 L 182.09375 299.75 L 182.09375 308.683594 C 182.09375 355.101562 200.175781 398.738281 233 431.558594 C 262.191406 460.753906 278.269531 499.554688 278.269531 540.835938 L 278.269531 549.769531 L 143.625 549.769531 L 143.625 482.457031 C 143.625 477.15625 147.945312 472.839844 153.242188 472.839844 Z M 326.359375 617.082031 L 316.730469 617.082031 C 313.085938 617.082031 309.757812 619.136719 308.132812 622.398438 L 302.816406 633.035156 C 300.796875 637.082031 294.199219 637.0625 292.199219 633.042969 L 291.179688 630.996094 C 286.878906 622.40625 278.253906 617.082031 268.652344 617.082031 C 259.046875 617.082031 250.417969 622.417969 246.128906 630.996094 L 245.109375 633.023438 C 243.082031 637.0625 236.503906 637.074219 234.484375 633.023438 L 233.464844 630.984375 C 229.171875 622.40625 220.546875 617.082031 210.949219 617.082031 C 201.351562 617.082031 192.722656 622.40625 188.433594 630.996094 L 187.414062 633.035156 C 185.394531 637.074219 178.804688 637.082031 176.785156 633.035156 L 171.46875 622.398438 C 169.832031 619.136719 166.503906 617.082031 162.859375 617.082031 L 153.242188 617.082031 C 147.945312 617.082031 143.625 612.761719 143.625 607.464844 L 143.625 569 L 335.976562 569 L 335.976562 607.464844 C 335.976562 612.761719 331.660156 617.082031 326.359375 617.082031 Z M 326.359375 367.0625 C 321.050781 367.0625 316.742188 371.371094 316.742188 376.679688 L 316.742188 463.222656 C 316.742188 468.53125 321.050781 472.839844 326.359375 472.839844 C 331.660156 472.839844 335.976562 477.15625 335.976562 482.457031 L 335.976562 549.769531 L 297.507812 549.769531 L 297.507812 540.835938 C 297.507812 494.417969 279.425781 450.78125 246.601562 417.960938 C 217.410156 388.765625 201.332031 349.964844 201.332031 308.683594 L 201.332031 299.75 L 335.976562 299.75 L 335.976562 357.445312 C 335.976562 362.746094 331.660156 367.0625 326.359375 367.0625 Z M 335.976562 280.519531 L 143.625 280.519531 L 143.625 270.902344 C 143.625 244.390625 165.199219 222.820312 191.714844 222.820312 L 287.890625 222.820312 C 314.40625 222.820312 335.976562 244.390625 335.976562 270.902344 Z M 335.976562 280.519531 " fill-opacity="1" fill-rule="nonzero"/></g><path fill="#000000" d="M 461.003906 559.382812 C 482.222656 559.382812 499.476562 542.132812 499.476562 520.921875 C 499.476562 499.707031 482.222656 482.457031 461.003906 482.457031 C 439.789062 482.457031 422.535156 499.707031 422.535156 520.921875 C 422.535156 542.132812 439.789062 559.382812 461.003906 559.382812 Z M 461.003906 501.6875 C 471.613281 501.6875 480.238281 510.3125 480.238281 520.921875 C 480.238281 531.527344 471.613281 540.152344 461.003906 540.152344 C 450.398438 540.152344 441.769531 531.527344 441.769531 520.921875 C 441.769531 510.3125 450.398438 501.6875 461.003906 501.6875 Z M 461.003906 501.6875 " fill-opacity="1" fill-rule="nonzero"/><path fill="#000000" d="M 635.042969 362.109375 C 638.804688 358.351562 638.804688 352.265625 635.042969 348.511719 L 560.238281 273.71875 C 556.476562 269.960938 550.398438 269.960938 546.640625 273.71875 C 522.257812 298.085938 522.257812 337.742188 546.640625 362.109375 C 558.824219 374.292969 574.839844 380.390625 590.84375 380.390625 C 606.855469 380.390625 622.859375 374.292969 635.042969 362.109375 Z M 595.652344 360.773438 L 595.652344 336.320312 L 613.886719 354.550781 C 608.277344 358.082031 602.015625 360.070312 595.652344 360.773438 Z M 554.199219 294.875 L 568.691406 309.367188 L 548.503906 309.367188 C 549.523438 304.308594 551.363281 299.375 554.199219 294.875 Z M 548.984375 328.597656 L 576.414062 328.597656 L 576.414062 358.5625 C 570.519531 356.484375 564.953125 353.226562 560.238281 348.523438 C 554.535156 342.820312 550.832031 335.898438 548.984375 328.597656 Z M 548.984375 328.597656 " fill-opacity="1" fill-rule="nonzero"/></svg>