<svg xmlns="http://www.w3.org/2000/svg" xmlns:xlink="http://www.w3.org/1999/xlink" width="1080" zoomAndPan="magnify" viewBox="0 0 810 809.999993" height="1080" preserveAspectRatio="xMidYMid meet" version="1.0"><defs><clipPath id="73fdd70e01"><path d="M 34 44 L 793.746094 44 L 793.746094 751 L 34 751 Z M 34 44 " clip-rule="nonzero"/></clipPath></defs><g clip-path="url(#73fdd70e01)"><path fill="#000000" d="M 674.960938 515.398438 L 659.925781 609.480469 C 658.140625 619.898438 642.359375 617.367188 644 606.949219 C 644 606.949219 659.03125 512.867188 659.03125 512.867188 C 660.671875 502.445312 676.597656 504.976562 674.960938 515.398438 Z M 509.582031 357.601562 C 498.566406 357.75 498.566406 374.273438 509.582031 374.421875 C 520.597656 374.273438 520.597656 357.75 509.582031 357.601562 Z M 643.847656 330.359375 C 632.835938 330.507812 632.835938 347.03125 643.847656 347.179688 C 655.015625 347.03125 655.015625 330.507812 643.847656 330.359375 Z M 694.3125 357.601562 C 683.296875 357.75 683.296875 374.273438 694.3125 374.421875 C 705.476562 374.273438 705.476562 357.75 694.3125 357.601562 Z M 541.734375 327.53125 C 534.738281 336.015625 547.6875 346.734375 554.683594 338.25 C 561.679688 329.761719 548.730469 319.042969 541.734375 327.53125 Z M 596.511719 301.777344 C 589.515625 310.261719 602.46875 320.980469 609.464844 312.496094 C 616.460938 304.007812 603.507812 293.441406 596.511719 301.777344 Z M 588.328125 357.453125 C 581.328125 365.9375 594.28125 376.65625 601.277344 368.171875 C 608.273438 359.683594 595.324219 348.964844 588.328125 357.453125 Z M 595.769531 485.773438 C 591.304688 485.773438 587.730469 489.34375 587.730469 493.8125 L 587.730469 608.140625 C 587.730469 612.605469 591.304688 616.179688 595.769531 616.179688 C 600.234375 616.179688 603.808594 612.605469 603.808594 608.140625 L 603.808594 493.8125 C 603.808594 489.34375 600.234375 485.773438 595.769531 485.773438 Z M 793.449219 433.222656 C 792.855469 444.539062 786.453125 451.386719 782.730469 454.363281 C 781.242188 455.554688 779.308594 456.296875 777.523438 456.296875 C 770.824219 456.148438 766.65625 466.867188 759.808594 470.441406 C 756.386719 477.585938 709.792969 630.320312 703.839844 629.722656 L 755.9375 629.722656 C 760.402344 629.722656 763.976562 633.296875 763.976562 637.761719 L 763.976562 645.800781 C 763.976562 684.953125 732.867188 716.957031 694.015625 718.449219 C 695.949219 735.121094 685.976562 750.453125 668.261719 750.601562 C 668.261719 750.601562 132.527344 750.601562 132.527344 750.601562 C 115.113281 750.453125 104.839844 735.121094 106.777344 718.597656 C 66.734375 718.449219 34.285156 685.847656 34.285156 645.800781 L 34.285156 637.761719 C 34.285156 633.296875 37.855469 629.722656 42.320312 629.722656 L 110.796875 629.722656 C 52.890625 505.570312 32.496094 382.757812 34.730469 224.8125 C 35.027344 212.308594 40.984375 203.675781 49.167969 203.675781 L 347.921875 203.675781 C 356.109375 203.675781 361.917969 212.160156 362.363281 224.664062 C 364.148438 294.035156 359.683594 361.917969 348.964844 426.078125 C 348.074219 430.992188 347.179688 435.605469 346.285156 440.371094 C 366.382812 439.773438 384.542969 442.453125 400.171875 446.472656 C 392.433594 434.414062 396.449219 410 412.230469 406.429688 C 412.230469 406.429688 432.472656 406.429688 432.472656 406.429688 C 435.449219 366.234375 460.457031 331.699219 494.695312 321.425781 C 539.203125 239.105469 652.78125 238.957031 697.140625 321.425781 C 731.226562 331.699219 756.382812 366.234375 759.363281 406.429688 L 777.671875 406.429688 C 788.6875 408.511719 793.746094 422.207031 793.449219 433.222656 Z M 448.550781 406.429688 L 742.988281 406.429688 C 740.011719 372.191406 718.425781 343.308594 689.546875 336.164062 C 687.316406 335.570312 685.378906 334.082031 684.339844 331.996094 C 666.476562 297.160156 632.535156 275.425781 595.917969 275.425781 C 559.300781 275.425781 525.359375 297.160156 507.347656 331.996094 C 506.304688 334.082031 504.371094 335.570312 502.136719 336.164062 C 473.113281 343.308594 451.527344 372.191406 448.550781 406.429688 Z M 340.035156 456.746094 C 313.984375 458.53125 288.976562 465.972656 265.605469 478.628906 C 260.695312 481.308594 257.121094 486.667969 255.632812 492.175781 C 252.65625 539.066406 272.601562 586.40625 303.265625 620.941406 C 321.128906 619.75 343.605469 618.410156 363.105469 617.519531 C 358.195312 567.648438 374.421875 504.679688 416.84375 468.503906 C 398.683594 461.210938 367.125 454.363281 340.035156 456.746094 Z M 481.449219 514.058594 C 480.257812 511.824219 478.769531 509.589844 476.832031 507.953125 C 461.648438 497.234375 445.277344 488.003906 428.304688 480.265625 C 385.585938 514.800781 375.609375 581.9375 379.332031 616.921875 C 403.746094 616.027344 424.4375 615.433594 440.957031 615.136719 C 442.597656 576.878906 455.992188 541.597656 481.449219 514.058594 Z M 481 540.40625 C 466.265625 561.992188 458.375 587.445312 457.183594 614.988281 C 483.234375 614.839844 535.632812 614.839844 534.144531 608.4375 C 537.269531 600.695312 533.398438 591.316406 530.421875 583.726562 C 521.042969 562.734375 506.457031 544.574219 490.230469 528.347656 C 486.957031 531.921875 483.976562 536.089844 481 540.40625 Z M 182.246094 629.722656 C 186.863281 629.722656 192.519531 629.574219 199.515625 629.128906 C 190.285156 611.859375 183.585938 592.804688 179.566406 573.453125 C 170.636719 588.042969 158.28125 606.351562 162.449219 624.066406 C 166.320312 630.320312 173.613281 629.128906 182.246094 629.722656 Z M 201.003906 591.617188 C 205.320312 604.269531 210.679688 616.476562 217.375 627.789062 C 239.554688 626.003906 258.3125 624.367188 283.46875 622.578125 C 256.378906 588.9375 241.046875 546.359375 238.8125 503.191406 C 222.734375 514.800781 207.851562 528.644531 194.75 543.53125 C 191.476562 546.808594 192.21875 551.71875 193.261719 555.738281 L 192.964844 556.035156 C 194.601562 568.242188 197.28125 580.152344 201.003906 591.617188 Z M 117.644531 605.011719 C 121.214844 613.5 127.171875 627.195312 128.808594 629.722656 L 147.265625 629.722656 C 139.226562 600.992188 159.917969 573.15625 176.144531 550.828125 C 175.695312 539.660156 183.4375 531.472656 190.730469 524.179688 C 206.0625 508.550781 222.734375 492.324219 241.9375 482.050781 C 245.363281 474.757812 250.71875 468.503906 257.71875 464.484375 C 280.492188 452.128906 304.605469 444.386719 329.613281 441.558594 C 342.265625 370.253906 349.5625 295.972656 345.09375 219.902344 L 51.699219 219.902344 C 46.789062 367.871094 66.585938 489.644531 117.644531 605.011719 Z M 677.9375 718.597656 L 122.851562 718.597656 L 122.851562 724.847656 C 122.851562 730.207031 127.171875 734.523438 132.527344 734.523438 L 668.261719 734.523438 C 673.621094 734.523438 677.9375 730.207031 677.9375 724.847656 Z M 672.429688 645.800781 C 503.777344 645.949219 219.164062 645.800781 50.359375 645.800781 C 50.359375 677.0625 75.816406 702.519531 107.074219 702.519531 L 691.1875 702.519531 C 722.445312 702.519531 747.898438 677.0625 747.898438 645.800781 Z M 741.648438 473.863281 C 734.949219 472.226562 729.589844 467.460938 725.421875 462.253906 C 719.617188 454.066406 713.214844 454.214844 707.410156 462.253906 C 699.820312 474.011719 681.808594 479.222656 670.195312 468.207031 C 664.539062 463.890625 661.117188 454.066406 653.226562 456.445312 C 650.25 457.042969 646.378906 462.847656 643.253906 465.972656 C 636.851562 474.757812 619.4375 477.4375 610.503906 469.398438 C 605.890625 466.121094 602.617188 460.464844 598.894531 457.636719 C 593.535156 454.511719 590.261719 456.445312 585.5 462.550781 C 578.203125 473.863281 560.492188 479.667969 548.433594 468.503906 C 544.5625 465.378906 541.4375 460.167969 538.160156 457.785156 C 532.804688 454.660156 529.527344 456.59375 524.765625 462.550781 C 513.75 478.328125 493.058594 478.476562 482.042969 462.550781 C 478.171875 457.933594 476.535156 456.296875 472.960938 456.296875 C 464.476562 456.746094 461.054688 470.441406 450.484375 473.121094 C 467.605469 484.136719 492.164062 491.578125 498.121094 513.3125 C 506.007812 520.757812 513.304688 528.792969 520.148438 537.132812 L 516.726562 515.398438 C 515.089844 504.976562 530.867188 502.445312 532.652344 512.867188 C 532.652344 512.867188 541.734375 569.882812 541.734375 569.882812 C 556.320312 598.613281 558.554688 628.832031 517.472656 629.722656 C 518.660156 629.875 671.238281 629.722656 672.429688 629.722656 C 683.148438 629.425781 692.824219 621.535156 696.695312 609.925781 Z M 777.375 432.480469 C 777.523438 428.757812 776.480469 425.183594 774.394531 422.65625 L 415.355469 422.65625 C 411.039062 426.824219 411.632812 437.09375 415.503906 440.519531 C 432.921875 441.113281 437.238281 471.035156 451.527344 452.277344 C 462.839844 436.351562 483.382812 436.5 494.398438 452.277344 C 501.097656 460.761719 505.710938 460.613281 512.410156 452.277344 C 516.726562 447.21875 522.53125 440.371094 533.84375 440.371094 C 544.265625 440.371094 549.773438 445.878906 555.132812 452.277344 C 560.640625 459.722656 566.742188 461.210938 573.144531 452.277344 C 583.5625 437.242188 604.253906 435.605469 616.011719 452.277344 C 621.820312 460.464844 628.367188 460.316406 634.023438 452.277344 C 638.042969 446.621094 646.679688 439.625 655.460938 440.371094 C 663.945312 440.371094 669.304688 444.238281 673.324219 448.40625 C 680.46875 457.042969 686.273438 464.1875 694.90625 452.425781 C 701.605469 442.007812 717.980469 435.902344 729.589844 444.539062 C 735.246094 448.257812 737.628906 453.617188 742.542969 457.339844 C 748.050781 460.613281 752.066406 457.042969 755.789062 452.277344 C 759.511719 447.8125 764.570312 441.859375 773.800781 440.667969 C 775.585938 438.730469 777.074219 436.050781 777.375 432.480469 Z M 114.21875 166.609375 C 114.21875 177.175781 130.296875 177.175781 130.296875 166.609375 C 130.296875 149.191406 121.8125 139.960938 114.964844 132.519531 C 100.226562 119.417969 100.375 99.171875 114.964844 86.222656 C 121.8125 78.777344 130.296875 69.546875 130.296875 52.132812 C 130.296875 47.664062 126.722656 44.09375 122.257812 44.09375 C 117.792969 44.09375 114.21875 47.664062 114.21875 52.132812 C 114.21875 63.296875 109.308594 68.65625 103.203125 75.355469 C 82.960938 93.664062 82.960938 125.222656 103.203125 143.535156 C 109.308594 150.085938 114.21875 155.441406 114.21875 166.609375 Z M 188.351562 166.609375 C 188.351562 177.175781 204.425781 177.175781 204.425781 166.609375 C 204.425781 149.191406 195.941406 139.960938 189.09375 132.519531 C 174.359375 119.417969 174.507812 99.171875 189.09375 86.222656 C 195.941406 78.777344 204.425781 69.546875 204.425781 52.132812 C 204.425781 47.664062 200.855469 44.09375 196.386719 44.09375 C 191.921875 44.09375 188.351562 47.664062 188.351562 52.132812 C 188.351562 63.296875 183.4375 68.65625 177.335938 75.355469 C 157.089844 93.664062 157.089844 125.222656 177.335938 143.535156 C 183.4375 150.085938 188.351562 155.441406 188.351562 166.609375 Z M 262.332031 166.609375 C 262.332031 177.175781 278.40625 177.175781 278.40625 166.609375 C 278.40625 149.191406 269.921875 139.960938 263.074219 132.519531 C 248.339844 119.417969 248.488281 99.171875 263.074219 86.222656 C 269.921875 78.777344 278.40625 69.546875 278.40625 52.132812 C 278.40625 47.664062 274.835938 44.09375 270.371094 44.09375 C 265.902344 44.09375 262.332031 47.664062 262.332031 52.132812 C 262.332031 63.296875 257.417969 68.65625 251.316406 75.355469 C 231.070312 93.664062 231.070312 125.222656 251.316406 143.535156 C 257.566406 150.085938 262.332031 155.441406 262.332031 166.609375 Z M 262.332031 166.609375 " fill-opacity="1" fill-rule="nonzero"/></g></svg>