<svg xmlns="http://www.w3.org/2000/svg" xmlns:xlink="http://www.w3.org/1999/xlink" width="1080" zoomAndPan="magnify" viewBox="0 0 810 809.999993" height="1080" preserveAspectRatio="xMidYMid meet" version="1.0"><defs><clipPath id="557628d12e"><path d="M 45.25 59 L 777 59 L 777 759 L 45.25 759 Z M 45.25 59 " clip-rule="nonzero"/></clipPath></defs><g clip-path="url(#557628d12e)"><path fill="#000000" d="M 741.933594 481.867188 L 729.0625 481.867188 C 737.015625 404.894531 672.238281 333.851562 595.453125 327.976562 C 576.921875 325.253906 553.734375 332.175781 537.097656 320.726562 C 540.25 317.53125 543.070312 313.964844 545.363281 310.039062 C 545.378906 310.039062 545.378906 310.023438 545.378906 310.023438 C 560.097656 284.917969 552.34375 252.878906 526.148438 247.621094 C 526.578125 243.824219 532.164062 241.429688 533.84375 241.761719 C 543.472656 241.429688 543.230469 226.671875 533.398438 226.914062 C 530.375 227 522.707031 227.933594 516.746094 234.539062 C 514.839844 236.660156 513.519531 238.996094 512.605469 241.386719 C 499.476562 235.46875 484.515625 240.425781 473.953125 250.917969 C 491.050781 207.613281 459.90625 155.773438 411.597656 153.25 C 388.925781 28.046875 211.277344 28.089844 188.546875 153.265625 C 122.953125 158.035156 98.660156 241.660156 148.503906 281.609375 L 177.3125 420.113281 C 169.570312 429.941406 166.375 444.558594 169.816406 456.808594 L 146.398438 456.808594 C 122.378906 456.808594 102.257812 474.015625 98.53125 497.730469 L 98.015625 500.984375 L 70.902344 671.496094 L 52.671875 671.496094 C 48.574219 671.496094 45.25 674.820312 45.25 678.917969 L 45.25 692.617188 C 45.21875 715.886719 64.453125 734.746094 87.710938 734.34375 L 87.710938 751.351562 C 87.710938 755.449219 91.035156 758.773438 95.136719 758.773438 L 386.359375 758.773438 C 390.34375 758.773438 393.527344 755.636719 393.710938 751.695312 C 403.128906 756.253906 413.5625 758.746094 424.152344 758.746094 C 424.296875 758.773438 512.417969 758.6875 512.546875 758.773438 C 512.546875 758.773438 601.011719 758.773438 601.011719 758.773438 C 629.433594 758.773438 654.769531 741.78125 665.589844 715.488281 C 665.589844 715.488281 733.375 550.417969 733.375 550.417969 C 745.214844 551.132812 757.652344 549.445312 766.308594 540.300781 C 787.664062 519.410156 771.828125 481.324219 741.933594 481.867188 Z M 474.769531 278.570312 C 479.328125 262.335938 491.59375 251.273438 505.023438 254.269531 C 510.484375 255.671875 513.464844 260.976562 519.109375 261.578125 C 538.242188 262.222656 543.070312 284.488281 532.566406 302.527344 C 514.640625 335.945312 463.949219 314.78125 474.769531 278.570312 Z M 484.871094 329.511719 C 497.167969 335.429688 512.042969 335.742188 524.570312 330.339844 C 544.019531 345.917969 572.164062 341.503906 595.769531 343.507812 C 665.21875 347.851562 721.339844 414.023438 714.257812 483.230469 C 687.703125 476.78125 646.742188 476.695312 639.078125 509.207031 C 637.457031 517.933594 639.980469 527.105469 637.871094 535.71875 C 635.765625 544.34375 625.003906 551.910156 618.28125 546.105469 C 612.191406 540.847656 613.308594 527.851562 605.296875 527.089844 C 595.867188 527.105469 595.925781 539.085938 597.273438 545.949219 C 598.277344 555.664062 596.554688 566.4375 589.363281 573.058594 C 581.105469 580.667969 566.589844 579.894531 559.195312 571.4375 C 548.660156 559.417969 554.621094 540.933594 553.03125 525.042969 C 549.105469 488.976562 513.9375 478.988281 482.378906 481.324219 C 450.492188 481.609375 418.605469 481.882812 386.734375 482.171875 C 380.183594 482.859375 375.183594 480.121094 372.101562 474.332031 C 358.328125 455.703125 332.417969 455.574219 311.320312 456.992188 C 313.054688 456.835938 319.777344 442.78125 321.097656 441.058594 C 334.164062 424.109375 356.363281 417.359375 368.417969 399.421875 C 378.335938 384.660156 378.605469 365.605469 384.65625 348.882812 C 395.5625 318.707031 427.390625 297.472656 459.449219 298.976562 C 463.0625 312.15625 472.578125 323.59375 484.871094 329.511719 Z M 451.25 284.128906 L 451.753906 281.765625 C 455.164062 278.972656 458.273438 275.949219 461.070312 272.710938 C 459.863281 276.308594 459.21875 280.074219 458.890625 283.84375 C 456.3125 283.828125 453.773438 283.945312 451.25 284.128906 Z M 159.984375 271.835938 C 116.21875 239.511719 138.070312 167.550781 194.679688 167.867188 C 198.464844 167.867188 202.0625 164.65625 202.476562 160.886719 C 208.023438 111.152344 249.96875 73.640625 300.058594 73.640625 C 350.203125 73.640625 392.164062 111.152344 397.640625 160.832031 C 398.027344 164.613281 401.851562 167.867188 405.664062 167.867188 C 483.082031 169.558594 481.664062 281.265625 405.964844 283.226562 C 387.464844 283.355469 369.636719 274.042969 358.988281 258.953125 C 356.96875 256.589844 353.8125 255.273438 350.746094 256.304688 C 335.039062 264.699219 318.257812 270.402344 300.058594 270.101562 C 282.902344 270.101562 265.949219 265.546875 251.046875 256.921875 C 247.71875 255 243.492188 255.929688 241.269531 259.039062 C 223.542969 285.019531 184.804688 291.050781 159.984375 271.835938 Z M 177.109375 346.230469 L 165.890625 292.296875 C 170.359375 294.234375 175.046875 295.550781 179.804688 296.625 L 251.460938 374.246094 C 254.242188 377.253906 258.957031 377.441406 261.949219 374.660156 C 264.976562 371.878906 265.160156 367.179688 262.382812 364.171875 L 201.085938 297.773438 C 212.265625 296.753906 222.925781 293.15625 232.5 287.210938 L 312.785156 371.207031 C 319.503906 378.242188 330.183594 367.925781 323.519531 360.949219 C 323.519531 360.949219 244.308594 278.082031 244.308594 278.082031 C 246.058594 276.421875 247.75 274.6875 249.3125 272.867188 C 264.042969 280.289062 280.339844 284.101562 296.746094 284.574219 L 336.027344 320.855469 C 343.179688 327.417969 353.210938 316.570312 346.105469 309.953125 C 346.105469 309.953125 317.269531 283.3125 317.269531 283.3125 C 328.933594 281.550781 340.371094 278.15625 350.960938 272.796875 C 364.71875 289.101562 385.972656 298.488281 407.269531 298.074219 C 400.046875 298.203125 387.347656 314.550781 383.191406 320.011719 C 360.003906 346.820312 370.855469 386.925781 338.136719 406.871094 C 319.320312 418.863281 303.367188 435.917969 295.070312 456.820312 L 242.074219 456.820312 C 247.332031 442.535156 244.511719 422.390625 229.289062 415.226562 C 247.792969 396.054688 219.789062 390.078125 211.019531 407.632812 C 204.152344 405.324219 196.714844 406.15625 190.195312 409.121094 L 183.113281 375.105469 L 201.230469 395.238281 C 207.765625 402.429688 218.726562 392.542969 212.265625 385.308594 C 212.265625 385.308594 177.109375 346.230469 177.109375 346.230469 Z M 221.707031 461.894531 C 212.636719 471.4375 201.027344 468.914062 191.296875 463.253906 C 177.941406 455.574219 182.554688 434.226562 192.285156 425.65625 C 194.96875 423.292969 198.25 421.445312 201.804688 421.128906 C 208.683594 420.84375 212.636719 427.191406 219.589844 427.535156 C 235.078125 431.417969 230.578125 453.3125 221.707031 461.894531 Z M 146.398438 471.667969 L 177.871094 471.667969 C 192.5 486.46875 218.714844 487.945312 232.800781 471.695312 L 335.039062 471.695312 C 349.457031 471.695312 362.253906 481.195312 366.925781 494.734375 L 279.464844 494.734375 C 265.777344 494.734375 254.640625 505.871094 254.640625 519.539062 L 254.640625 549.1875 C 254.296875 567.457031 227.183594 567.441406 226.855469 549.1875 C 226.855469 545.089844 223.527344 541.761719 219.429688 541.761719 C 215.332031 541.761719 212.007812 545.089844 212.007812 549.1875 L 212.007812 569.589844 C 211.761719 587.113281 186.441406 588.117188 184.320312 571.007812 C 184.320312 571.007812 184.261719 528.765625 184.261719 528.765625 C 184.261719 524.667969 180.9375 521.34375 176.839844 521.34375 C 172.738281 521.34375 169.414062 524.667969 169.414062 528.765625 C 169.441406 530.886719 168.796875 533.496094 167.75 535.371094 C 161.460938 547.222656 143.015625 543.527344 141.683594 530.199219 C 141.683594 530.199219 141.625 519.539062 141.625 519.539062 C 141.699219 504.910156 128.929688 493.632812 114.484375 494.734375 C 118.925781 481.082031 131.59375 471.667969 146.398438 471.667969 Z M 111.6875 509.566406 L 116.804688 509.566406 C 122.292969 509.566406 126.765625 514.039062 126.765625 519.523438 C 125.488281 543.699219 144.390625 567.070312 169.386719 553.914062 C 168.355469 554.488281 169.355469 566.867188 169.414062 568.628906 C 169.699219 578.429688 173.726562 587.703125 182.027344 593.347656 C 192.960938 600.898438 208.925781 599.4375 218.339844 590.066406 C 219.632812 588.804688 229.117188 575.652344 226.496094 574.132812 C 244.769531 585.222656 270.078125 570.738281 269.488281 549.171875 C 269.488281 549.171875 269.488281 519.523438 269.488281 519.523438 C 269.488281 514.039062 273.960938 509.566406 279.449219 509.566406 L 369.808594 509.566406 C 373.492188 532.722656 391.503906 646.121094 395.546875 671.484375 L 85.949219 671.484375 Z M 378.9375 743.914062 L 102.558594 743.914062 L 102.558594 734.328125 L 378.921875 734.328125 C 378.921875 736.664062 378.9375 741.550781 378.9375 743.914062 Z M 371.5 719.484375 C 298.984375 719.484375 226.46875 719.484375 153.949219 719.484375 C 131.621094 719.484375 109.292969 719.484375 86.96875 719.484375 C 68.851562 719.328125 58.117188 703.523438 60.097656 686.34375 C 60.097656 686.34375 421.398438 686.34375 421.398438 686.34375 C 421.714844 719.425781 398.640625 721.664062 371.5 719.484375 Z M 407.355469 651.078125 L 412.113281 671.484375 L 410.59375 671.484375 Z M 424.152344 743.886719 C 414.765625 743.886719 400.878906 741.523438 393.898438 734.628906 C 397.667969 733.011719 403.183594 733.597656 407.371094 732.238281 C 413.488281 730.261719 419.0625 726.835938 423.691406 722.40625 C 426.1875 730.089844 430.042969 737.4375 434.898438 743.886719 Z M 505.09375 743.886719 L 454.71875 743.886719 C 444 733.683594 435.402344 719.097656 434.714844 704.050781 C 434.914062 695.355469 442.625 670.667969 427.375 671.496094 L 399.128906 550.390625 L 505.09375 550.390625 Z M 388.984375 535.53125 L 382.992188 497.800781 C 382.933594 497.429688 382.878906 497.058594 382.804688 496.699219 L 504.722656 496.699219 C 525.546875 496.554688 540.519531 515.3125 538.371094 535.53125 Z M 562.847656 743.914062 L 519.96875 743.914062 C 519.96875 679.40625 519.96875 614.914062 519.96875 550.402344 C 526.132812 550.402344 532.296875 550.417969 538.457031 550.417969 C 533.683594 600.398438 605.800781 609.4375 611.890625 559.203125 C 615.386719 560.894531 619.097656 562.253906 623.097656 562.527344 L 588.472656 710.957031 C 583.945312 730.359375 573.410156 743.914062 562.847656 743.914062 Z M 651.847656 709.828125 C 643.332031 730.53125 623.371094 743.914062 601.011719 743.914062 C 601.011719 743.914062 589.621094 743.914062 589.621094 743.914062 C 600.453125 730.046875 603.363281 712.378906 607.289062 695.714844 C 615.902344 658.886719 624.457031 622.0625 633.058594 585.238281 C 633.847656 581.839844 635.996094 560.71875 639.175781 558.972656 C 642.832031 556.695312 646.140625 553.984375 648.636719 550.402344 L 717.3125 550.402344 Z M 755.761719 529.828125 C 749.441406 537.207031 736.945312 535.414062 728.390625 535.558594 C 728.390625 535.558594 653.507812 535.558594 653.507812 535.558594 C 653.535156 535.1875 653.507812 534.800781 653.550781 534.425781 C 653.550781 534.425781 653.550781 513.261719 653.550781 513.261719 C 653.550781 504.09375 661.0625 496.726562 670.046875 496.714844 C 670.046875 496.714844 741.933594 496.714844 741.933594 496.714844 C 758.769531 496.226562 767.828125 518.222656 755.761719 529.828125 Z M 154.652344 501.828125 C 151.328125 492.585938 161.089844 488.375 171.089844 490.980469 C 180.894531 494.679688 186.410156 503.976562 178.214844 509.539062 C 174.675781 511.445312 170.101562 510.125 168.167969 506.472656 C 168.109375 506.371094 167.609375 505.453125 166.578125 505.125 C 165.574219 504.796875 164.671875 505.226562 164.570312 505.269531 C 160.859375 507.085938 156.445312 505.527344 154.652344 501.828125 Z M 238.976562 488.703125 C 239.980469 486.785156 242.960938 482.113281 249.195312 480.121094 C 255.230469 478.214844 260.289062 480.136719 262.179688 481.050781 C 270.894531 485.308594 264.5 498.621094 255.71875 494.421875 C 255.617188 494.363281 254.699219 493.933594 253.695312 494.261719 C 252.664062 494.59375 252.164062 495.539062 252.148438 495.554688 C 247.589844 504.179688 234.535156 497.300781 238.976562 488.703125 Z M 193.304688 518.75 C 194.292969 516.832031 197.289062 512.132812 203.535156 510.152344 C 209.527344 508.234375 214.613281 510.167969 216.507812 511.085938 C 225.21875 515.339844 218.828125 528.652344 210.042969 524.453125 C 209.886719 524.367188 208.984375 524.011719 208.035156 524.296875 C 207.003906 524.625 206.503906 525.527344 206.488281 525.570312 C 201.917969 534.097656 188.917969 527.335938 193.304688 518.75 Z M 452.183594 344.109375 C 459.648438 350.328125 450.277344 361.707031 442.738281 355.589844 C 441.605469 354.644531 440 354.398438 438.683594 354.957031 C 437.277344 355.53125 436.332031 356.90625 436.234375 358.441406 C 436.019531 362.539062 432.433594 365.660156 428.394531 365.417969 C 424.296875 365.175781 421.171875 361.664062 421.414062 357.566406 C 421.84375 342.605469 440.90625 334.195312 452.183594 344.109375 Z M 638.21875 438.25 C 638.632812 431.085938 643.160156 424.683594 649.769531 421.929688 C 658.109375 417.390625 677.328125 423.867188 670.003906 435.242188 C 667.394531 438.410156 662.722656 438.855469 659.542969 436.261719 C 658.394531 435.300781 656.820312 435.070312 655.472656 435.628906 C 654.082031 436.203125 653.136719 437.578125 653.035156 439.113281 C 652.417969 448.8125 637.671875 447.9375 638.21875 438.25 Z M 571.589844 386.839844 C 564.28125 375.449219 583.484375 368.984375 591.828125 373.527344 C 601.3125 376.28125 610.070312 395.867188 595.953125 397.703125 C 592.054688 397.703125 588.773438 394.648438 588.542969 390.707031 C 588.445312 387.511719 584.445312 385.75 582.039062 387.855469 C 578.871094 390.464844 574.199219 390.007812 571.589844 386.839844 Z M 488.183594 424.480469 C 480.847656 413.105469 500.0625 406.628906 508.417969 411.15625 C 517.890625 413.90625 526.648438 433.507812 512.53125 435.328125 C 508.632812 435.328125 505.351562 432.277344 505.121094 428.335938 C 505.023438 425.140625 501.054688 423.394531 498.632812 425.484375 C 495.476562 428.105469 490.792969 427.632812 488.183594 424.480469 Z M 403.828125 430.183594 C 411.296875 436.402344 401.925781 447.78125 394.386719 441.664062 C 393.238281 440.703125 391.664062 440.472656 390.316406 441.03125 C 388.925781 441.605469 387.980469 442.980469 387.878906 444.511719 C 387.664062 448.613281 384.082031 451.734375 380.039062 451.492188 C 375.941406 451.25 372.816406 447.738281 373.0625 443.640625 C 373.476562 428.679688 392.535156 420.269531 403.828125 430.183594 Z M 217.222656 162.550781 C 221.925781 120.335938 257.535156 88.5 300.058594 88.5 C 304.15625 88.5 307.480469 91.824219 307.480469 95.921875 C 307.480469 100.019531 304.15625 103.34375 300.058594 103.34375 C 265.117188 103.34375 235.867188 129.507812 232 164.183594 C 230.867188 173.839844 216.191406 172.195312 217.222656 162.550781 Z M 217.222656 162.550781 " fill-opacity="1" fill-rule="nonzero"/></g></svg>