<?xml version="1.0" encoding="UTF-8" standalone="no"?>
<!DOCTYPE svg PUBLIC "-//W3C//DTD SVG 1.1//EN" "http://www.w3.org/Graphics/SVG/1.1/DTD/svg11.dtd">
<svg width="100%" height="100%" viewBox="0 0 354 184" version="1.1" xmlns="http://www.w3.org/2000/svg" xmlns:xlink="http://www.w3.org/1999/xlink" xml:space="preserve" xmlns:serif="http://www.serif.com/" style="fill-rule:evenodd;clip-rule:evenodd;stroke-linejoin:round;stroke-miterlimit:2;">
    <g id="Artboard1" transform="matrix(0.914729,0,0,0.953368,-53.969,-106.777)">
        <rect x="59" y="112" width="387" height="193" style="fill:none;"/>
        <clipPath id="_clip1">
            <rect x="59" y="112" width="387" height="193"/>
        </clipPath>
        <g clip-path="url(#_clip1)">
            <g transform="matrix(1.09322,0,0,1.04891,-24.0847,-14.9185)">
                <path d="M292.339,195.344L259.177,163.073C260.318,160.115 258.333,155.063 254.141,150.839C249.26,145.938 243.245,144.031 240.703,146.583C238.167,149.135 240.063,155.182 244.943,160.083C249.135,164.297 254.172,166.297 257.12,165.146L289.234,198.464C290.219,199.49 291.495,199.865 292.057,199.292L293.167,198.182C293.729,197.615 293.359,196.333 292.339,195.344Z" style="fill:rgb(225,163,65);fill-rule:nonzero;"/>
            </g>
            <g transform="matrix(1.09322,0,0,1.04891,-24.0847,-14.9185)">
                <path d="M299.375,146.427L286.12,159.448C285.917,159.641 285.594,159.641 285.391,159.438C285.198,159.234 285.198,158.922 285.391,158.719L298.349,145.396C298.583,145.156 298.583,144.766 298.339,144.531C298.109,144.302 297.74,144.292 297.495,144.505L284.229,156.344C281.948,158.375 281.417,161.75 282.901,164.271L249.839,196.443C248.813,197.438 248.443,198.719 249.01,199.286L250.115,200.396C250.682,200.964 251.964,200.594 252.943,199.568L284.969,166.349C287.432,167.849 290.719,167.443 292.724,165.177L304.651,151.693C304.87,151.448 304.854,151.083 304.625,150.849C304.391,150.609 304,150.609 303.766,150.839L290.505,163.854C290.302,164.052 289.984,164.052 289.781,163.849C289.589,163.646 289.589,163.328 289.781,163.125L302.734,149.802C302.969,149.568 302.964,149.177 302.729,148.938L302.432,148.641C302.193,148.406 301.807,148.406 301.573,148.635L288.313,161.651C288.109,161.844 287.786,161.844 287.589,161.641C287.391,161.438 287.391,161.125 287.589,160.922L300.542,147.599C300.776,147.359 300.776,146.974 300.531,146.734L300.234,146.438C300,146.198 299.615,146.193 299.375,146.427Z" style="fill:rgb(225,163,65);fill-rule:nonzero;"/>
            </g>
            <g transform="matrix(1.09322,0,0,1.04891,-24.0847,-14.9185)">
                <path d="M265.813,123.964C265.813,123.964 266.016,124.245 266.115,124.38C268.958,128.323 269.583,130.469 263.599,142.047C259.786,149.432 263.229,154.729 266.427,157.698C266.401,157.479 266.385,157.25 266.385,157.031C266.354,155.281 266.958,153.536 268.057,152.203C268.141,153.042 269,153.63 269.823,153.698C270.641,153.766 271.443,153.349 272.042,152.771C273.427,151.432 273.813,149.135 272.953,147.396C274.833,147.786 276.573,149.208 277.359,151.016C278.141,152.823 278.167,154.917 277.646,156.818C277.427,157.615 277.115,158.375 276.734,159.115C277.432,158.615 278.047,157.99 278.557,157.26C280.406,154.578 282.453,150.219 282.453,144.078C282.453,128.104 265.813,123.964 265.813,123.964Z" style="fill:rgb(225,163,65);fill-rule:nonzero;"/>
            </g>
            <g transform="matrix(1.09322,0,0,1.04891,-24.0847,-14.9185)">
                <path d="M362.818,185.786C340.661,179.661 313.797,177.542 295.526,176.484C294.964,176.448 294.474,176.88 294.438,177.448C294.406,178.016 294.833,178.51 295.401,178.536C313.578,179.589 340.297,181.688 362.266,187.76C362.359,187.786 362.453,187.797 362.536,187.797C362.984,187.797 363.396,187.5 363.526,187.042C363.688,186.5 363.365,185.927 362.818,185.786Z" style="fill:rgb(225,163,65);fill-rule:nonzero;"/>
            </g>
            <g transform="matrix(1.09322,0,0,1.04891,-24.0847,-14.9185)">
                <path d="M248.859,176.484C230.578,177.542 203.724,179.656 181.568,185.786C181.021,185.938 180.698,186.505 180.849,187.057C180.979,187.516 181.391,187.813 181.839,187.813C181.932,187.813 182.026,187.802 182.109,187.776C204.078,181.708 230.786,179.604 248.974,178.552C249.542,178.516 249.969,178.036 249.938,177.469C249.901,176.896 249.422,176.438 248.859,176.484Z" style="fill:rgb(225,163,65);fill-rule:nonzero;"/>
            </g>
            <g transform="matrix(1.09322,0,0,1.04891,59.3992,238.433)">
                <g>
                    <g>
                        <path d="M23.875,31.979C23.526,31.979 23.198,31.875 22.896,31.667C22.354,31.427 22.042,31.125 21.958,30.75C21.885,30.375 21.88,29.885 21.938,29.292C22.13,27.359 22.479,25.464 22.979,23.604C23.479,21.74 24.047,19.844 24.688,17.917C27.115,10.526 29.672,3.089 32.354,-4.396C33.146,-6.573 33.292,-8.875 32.792,-11.292L32.708,-11.604L20.521,-11.604C19.281,-11.604 18.021,-11.625 16.729,-11.667C16.63,-11.667 16.406,-11.646 16.063,-11.604C15.755,-11.547 15.531,-11.521 15.396,-11.521C15.047,-11.521 14.776,-11.594 14.583,-11.75C14.427,-11.901 14.302,-12.151 14.208,-12.5C14.109,-12.885 14.208,-13.13 14.5,-13.229C14.792,-13.323 15.234,-13.375 15.833,-13.375L16.125,-13.375C16.969,-13.375 17.823,-13.422 18.688,-13.521C19.563,-13.63 20.396,-13.708 21.188,-13.75C22.188,-13.901 23.177,-14.01 24.167,-14.083C25.151,-14.167 26.146,-14.208 27.146,-14.208C27.979,-14.208 28.74,-14.177 29.438,-14.125C29.688,-14.083 29.885,-14.062 30.042,-14.062C31.969,-14.062 32.688,-15.172 32.188,-17.396C30.354,-25.521 27.427,-32.312 23.417,-37.771C19.401,-43.229 14.125,-47.615 7.583,-50.937L6.979,-51.229C6.24,-51.573 5.573,-51.958 4.979,-52.375C4.38,-52.802 4.063,-53.417 4.021,-54.208C3.964,-55 4.219,-55.521 4.792,-55.771C5.359,-56.021 5.99,-56.193 6.688,-56.292L7.146,-56.354C11.198,-57.198 15.531,-57.969 20.146,-58.667C24.755,-59.359 29.839,-60.052 35.396,-60.75C38.563,-61.094 41.729,-61.443 44.896,-61.792C48.073,-62.135 51.229,-62.458 54.354,-62.75C56.63,-62.958 57.844,-64.151 58,-66.333C58.094,-67.417 58.385,-68.437 58.875,-69.396C59.375,-70.365 59.969,-70.854 60.667,-70.854C60.917,-70.854 61.167,-70.781 61.417,-70.646C61.917,-70.396 62.234,-70.115 62.375,-69.812C62.526,-69.464 62.51,-69.068 62.333,-68.625C62.167,-68.177 61.958,-67.734 61.708,-67.292C61.568,-66.943 61.422,-66.609 61.271,-66.292C61.115,-65.969 61.021,-65.635 60.979,-65.292C60.979,-65.135 60.875,-64.839 60.667,-64.396C60.625,-64.24 60.526,-63.927 60.375,-63.458C60.219,-62.984 60.146,-62.75 60.146,-62.75L60.667,-62.833C63,-63.276 65.24,-63.547 67.396,-63.646C69.563,-63.74 71.583,-63.792 73.458,-63.792L77.25,-63.792L80.083,-63.729C85.875,-63.729 91.646,-62.984 97.396,-61.5C97.896,-61.344 98.401,-61.193 98.917,-61.042C99.443,-60.885 99.958,-60.693 100.458,-60.458C101.5,-59.901 102.104,-59.422 102.271,-59.021C102.448,-58.63 102.51,-58.312 102.458,-58.062C102.359,-57.771 102.26,-57.594 102.167,-57.542C102.068,-57.5 101.99,-57.479 101.938,-57.479C101.781,-57.479 101.609,-57.526 101.417,-57.625C101.219,-57.719 101.026,-57.844 100.833,-58C100.427,-58.25 100.13,-58.422 99.938,-58.521C97.406,-59.656 94.885,-60.406 92.375,-60.771C89.875,-61.146 87.406,-61.458 84.979,-61.708L83.125,-61.854C81,-62.062 78.74,-62.167 76.354,-62.167C74.229,-62.167 72.094,-62.089 69.958,-61.937C67.833,-61.781 65.729,-61.635 63.646,-61.5L60.521,-61.271C59.922,-61.214 59.484,-61.047 59.208,-60.771C58.943,-60.505 58.734,-60.198 58.583,-59.854C55.708,-53.755 52.958,-47.583 50.333,-41.333C47.708,-35.094 45.052,-28.729 42.375,-22.229L39.333,-14.937L39.938,-14.583C40.031,-14.625 40.083,-14.646 40.083,-14.646C40.333,-14.646 40.542,-14.615 40.708,-14.562C40.885,-14.521 41.047,-14.5 41.188,-14.5C41.396,-14.443 41.547,-14.396 41.646,-14.354C42.188,-14.297 42.714,-14.255 43.229,-14.229C43.755,-14.214 44.292,-14.208 44.833,-14.208L46.25,-14.125L47.438,-14.125C49.672,-14.026 51.917,-13.917 54.167,-13.792C56.417,-13.667 58.656,-13.505 60.896,-13.312C61.438,-13.255 61.927,-13.167 62.375,-13.042C62.833,-12.917 63.109,-12.781 63.208,-12.646C63.208,-12.547 63.167,-12.469 63.083,-12.417C63.01,-12.359 62.802,-12.333 62.458,-12.333L61.708,-12.333C60.76,-12.385 59.88,-12.427 59.063,-12.458C58.255,-12.484 57.458,-12.5 56.667,-12.5C55.969,-12.5 55.26,-12.484 54.542,-12.458C53.818,-12.427 53.089,-12.417 52.354,-12.417L48.042,-12.417C44.568,-12.417 41.917,-12.104 40.083,-11.479C38.25,-10.865 36.958,-9.693 36.208,-7.958C35.469,-6.219 34.948,-3.667 34.646,-0.292C33.698,11.302 31.026,21.115 26.625,29.146C26.469,29.49 26.271,29.813 26.021,30.104C25.771,30.406 25.521,30.734 25.271,31.083L25.125,31.229C24.734,31.729 24.318,31.979 23.875,31.979ZM30.271,10.188L25.125,25.271L25.646,25.646C28.823,21.188 30.542,16.109 30.792,10.417L30.271,10.188ZM55.771,-60.75L55.167,-60.75C47.776,-60.208 40.24,-59.385 32.563,-58.292C24.88,-57.208 16.427,-55.75 7.208,-53.917L6.542,-53.833L7.292,-53.396C11.693,-51.062 15.458,-48.49 18.583,-45.687C21.708,-42.896 24.339,-39.76 26.479,-36.292C30.281,-29.984 33.005,-22.719 34.646,-14.5L34.875,-13.458L35.167,-14.271C36.458,-17.104 37.708,-19.943 38.917,-22.792C40.135,-25.635 41.339,-28.479 42.521,-31.312C44.563,-36.062 46.646,-40.865 48.771,-45.729C50.906,-50.589 53.167,-55.443 55.542,-60.292L55.771,-60.75Z" style="fill-rule:nonzero;"/>
                    </g>
                </g>
            </g>
            <g transform="matrix(1.09322,0,0,1.04891,133.034,238.433)">
                <g>
                    <g>
                        <path d="M25.438,-11C25.781,-11.193 26.177,-11.292 26.625,-11.292C26.667,-11.052 26.563,-10.823 26.313,-10.604C26.073,-10.38 25.854,-10.167 25.646,-9.958L25.208,-9.583C23.417,-8.25 21.604,-6.948 19.771,-5.687C17.938,-4.422 15.964,-3.38 13.854,-2.562C11.755,-1.74 9.417,-1.333 6.833,-1.333L6.542,-1.333C4.01,-1.333 2.052,-2.104 0.667,-3.646C-0.568,-5.073 -0.99,-6.812 -0.604,-8.854C0.781,-15.646 5.198,-20.026 12.646,-22C13.031,-22.109 13.427,-22.167 13.833,-22.167C15.01,-22.167 15.979,-21.646 16.729,-20.604C17.323,-19.812 17.51,-19.125 17.292,-18.542C17.068,-17.969 16.734,-17.396 16.292,-16.812C14.302,-14.38 11.031,-12.818 6.479,-12.125C4.839,-11.875 3.771,-11.229 3.271,-10.187C2.771,-9.146 2.401,-8.026 2.167,-6.833L2.083,-6.312C1.927,-5.615 2.052,-4.979 2.458,-4.396C3,-3.646 3.865,-3.094 5.063,-2.75C5.948,-2.5 6.885,-2.375 7.875,-2.375C8.667,-2.375 9.427,-2.448 10.167,-2.604C10.917,-2.755 11.714,-2.948 12.563,-3.187C15.188,-3.937 17.813,-5.198 20.438,-6.979C21.589,-7.729 22.734,-8.625 23.875,-9.667C23.969,-9.719 24.068,-9.797 24.167,-9.896C24.26,-9.99 24.359,-10.089 24.458,-10.187C24.609,-10.339 24.755,-10.479 24.896,-10.604C25.047,-10.729 25.229,-10.859 25.438,-11ZM7.354,-14.792L6.833,-14.208L7.667,-14.417C9.401,-14.818 10.875,-15.339 12.083,-15.979C13.292,-16.63 14.344,-17.672 15.25,-19.104L15.542,-19.708L14.875,-19.479C13.427,-19.031 12.089,-18.479 10.854,-17.812C9.615,-17.146 8.448,-16.135 7.354,-14.792Z" style="fill-rule:nonzero;"/>
                    </g>
                </g>
            </g>
            <g transform="matrix(1.09322,0,0,1.04891,160.749,238.433)">
                <g>
                    <g>
                        <path d="M25.271,-13.167L25.438,-12.854C25.438,-12.656 25.198,-12.51 24.729,-12.417C24.255,-12.318 23.865,-12.24 23.563,-12.187C23.271,-12.146 23.094,-12.125 23.042,-12.125C22.344,-11.917 21.651,-11.719 20.958,-11.542C20.26,-11.375 19.573,-11.172 18.896,-10.937C16.255,-10.146 14,-9.276 12.125,-8.333C10.677,-7.583 9.339,-6.708 8.104,-5.708C6.865,-4.719 6.073,-3.214 5.729,-1.187C5.031,2.531 2.823,6.005 -0.896,9.229C-2.323,10.464 -3.781,11.083 -5.271,11.083C-6.313,11.083 -7.208,10.755 -7.958,10.104C-8.943,9.271 -9.438,8.156 -9.438,6.771C-9.438,5.38 -8.917,4.068 -7.875,2.833C-6.594,1.193 -5.073,-0.214 -3.313,-1.396C-1.547,-2.589 0.25,-3.656 2.083,-4.604C3.219,-5.198 3.839,-5.917 3.938,-6.75C4.031,-7.594 3.635,-8.693 2.75,-10.042C2.401,-10.484 2.073,-10.943 1.771,-11.417C1.479,-11.885 1.188,-12.365 0.896,-12.854L0.375,-13.75C-0.76,-15.583 -0.76,-17.068 0.375,-18.208C4.193,-22.083 8.979,-24.193 14.729,-24.542L15.104,-24.542C16.38,-24.542 17.365,-24.146 18.063,-23.354C18.813,-22.505 19.031,-21.359 18.729,-19.917C18.38,-18.427 17.464,-17.146 15.979,-16.062C15.88,-15.964 15.74,-15.859 15.563,-15.75C15.396,-15.651 15.214,-15.604 15.021,-15.604C14.823,-15.604 14.604,-15.708 14.354,-15.917C14.047,-16.109 13.922,-16.333 13.979,-16.583C14.031,-16.833 14.13,-17.13 14.271,-17.479C14.573,-18.021 14.859,-18.547 15.125,-19.062C15.401,-19.589 15.688,-20.104 15.979,-20.604C16.13,-20.896 16.24,-21.187 16.313,-21.479C16.396,-21.781 16.313,-22.13 16.063,-22.521C15.755,-22.979 15.333,-23.208 14.792,-23.208C14.693,-23.208 14.521,-23.177 14.271,-23.125L14.063,-23.125C9.297,-22.625 5.479,-20.812 2.604,-17.687C1.656,-16.646 1.781,-15.437 2.979,-14.062C3.615,-13.312 4.208,-12.49 4.75,-11.604C5.302,-10.656 5.823,-9.875 6.313,-9.25C6.813,-8.635 7.458,-8.333 8.25,-8.333C8.693,-8.333 9.24,-8.479 9.896,-8.771C11.771,-9.615 13.688,-10.359 15.646,-11C17.604,-11.651 19.448,-12.219 21.188,-12.708C21.49,-12.802 21.948,-12.927 22.563,-13.083C23.188,-13.234 23.771,-13.312 24.313,-13.312C24.604,-13.312 24.823,-13.281 24.979,-13.229C25.13,-13.187 25.229,-13.167 25.271,-13.167ZM-3.271,9.063C0.688,6.99 3.115,3.13 4.021,-2.521L3.563,-2.75C3.521,-2.552 3.25,-2.318 2.75,-2.042C2.25,-1.776 1.802,-1.542 1.417,-1.333C0.917,-1.083 0.615,-0.906 0.521,-0.812C-0.672,0.021 -1.734,0.839 -2.667,1.646L-3.188,2.083C-3.99,2.776 -4.823,3.583 -5.688,4.5C-6.547,5.417 -7.031,6.396 -7.146,7.438C-7.188,8.073 -7.031,8.594 -6.688,9C-6.339,9.344 -5.818,9.521 -5.125,9.521C-4.734,9.521 -4.375,9.469 -4.042,9.375C-3.719,9.276 -3.464,9.172 -3.271,9.063Z" style="fill-rule:nonzero;"/>
                    </g>
                </g>
            </g>
            <g transform="matrix(1.09322,0,0,1.04891,186.188,238.433)">
                <g>
                    <g>
                        <path d="M42.896,-36.5C43.047,-36.359 43.151,-36.135 43.208,-35.833C43.208,-35.693 43.167,-35.562 43.083,-35.437C43.01,-35.312 42.802,-35.25 42.458,-35.25C42.302,-35.25 42.135,-35.255 41.958,-35.271C41.792,-35.297 41.635,-35.312 41.5,-35.312L41.125,-35.396C38.385,-35.74 35.693,-35.964 33.042,-36.062C30.385,-36.156 27.823,-36.208 25.354,-36.208L21.563,-36.146C20.922,-36.146 20.26,-36.151 19.583,-36.167C18.917,-36.193 18.26,-36.208 17.625,-36.208C16.833,-36.208 16.156,-36.109 15.604,-35.917C15.063,-35.719 14.646,-35.297 14.354,-34.646L13.021,-32.125C9.797,-25.875 6.646,-19.448 3.563,-12.854C0.49,-6.271 -1.958,0.635 -3.792,7.875C-5.234,13.526 -5.901,18.708 -5.792,23.417L-5.792,24.021C-5.792,24.464 -5.776,24.88 -5.75,25.271C-5.734,25.672 -5.573,26.047 -5.271,26.396C-4.823,26.839 -4.156,27.109 -3.271,27.208C-3.073,27.208 -2.927,27.281 -2.833,27.438C-2.625,27.63 -2.5,27.88 -2.458,28.188C-2.401,28.531 -2.469,28.76 -2.667,28.875C-2.875,29 -3.073,29.063 -3.271,29.063L-3.354,29.063C-5.531,29.063 -6.917,28.026 -7.5,25.958C-7.844,24.859 -8.005,23.802 -7.979,22.792C-7.964,21.776 -7.906,20.771 -7.813,19.771L-7.729,19.188C-7.339,14.729 -6.594,10.417 -5.5,6.25C-4.417,2.083 -3.115,-1.958 -1.604,-5.875C-0.089,-9.792 1.438,-13.656 2.979,-17.479L3.417,-18.437C4.167,-20.323 4.984,-22.172 5.875,-23.979C6.76,-25.781 7.63,-27.583 8.479,-29.375C8.922,-30.208 9.354,-31.047 9.771,-31.896C10.198,-32.74 10.609,-33.583 11,-34.417C11.094,-34.667 11.156,-34.948 11.188,-35.271C11.214,-35.604 11.026,-36.115 10.625,-36.812L10.479,-36.958L3.563,-36.958C2.422,-37 1.271,-37.021 0.104,-37.021L-3.417,-37.021C-7.083,-37.021 -10.333,-36.969 -13.167,-36.875C-13.76,-36.833 -14.354,-36.812 -14.938,-36.812L-16.729,-36.812C-18.271,-36.755 -19.818,-36.687 -21.375,-36.604C-22.943,-36.531 -24.443,-36.323 -25.875,-35.979C-26.318,-35.88 -26.693,-35.833 -27,-35.833C-27.344,-35.833 -27.635,-35.906 -27.875,-36.062C-28.026,-36.214 -28.151,-36.464 -28.25,-36.812C-28.344,-37.255 -28.125,-37.479 -27.583,-37.479C-27.484,-37.479 -27.281,-37.464 -26.979,-37.437C-26.688,-37.406 -26.542,-37.396 -26.542,-37.396L-26.313,-37.396C-23.547,-37.646 -20.813,-37.802 -18.104,-37.875C-15.406,-37.958 -12.99,-38 -10.854,-38L-3.938,-38C-2.797,-37.943 -1.646,-37.917 -0.479,-37.917L6.229,-37.917C7.323,-37.917 8.422,-37.943 9.521,-38C10.563,-38.042 11.49,-38.219 12.313,-38.542C13.13,-38.875 13.781,-39.531 14.271,-40.521C16.354,-44.88 19.229,-49.047 22.896,-53.021C22.948,-53.115 23.052,-53.24 23.208,-53.396C23.344,-53.589 23.5,-53.781 23.667,-53.979C23.844,-54.172 24.063,-54.271 24.313,-54.271C24.563,-54.271 24.859,-54.125 25.208,-53.833C25.651,-53.427 25.823,-53.026 25.729,-52.625C25.63,-52.234 25.427,-51.818 25.125,-51.375C24.734,-50.833 24.365,-50.312 24.021,-49.812C23.672,-49.323 23.323,-48.854 22.979,-48.396C21.88,-46.906 20.781,-45.359 19.688,-43.75C18.604,-42.135 17.589,-40.365 16.646,-38.437L16.438,-38.062L23.042,-38.062C28.302,-38.062 34.255,-37.667 40.896,-36.875L41.417,-36.875C41.667,-36.875 41.922,-36.844 42.188,-36.792C42.464,-36.75 42.698,-36.651 42.896,-36.5Z" style="fill-rule:nonzero;"/>
                    </g>
                </g>
            </g>
            <g transform="matrix(1.09322,0,0,1.04891,200.167,238.433)">
                <g>
                    <g>
                        <path d="M25.875,-11.812C26.026,-11.714 26.104,-11.49 26.104,-11.146C26.104,-10.797 25.885,-10.479 25.458,-10.187C25.042,-9.896 24.708,-9.646 24.458,-9.437C23.625,-8.698 22.755,-7.984 21.854,-7.292C20.964,-6.594 20.073,-5.922 19.188,-5.271C17.297,-3.937 15.297,-2.75 13.188,-1.708C11.089,-0.667 8.854,0.172 6.479,0.813C5.479,1.063 4.427,1.188 3.333,1.188C2.25,1.188 1.167,0.693 0.083,-0.292C-1.01,-1.234 -1.625,-2.24 -1.75,-3.312C-1.875,-4.38 -1.781,-5.406 -1.479,-6.396C-0.589,-9.771 0.667,-12.917 2.292,-15.833C3.927,-18.76 5.896,-21.464 8.188,-23.937C8.422,-24.281 8.729,-24.604 9.104,-24.896C9.479,-25.198 9.984,-25.104 10.625,-24.604C11.318,-24.062 11.542,-23.573 11.292,-23.146C11.052,-22.729 10.833,-22.344 10.625,-22C9.042,-19.469 7.505,-16.943 6.021,-14.417C4.531,-11.885 3.219,-9.24 2.083,-6.479C1.885,-5.979 1.635,-5.448 1.333,-4.896C1.042,-4.354 0.896,-3.797 0.896,-3.229C0.896,-2.656 1.167,-2.104 1.708,-1.562C2.594,-0.615 3.583,-0.219 4.667,-0.375C5.76,-0.526 6.76,-0.698 7.667,-0.896C9.594,-1.339 11.375,-2.005 13,-2.896C14.635,-3.781 16.198,-4.776 17.688,-5.875C17.896,-6.026 18.396,-6.448 19.188,-7.146C19.979,-7.839 20.844,-8.583 21.792,-9.375C22.734,-10.167 23.604,-10.802 24.396,-11.292C25.188,-11.792 25.677,-11.964 25.875,-11.812ZM13.896,-28.104C12.755,-28.005 12.042,-28.526 11.75,-29.667C11.5,-30.651 11.594,-31.354 12.042,-31.771C12.484,-32.198 13.13,-32.443 13.979,-32.5C14.573,-32.542 15.094,-32.406 15.542,-32.104C15.984,-31.812 16.302,-31.297 16.5,-30.562C16.552,-29.714 16.333,-29.115 15.833,-28.771C15.344,-28.422 14.698,-28.198 13.896,-28.104Z" style="fill-rule:nonzero;"/>
                    </g>
                </g>
            </g>
            <g transform="matrix(1.09322,0,0,1.04891,226.988,238.433)">
                <g>
                    <g>
                        <path d="M28.542,-12.708C29.385,-12.708 29.964,-12.531 30.271,-12.187C30.271,-12.047 30.068,-11.922 29.667,-11.812C29.026,-11.615 28.281,-11.521 27.438,-11.521C26.448,-11.521 25.505,-11.646 24.604,-11.896C22.573,-12.49 20.521,-13.901 18.438,-16.125L18.208,-16.292L15.167,-13.229C13.677,-11.839 12.198,-10.422 10.729,-8.979C9.271,-7.547 7.823,-6.115 6.396,-4.687C6.047,-4.38 5.688,-4.089 5.313,-3.812C4.938,-3.547 4.552,-3.271 4.167,-2.979L3.563,-2.521C3.021,-2.172 2.526,-2 2.083,-2C1.635,-2 1.193,-2.125 0.75,-2.375C-0.193,-2.969 -0.693,-3.964 -0.75,-5.354C-0.792,-7.781 -0.339,-10.484 0.604,-13.458C1.646,-16.927 2.802,-20.573 4.083,-24.396C4.177,-24.74 4.313,-25.062 4.479,-25.354C4.656,-25.646 4.922,-25.792 5.271,-25.792C5.479,-25.792 5.677,-25.74 5.875,-25.646C6.276,-25.448 6.573,-25.229 6.771,-24.979C6.906,-24.729 6.948,-24.443 6.896,-24.125C6.854,-23.802 6.781,-23.5 6.688,-23.208L6.688,-22.979C6.297,-21.437 5.901,-19.896 5.5,-18.354C5.109,-16.823 4.714,-15.292 4.313,-13.75C4.063,-12.802 3.797,-11.859 3.521,-10.917C3.255,-9.984 3,-9.047 2.75,-8.104L2.229,-6.25C2.031,-5.458 2.063,-4.906 2.313,-4.604C2.448,-4.406 2.672,-4.312 2.979,-4.312C3.464,-4.312 4.052,-4.521 4.75,-4.937C5.443,-5.365 6.063,-5.802 6.604,-6.25C7.156,-6.693 7.438,-6.917 7.438,-6.917C8.979,-8.344 10.589,-10.031 12.271,-11.979C12.964,-12.714 13.609,-13.5 14.208,-14.333C14.802,-15.177 15.396,-16.005 15.979,-16.812C16.188,-17.104 16.464,-17.505 16.813,-18.021C17.156,-18.547 17.333,-18.812 17.333,-18.812C17.469,-19.062 17.625,-19.281 17.792,-19.479C17.969,-19.672 18.214,-19.771 18.521,-19.771C18.714,-19.771 18.906,-19.719 19.104,-19.625C19.505,-19.484 19.771,-19.276 19.896,-19C20.021,-18.719 20.104,-18.385 20.146,-18C20.198,-17.693 20.25,-17.49 20.292,-17.396C20.734,-15.656 21.365,-14.458 22.188,-13.792C23.005,-13.125 24.333,-12.74 26.167,-12.646L26.479,-12.562C26.615,-12.562 26.781,-12.573 26.979,-12.604C27.188,-12.63 27.365,-12.646 27.521,-12.646C27.656,-12.687 27.813,-12.708 27.979,-12.708L28.542,-12.708Z" style="fill-rule:nonzero;"/>
                    </g>
                </g>
            </g>
            <g transform="matrix(1.09322,0,0,1.04891,257.873,238.433)">
                <g>
                    <g>
                        <path d="M25.438,-11C25.781,-11.193 26.177,-11.292 26.625,-11.292C26.667,-11.052 26.563,-10.823 26.313,-10.604C26.073,-10.38 25.854,-10.167 25.646,-9.958L25.208,-9.583C23.417,-8.25 21.604,-6.948 19.771,-5.687C17.938,-4.422 15.964,-3.38 13.854,-2.562C11.755,-1.74 9.417,-1.333 6.833,-1.333L6.542,-1.333C4.01,-1.333 2.052,-2.104 0.667,-3.646C-0.568,-5.073 -0.99,-6.812 -0.604,-8.854C0.781,-15.646 5.198,-20.026 12.646,-22C13.031,-22.109 13.427,-22.167 13.833,-22.167C15.01,-22.167 15.979,-21.646 16.729,-20.604C17.323,-19.812 17.51,-19.125 17.292,-18.542C17.068,-17.969 16.734,-17.396 16.292,-16.812C14.302,-14.38 11.031,-12.818 6.479,-12.125C4.839,-11.875 3.771,-11.229 3.271,-10.187C2.771,-9.146 2.401,-8.026 2.167,-6.833L2.083,-6.312C1.927,-5.615 2.052,-4.979 2.458,-4.396C3,-3.646 3.865,-3.094 5.063,-2.75C5.948,-2.5 6.885,-2.375 7.875,-2.375C8.667,-2.375 9.427,-2.448 10.167,-2.604C10.917,-2.755 11.714,-2.948 12.563,-3.187C15.188,-3.937 17.813,-5.198 20.438,-6.979C21.589,-7.729 22.734,-8.625 23.875,-9.667C23.969,-9.719 24.068,-9.797 24.167,-9.896C24.26,-9.99 24.359,-10.089 24.458,-10.187C24.609,-10.339 24.755,-10.479 24.896,-10.604C25.047,-10.729 25.229,-10.859 25.438,-11ZM7.354,-14.792L6.833,-14.208L7.667,-14.417C9.401,-14.818 10.875,-15.339 12.083,-15.979C13.292,-16.63 14.344,-17.672 15.25,-19.104L15.542,-19.708L14.875,-19.479C13.427,-19.031 12.089,-18.479 10.854,-17.812C9.615,-17.146 8.448,-16.135 7.354,-14.792Z" style="fill-rule:nonzero;"/>
                    </g>
                </g>
            </g>
            <g transform="matrix(1.09322,0,0,1.04891,285.587,238.433)">
                <g>
                    <g>
                        <path d="M28.042,18.521C25.359,19.406 22.188,19.854 18.521,19.854C17.521,19.854 16.479,19.802 15.396,19.708C11.729,19.51 8.802,18.172 6.625,15.688C4.443,13.255 3.625,10.38 4.167,7.063C4.552,4.63 5.396,2.568 6.688,0.875C7.979,-0.802 9.318,-2.26 10.708,-3.5C13.734,-6.167 17.089,-8.401 20.771,-10.208C24.464,-12.026 28.198,-13.729 31.979,-15.312L33.896,-16.125C34.49,-16.375 35.073,-16.625 35.646,-16.875C36.214,-17.125 36.776,-17.396 37.333,-17.687L38.063,-18.062C38.406,-18.271 38.776,-18.484 39.167,-18.708C39.568,-18.927 39.922,-19.187 40.229,-19.479C40.271,-19.531 40.385,-19.693 40.583,-19.958C40.792,-20.234 40.865,-20.521 40.813,-20.812L40.813,-20.896L40.604,-21.187C40.448,-21.339 40.198,-21.417 39.854,-21.417C39.755,-21.417 39.63,-21.385 39.479,-21.333C39.573,-21.385 39.672,-21.422 39.771,-21.437C39.88,-21.464 39.984,-21.479 40.083,-21.479C40.333,-21.531 40.568,-21.583 40.792,-21.625C41.01,-21.677 41.219,-21.708 41.417,-21.708C42.109,-21.708 42.63,-21.406 42.979,-20.812C43.271,-20.323 43.276,-19.88 43,-19.479C42.734,-19.089 42.333,-18.693 41.792,-18.292L41.5,-18.062C40.208,-17.021 38.818,-16.115 37.333,-15.354C35.844,-14.589 34.333,-13.833 32.792,-13.083C32.292,-12.833 31.776,-12.583 31.25,-12.333C30.734,-12.094 30.208,-11.854 29.667,-11.604C26.443,-9.906 23.24,-8.13 20.063,-6.271C16.896,-4.422 14.047,-2.187 11.521,0.438C9.297,2.823 7.885,5.255 7.292,7.729C6.594,10.406 7.042,12.714 8.625,14.646C10.208,16.63 12.563,17.75 15.688,18C16.823,18.094 17.943,18.146 19.042,18.146C24.984,18.146 31.005,16.677 37.104,13.75C47.906,8.594 58.047,1.01 67.521,-9L67.813,-9.292C68.005,-9.542 68.229,-9.792 68.479,-10.042C68.729,-10.292 68.979,-10.51 69.229,-10.708C69.323,-10.76 69.443,-10.839 69.583,-10.937C69.734,-11.031 69.859,-11.083 69.958,-11.083C70.109,-10.833 70.109,-10.568 69.958,-10.292C69.818,-10.026 69.698,-9.818 69.604,-9.667C66.615,-6.635 63.781,-3.875 61.104,-1.375C58.438,1.125 55.635,3.443 52.708,5.583C46.167,10.427 39.323,14.24 32.188,17.021C30.854,17.521 29.469,18.021 28.042,18.521ZM24.396,-17.333C23.255,-17.026 22.089,-16.875 20.896,-16.875C19.604,-16.875 18.313,-17.047 17.021,-17.396C14.646,-17.99 12.906,-19.005 11.813,-20.437C10.781,-21.88 10.417,-23.646 10.708,-25.729C11.151,-28.797 12.688,-31.693 15.313,-34.417C23.896,-43.344 33.76,-48.979 44.917,-51.312C45.052,-51.312 45.229,-51.333 45.438,-51.375C45.573,-51.427 45.708,-51.464 45.833,-51.479C45.958,-51.505 46.094,-51.547 46.25,-51.604C47.234,-51.698 48.177,-51.75 49.083,-51.75C53.135,-51.75 56.302,-50.562 58.583,-48.187C61.109,-45.562 62.104,-41.839 61.563,-37.021C61.214,-33.854 60.521,-31.354 59.479,-29.521C59.089,-28.823 58.615,-28.479 58.063,-28.479C57.771,-28.479 57.448,-28.573 57.104,-28.771C56.005,-29.365 55.688,-30.26 56.146,-31.458C56.281,-31.901 56.438,-32.333 56.604,-32.75C56.781,-33.167 56.948,-33.604 57.104,-34.062C57.448,-34.948 57.781,-35.839 58.104,-36.729C58.422,-37.615 58.708,-38.531 58.958,-39.479C59.651,-42.698 59.156,-45.255 57.479,-47.146C55.839,-48.979 53.281,-49.896 49.813,-49.896L49.438,-49.896C47.156,-49.896 44.677,-49.396 42,-48.396C30.609,-44.187 21.964,-37.672 16.063,-28.854L15.542,-28.187C15.094,-27.531 14.688,-26.859 14.313,-26.167C13.938,-25.469 13.75,-24.729 13.75,-23.937C13.75,-23.146 14.094,-22.302 14.792,-21.417C16.333,-19.625 18.51,-18.729 21.333,-18.729C21.885,-18.729 22.422,-18.755 22.938,-18.812C23.464,-18.865 23.948,-18.917 24.396,-18.958C25.781,-19.151 27.167,-19.359 28.542,-19.583C29.927,-19.802 31.318,-20.021 32.708,-20.229C33.75,-20.422 34.802,-20.604 35.875,-20.771C36.943,-20.948 38,-21.135 39.042,-21.333C38.984,-21.292 38.938,-21.271 38.896,-21.271C38.547,-21.214 38.234,-21.146 37.958,-21.062C37.677,-20.99 37.396,-20.906 37.104,-20.812C37.104,-20.812 36.839,-20.719 36.313,-20.542C35.797,-20.375 35.396,-20.24 35.104,-20.146C34.698,-20.047 34.297,-19.937 33.896,-19.812C33.505,-19.687 33.089,-19.552 32.646,-19.417C31.297,-19.068 29.927,-18.719 28.542,-18.375C27.167,-18.026 25.781,-17.677 24.396,-17.333Z" style="fill-rule:nonzero;"/>
                    </g>
                </g>
            </g>
            <g transform="matrix(1.09322,0,0,1.04891,360.035,238.433)">
                <g>
                    <g>
                        <path d="M38.208,-14.5C38.458,-14.443 38.609,-14.396 38.667,-14.354C38.818,-14.104 38.719,-13.776 38.375,-13.375C33.26,-8.026 27.042,-3.318 19.708,0.75L19.188,0.958C18.938,1.167 18.651,1.339 18.333,1.479C18.01,1.63 17.677,1.708 17.333,1.708C16.833,1.708 16.313,1.484 15.771,1.042C15.115,0.443 14.802,-0.109 14.833,-0.625C14.859,-1.151 14.969,-1.714 15.167,-2.312C15.219,-2.406 15.271,-2.505 15.313,-2.604C15.365,-2.698 15.396,-2.797 15.396,-2.896C15.839,-4.479 16.396,-6 17.063,-7.458C17.729,-8.927 18.406,-10.333 19.104,-11.667C19.104,-11.667 19.26,-11.964 19.583,-12.562C19.917,-13.156 20.26,-13.792 20.625,-14.458C21,-15.125 21.26,-15.583 21.417,-15.833C21.417,-15.885 21.51,-16.042 21.708,-16.292C22.151,-16.927 22.531,-17.594 22.854,-18.292C23.188,-18.984 23.276,-19.526 23.125,-19.917C23.026,-20.167 22.88,-20.339 22.688,-20.437C22.531,-20.49 22.406,-20.521 22.313,-20.521C21.813,-20.521 21.26,-20.25 20.667,-19.708C20.068,-19.167 19.771,-18.896 19.771,-18.896C19.422,-18.49 19.073,-17.99 18.729,-17.396C18.38,-16.797 18.188,-16.13 18.146,-15.396L18.146,-15.104C18.146,-14.896 18.13,-14.667 18.104,-14.417C18.073,-14.177 17.99,-14.062 17.854,-14.062C17.797,-14.062 17.677,-14.094 17.5,-14.167C17.333,-14.234 17.104,-14.422 16.813,-14.729L16.583,-14.937L16.125,-14.417C15.984,-14.318 15.854,-14.193 15.729,-14.042C15.604,-13.901 15.49,-13.781 15.396,-13.687C14.797,-13.031 14.234,-12.396 13.708,-11.771C13.193,-11.156 12.667,-10.552 12.125,-9.958C10.927,-8.568 9.714,-7.193 8.479,-5.833C7.24,-4.469 5.901,-3.193 4.458,-2L3.938,-1.562C3.49,-1.156 3.021,-0.781 2.521,-0.437C2.031,-0.089 1.49,0.083 0.896,0.083C0.396,0.083 -0.125,-0.089 -0.667,-0.437C-1.708,-1.187 -2.198,-2.052 -2.146,-3.042C-2.104,-4.042 -1.958,-5.01 -1.708,-5.958L-1.646,-6.396C-0.448,-11.156 1.677,-15.25 4.75,-18.667C6.885,-21.042 9.417,-22.229 12.333,-22.229L12.563,-22.229C13.214,-22.229 13.833,-22.187 14.417,-22.104C15.01,-22.031 15.464,-21.802 15.771,-21.417C16.656,-20.125 17.5,-19.479 18.292,-19.479C18.693,-19.479 19.042,-19.604 19.333,-19.854C19.625,-20.104 19.943,-20.375 20.292,-20.667L20.521,-20.896C20.964,-21.339 21.458,-21.687 22,-21.937C22.25,-22.031 22.484,-22.115 22.708,-22.187C22.927,-22.271 23.146,-22.312 23.354,-22.312C23.698,-22.312 24.047,-22.187 24.396,-21.937C24.781,-21.589 24.964,-21.24 24.938,-20.896C24.922,-20.547 24.813,-20.172 24.604,-19.771C23.771,-17.937 22.927,-16.135 22.083,-14.375C21.234,-12.625 20.396,-10.88 19.563,-9.146L18.208,-6.312C17.917,-5.771 17.656,-5.198 17.438,-4.604C17.214,-4.005 17.005,-3.437 16.813,-2.896L16.438,-1.792C16.229,-1.292 16.198,-0.917 16.354,-0.667C16.448,-0.51 16.604,-0.385 16.813,-0.292C16.948,-0.25 17.125,-0.229 17.333,-0.229C17.818,-0.229 18.38,-0.375 19.021,-0.667C19.672,-0.969 20.125,-1.193 20.375,-1.333C21.958,-2.427 23.51,-3.531 25.042,-4.646C26.583,-5.755 28.073,-6.859 29.521,-7.958C30.021,-8.302 30.49,-8.656 30.938,-9.021C31.38,-9.396 31.854,-9.755 32.354,-10.104C32.646,-10.354 32.948,-10.609 33.271,-10.875C33.589,-11.151 33.922,-11.417 34.271,-11.667C34.422,-11.818 34.568,-11.958 34.708,-12.083C34.859,-12.208 35.042,-12.318 35.25,-12.417C35.5,-12.667 35.771,-12.901 36.063,-13.125C36.354,-13.344 36.651,-13.583 36.958,-13.833L37.25,-13.979C37.401,-14.073 37.563,-14.187 37.729,-14.312C37.906,-14.437 38.068,-14.5 38.208,-14.5ZM16.5,-17.333C17,-17.875 16.979,-18.51 16.438,-19.25C15.781,-20.094 15.01,-20.521 14.125,-20.521L13.833,-20.521C12.594,-20.271 11.505,-19.875 10.563,-19.333C8.38,-18.042 6.615,-16.427 5.271,-14.5C3.938,-12.568 2.776,-10.656 1.792,-8.771C1.693,-8.573 1.583,-8.375 1.458,-8.167C1.333,-7.969 1.219,-7.776 1.125,-7.583C0.818,-7.135 0.542,-6.667 0.292,-6.167C0.042,-5.677 -0.151,-5.135 -0.292,-4.542C-0.344,-4.292 -0.375,-3.839 -0.375,-3.187C-0.375,-2.547 -0.198,-2.083 0.146,-1.792C0.297,-1.583 0.5,-1.479 0.75,-1.479C0.943,-1.479 1.188,-1.552 1.479,-1.708C3.615,-3.042 5.51,-4.625 7.167,-6.458C8.833,-8.302 10.438,-10.167 11.979,-12.042C12.714,-12.927 13.448,-13.818 14.188,-14.708C14.938,-15.609 15.708,-16.484 16.5,-17.333Z" style="fill-rule:nonzero;"/>
                    </g>
                </g>
            </g>
            <g transform="matrix(1.09322,0,0,1.04891,399.616,238.433)">
                <g>
                    <g>
                        <path d="M42.896,-36.5C43.047,-36.359 43.151,-36.135 43.208,-35.833C43.208,-35.693 43.167,-35.562 43.083,-35.437C43.01,-35.312 42.802,-35.25 42.458,-35.25C42.302,-35.25 42.135,-35.255 41.958,-35.271C41.792,-35.297 41.635,-35.312 41.5,-35.312L41.125,-35.396C38.385,-35.74 35.693,-35.964 33.042,-36.062C30.385,-36.156 27.823,-36.208 25.354,-36.208L21.563,-36.146C20.922,-36.146 20.26,-36.151 19.583,-36.167C18.917,-36.193 18.26,-36.208 17.625,-36.208C16.833,-36.208 16.156,-36.109 15.604,-35.917C15.063,-35.719 14.646,-35.297 14.354,-34.646L13.021,-32.125C9.797,-25.875 6.646,-19.448 3.563,-12.854C0.49,-6.271 -1.958,0.635 -3.792,7.875C-5.234,13.526 -5.901,18.708 -5.792,23.417L-5.792,24.021C-5.792,24.464 -5.776,24.88 -5.75,25.271C-5.734,25.672 -5.573,26.047 -5.271,26.396C-4.823,26.839 -4.156,27.109 -3.271,27.208C-3.073,27.208 -2.927,27.281 -2.833,27.438C-2.625,27.63 -2.5,27.88 -2.458,28.188C-2.401,28.531 -2.469,28.76 -2.667,28.875C-2.875,29 -3.073,29.063 -3.271,29.063L-3.354,29.063C-5.531,29.063 -6.917,28.026 -7.5,25.958C-7.844,24.859 -8.005,23.802 -7.979,22.792C-7.964,21.776 -7.906,20.771 -7.813,19.771L-7.729,19.188C-7.339,14.729 -6.594,10.417 -5.5,6.25C-4.417,2.083 -3.115,-1.958 -1.604,-5.875C-0.089,-9.792 1.438,-13.656 2.979,-17.479L3.417,-18.437C4.167,-20.323 4.984,-22.172 5.875,-23.979C6.76,-25.781 7.63,-27.583 8.479,-29.375C8.922,-30.208 9.354,-31.047 9.771,-31.896C10.198,-32.74 10.609,-33.583 11,-34.417C11.094,-34.667 11.156,-34.948 11.188,-35.271C11.214,-35.604 11.026,-36.115 10.625,-36.812L10.479,-36.958L3.563,-36.958C2.422,-37 1.271,-37.021 0.104,-37.021L-3.417,-37.021C-7.083,-37.021 -10.333,-36.969 -13.167,-36.875C-13.76,-36.833 -14.354,-36.812 -14.938,-36.812L-16.729,-36.812C-18.271,-36.755 -19.818,-36.687 -21.375,-36.604C-22.943,-36.531 -24.443,-36.323 -25.875,-35.979C-26.318,-35.88 -26.693,-35.833 -27,-35.833C-27.344,-35.833 -27.635,-35.906 -27.875,-36.062C-28.026,-36.214 -28.151,-36.464 -28.25,-36.812C-28.344,-37.255 -28.125,-37.479 -27.583,-37.479C-27.484,-37.479 -27.281,-37.464 -26.979,-37.437C-26.688,-37.406 -26.542,-37.396 -26.542,-37.396L-26.313,-37.396C-23.547,-37.646 -20.813,-37.802 -18.104,-37.875C-15.406,-37.958 -12.99,-38 -10.854,-38L-3.938,-38C-2.797,-37.943 -1.646,-37.917 -0.479,-37.917L6.229,-37.917C7.323,-37.917 8.422,-37.943 9.521,-38C10.563,-38.042 11.49,-38.219 12.313,-38.542C13.13,-38.875 13.781,-39.531 14.271,-40.521C16.354,-44.88 19.229,-49.047 22.896,-53.021C22.948,-53.115 23.052,-53.24 23.208,-53.396C23.344,-53.589 23.5,-53.781 23.667,-53.979C23.844,-54.172 24.063,-54.271 24.313,-54.271C24.563,-54.271 24.859,-54.125 25.208,-53.833C25.651,-53.427 25.823,-53.026 25.729,-52.625C25.63,-52.234 25.427,-51.818 25.125,-51.375C24.734,-50.833 24.365,-50.312 24.021,-49.812C23.672,-49.323 23.323,-48.854 22.979,-48.396C21.88,-46.906 20.781,-45.359 19.688,-43.75C18.604,-42.135 17.589,-40.365 16.646,-38.437L16.438,-38.062L23.042,-38.062C28.302,-38.062 34.255,-37.667 40.896,-36.875L41.417,-36.875C41.667,-36.875 41.922,-36.844 42.188,-36.792C42.464,-36.75 42.698,-36.651 42.896,-36.5Z" style="fill-rule:nonzero;"/>
                    </g>
                </g>
            </g>
            <g transform="matrix(1.09322,0,0,1.04891,413.595,238.433)">
                <g>
                    <g>
                        <path d="M25.271,-13.167L25.438,-12.854C25.438,-12.656 25.198,-12.51 24.729,-12.417C24.255,-12.318 23.865,-12.24 23.563,-12.187C23.271,-12.146 23.094,-12.125 23.042,-12.125C22.344,-11.917 21.651,-11.719 20.958,-11.542C20.26,-11.375 19.573,-11.172 18.896,-10.937C16.255,-10.146 14,-9.276 12.125,-8.333C10.677,-7.583 9.339,-6.708 8.104,-5.708C6.865,-4.719 6.073,-3.214 5.729,-1.187C5.031,2.531 2.823,6.005 -0.896,9.229C-2.323,10.464 -3.781,11.083 -5.271,11.083C-6.313,11.083 -7.208,10.755 -7.958,10.104C-8.943,9.271 -9.438,8.156 -9.438,6.771C-9.438,5.38 -8.917,4.068 -7.875,2.833C-6.594,1.193 -5.073,-0.214 -3.313,-1.396C-1.547,-2.589 0.25,-3.656 2.083,-4.604C3.219,-5.198 3.839,-5.917 3.938,-6.75C4.031,-7.594 3.635,-8.693 2.75,-10.042C2.401,-10.484 2.073,-10.943 1.771,-11.417C1.479,-11.885 1.188,-12.365 0.896,-12.854L0.375,-13.75C-0.76,-15.583 -0.76,-17.068 0.375,-18.208C4.193,-22.083 8.979,-24.193 14.729,-24.542L15.104,-24.542C16.38,-24.542 17.365,-24.146 18.063,-23.354C18.813,-22.505 19.031,-21.359 18.729,-19.917C18.38,-18.427 17.464,-17.146 15.979,-16.062C15.88,-15.964 15.74,-15.859 15.563,-15.75C15.396,-15.651 15.214,-15.604 15.021,-15.604C14.823,-15.604 14.604,-15.708 14.354,-15.917C14.047,-16.109 13.922,-16.333 13.979,-16.583C14.031,-16.833 14.13,-17.13 14.271,-17.479C14.573,-18.021 14.859,-18.547 15.125,-19.062C15.401,-19.589 15.688,-20.104 15.979,-20.604C16.13,-20.896 16.24,-21.187 16.313,-21.479C16.396,-21.781 16.313,-22.13 16.063,-22.521C15.755,-22.979 15.333,-23.208 14.792,-23.208C14.693,-23.208 14.521,-23.177 14.271,-23.125L14.063,-23.125C9.297,-22.625 5.479,-20.812 2.604,-17.687C1.656,-16.646 1.781,-15.437 2.979,-14.062C3.615,-13.312 4.208,-12.49 4.75,-11.604C5.302,-10.656 5.823,-9.875 6.313,-9.25C6.813,-8.635 7.458,-8.333 8.25,-8.333C8.693,-8.333 9.24,-8.479 9.896,-8.771C11.771,-9.615 13.688,-10.359 15.646,-11C17.604,-11.651 19.448,-12.219 21.188,-12.708C21.49,-12.802 21.948,-12.927 22.563,-13.083C23.188,-13.234 23.771,-13.312 24.313,-13.312C24.604,-13.312 24.823,-13.281 24.979,-13.229C25.13,-13.187 25.229,-13.167 25.271,-13.167ZM-3.271,9.063C0.688,6.99 3.115,3.13 4.021,-2.521L3.563,-2.75C3.521,-2.552 3.25,-2.318 2.75,-2.042C2.25,-1.776 1.802,-1.542 1.417,-1.333C0.917,-1.083 0.615,-0.906 0.521,-0.812C-0.672,0.021 -1.734,0.839 -2.667,1.646L-3.188,2.083C-3.99,2.776 -4.823,3.583 -5.688,4.5C-6.547,5.417 -7.031,6.396 -7.146,7.438C-7.188,8.073 -7.031,8.594 -6.688,9C-6.339,9.344 -5.818,9.521 -5.125,9.521C-4.734,9.521 -4.375,9.469 -4.042,9.375C-3.719,9.276 -3.464,9.172 -3.271,9.063Z" style="fill-rule:nonzero;"/>
                    </g>
                </g>
            </g>
            <g transform="matrix(1.09322,0,0,1.04891,-24.0847,-14.9185)">
                <path d="M152.734,298.115C152.531,298.115 152.328,298.094 152.125,298.052C150.349,297.677 149.047,295.688 148.365,292.286C147.875,289.833 147.781,286.927 148.141,285.219C148.219,284.786 148.339,284.365 148.5,283.958C148.661,283.552 148.859,283.167 149.099,282.797C149.339,282.432 149.615,282.089 149.922,281.776C150.229,281.464 150.563,281.188 150.927,280.943C151.292,280.698 151.677,280.49 152.083,280.323C152.484,280.156 152.906,280.026 153.333,279.943C153.766,279.859 154.198,279.823 154.635,279.823C155.078,279.828 155.51,279.875 155.938,279.964C156.37,280.052 156.781,280.188 157.188,280.359C157.589,280.536 157.969,280.745 158.328,280.995C158.688,281.25 159.021,281.531 159.323,281.849C159.625,282.167 159.896,282.51 160.13,282.88C160.365,283.25 160.557,283.641 160.714,284.052C160.87,284.464 160.979,284.885 161.052,285.318C161.125,285.75 161.151,286.182 161.135,286.62C161.115,287.063 161.057,287.49 160.953,287.917C160.589,289.63 159.333,292.25 157.896,294.292C156.125,296.807 154.354,298.115 152.734,298.115ZM154.536,282.297C154.047,282.297 153.573,282.38 153.115,282.542C152.651,282.708 152.229,282.943 151.854,283.255C151.474,283.563 151.156,283.927 150.901,284.344C150.646,284.76 150.469,285.208 150.365,285.688C150.115,286.87 150.109,289.432 150.594,291.839C151.115,294.411 151.974,295.698 152.599,295.828C153.219,295.958 154.526,295.13 156.036,292.984C157.448,290.984 158.479,288.635 158.729,287.453C158.844,286.896 158.849,286.339 158.745,285.786C158.641,285.229 158.432,284.714 158.125,284.24C157.818,283.76 157.427,283.365 156.958,283.047C156.495,282.724 155.984,282.505 155.427,282.391C155.135,282.328 154.839,282.297 154.536,282.297Z" style="fill:rgb(125,10,10);fill-rule:nonzero;"/>
            </g>
            <g transform="matrix(1.09322,0,0,1.04891,-24.0847,-14.9185)">
                <path d="M196.833,297.688C195.229,297.688 193.453,296.406 191.661,293.938C190.198,291.911 188.906,289.307 188.521,287.604C188.411,287.177 188.344,286.745 188.323,286.307C188.297,285.87 188.318,285.432 188.385,285C188.448,284.568 188.557,284.141 188.703,283.729C188.854,283.318 189.042,282.927 189.271,282.552C189.5,282.177 189.766,281.828 190.063,281.505C190.359,281.182 190.688,280.896 191.047,280.641C191.401,280.385 191.781,280.167 192.182,279.99C192.583,279.807 192.995,279.672 193.427,279.573C193.854,279.479 194.286,279.427 194.724,279.417C195.161,279.406 195.599,279.443 196.031,279.521C196.464,279.599 196.88,279.719 197.292,279.88C197.698,280.042 198.083,280.245 198.453,280.484C198.818,280.724 199.156,281 199.469,281.307C199.781,281.62 200.057,281.953 200.302,282.318C200.547,282.682 200.755,283.068 200.922,283.474C201.089,283.88 201.214,284.302 201.297,284.729C201.677,286.438 201.625,289.344 201.167,291.802C200.526,295.208 199.255,297.219 197.484,297.615C197.271,297.667 197.052,297.688 196.833,297.688ZM194.906,281.896C194.589,281.896 194.271,281.932 193.958,282C193.646,282.073 193.349,282.177 193.057,282.318C192.771,282.453 192.5,282.625 192.25,282.823C192,283.026 191.771,283.25 191.573,283.5C191.375,283.75 191.203,284.016 191.063,284.307C190.922,284.594 190.818,284.896 190.745,285.208C190.672,285.521 190.635,285.833 190.635,286.156C190.635,286.474 190.672,286.792 190.74,287.104C191.005,288.286 192.068,290.615 193.505,292.604C195.047,294.729 196.365,295.536 196.984,295.396C197.604,295.26 198.448,293.964 198.932,291.38C199.385,288.969 199.344,286.411 199.078,285.229C198.969,284.755 198.786,284.313 198.531,283.901C198.271,283.49 197.953,283.135 197.578,282.833C197.198,282.531 196.781,282.297 196.323,282.135C195.865,281.974 195.396,281.896 194.906,281.896Z" style="fill:rgb(125,10,10);fill-rule:nonzero;"/>
            </g>
            <g transform="matrix(1.09322,0,0,1.04891,-24.0847,-14.9185)">
                <path d="M228.615,292.823L228.464,292.823C226.651,292.734 225.057,290.964 223.854,287.714C222.984,285.37 222.443,282.51 222.531,280.766C222.568,280.344 222.641,279.932 222.755,279.526C222.875,279.125 223.026,278.734 223.214,278.359C223.406,277.984 223.63,277.63 223.891,277.297C224.146,276.964 224.438,276.661 224.75,276.385C225.068,276.104 225.411,275.865 225.776,275.651C226.141,275.443 226.521,275.266 226.917,275.13C227.318,274.99 227.724,274.891 228.141,274.833C228.557,274.776 228.974,274.755 229.396,274.776C229.818,274.797 230.229,274.859 230.641,274.964C231.047,275.063 231.443,275.203 231.823,275.38C232.208,275.557 232.568,275.771 232.906,276.021C233.25,276.266 233.563,276.547 233.849,276.854C234.135,277.161 234.391,277.495 234.615,277.849C234.839,278.208 235.026,278.583 235.172,278.974C235.323,279.37 235.438,279.771 235.51,280.188C235.583,280.604 235.615,281.021 235.604,281.443C235.516,283.188 234.682,285.974 233.578,288.214C232.089,291.24 230.375,292.823 228.615,292.823ZM229.068,276.828C228.521,276.828 227.995,276.932 227.49,277.135C226.979,277.339 226.526,277.625 226.13,278.005C225.734,278.38 225.422,278.818 225.193,279.313C224.964,279.813 224.833,280.333 224.807,280.88C224.745,282.089 225.135,284.62 225.99,286.917C226.896,289.38 227.948,290.516 228.583,290.547C229.219,290.583 230.38,289.563 231.542,287.203C232.625,285.005 233.276,282.531 233.339,281.318C233.37,280.755 233.286,280.203 233.099,279.672C232.906,279.135 232.625,278.661 232.245,278.24C231.865,277.818 231.422,277.484 230.906,277.245C230.396,277 229.859,276.865 229.292,276.833C229.214,276.828 229.141,276.828 229.068,276.828Z" style="fill:rgb(125,10,10);fill-rule:nonzero;"/>
            </g>
            <g transform="matrix(1.09322,0,0,1.04891,-24.0847,-14.9185)">
                <path d="M262.927,299.734C262.813,299.734 262.698,299.724 262.583,299.714C260.781,299.5 259.307,297.63 258.318,294.307C257.609,291.911 257.255,289.026 257.458,287.292C257.521,286.87 257.625,286.464 257.766,286.068C257.906,285.672 258.083,285.292 258.297,284.927C258.51,284.563 258.76,284.224 259.036,283.906C259.318,283.594 259.625,283.307 259.958,283.052C260.297,282.792 260.651,282.573 261.031,282.385C261.406,282.198 261.802,282.047 262.208,281.938C262.615,281.823 263.026,281.755 263.448,281.724C263.87,281.688 264.292,281.698 264.708,281.75C265.125,281.797 265.536,281.885 265.938,282.016C266.339,282.146 266.724,282.313 267.094,282.516C267.464,282.719 267.813,282.953 268.135,283.224C268.458,283.495 268.755,283.792 269.021,284.12C269.286,284.448 269.521,284.797 269.719,285.172C269.917,285.542 270.078,285.932 270.203,286.333C270.323,286.734 270.406,287.146 270.453,287.568C270.495,287.984 270.5,288.406 270.464,288.828C270.26,290.563 269.24,293.286 267.99,295.453C266.365,298.26 264.625,299.734 262.927,299.734ZM263.958,283.786C263.438,283.786 262.932,283.88 262.443,284.068C261.953,284.25 261.516,284.521 261.125,284.865C260.734,285.214 260.417,285.62 260.177,286.083C259.932,286.547 259.781,287.036 259.719,287.557C259.578,288.76 259.802,291.307 260.5,293.661C261.245,296.177 262.219,297.38 262.849,297.453C263.484,297.531 264.708,296.589 266.021,294.313C267.25,292.188 268.063,289.766 268.203,288.563C268.24,288.26 268.245,287.958 268.214,287.661C268.188,287.359 268.125,287.068 268.036,286.776C267.948,286.49 267.828,286.214 267.677,285.953C267.531,285.688 267.354,285.448 267.156,285.219C266.953,284.995 266.729,284.792 266.49,284.615C266.245,284.438 265.984,284.286 265.708,284.161C265.432,284.036 265.151,283.943 264.854,283.88C264.557,283.818 264.26,283.786 263.958,283.786Z" style="fill:rgb(125,10,10);fill-rule:nonzero;"/>
            </g>
            <g transform="matrix(1.09322,0,0,1.04891,-24.0847,-14.9185)">
                <path d="M305.125,296.068C303.547,296.068 301.771,294.865 299.927,292.542C298.37,290.589 296.964,288.042 296.505,286.359C296.375,285.938 296.292,285.51 296.25,285.073C296.203,284.635 296.208,284.198 296.25,283.766C296.297,283.328 296.385,282.901 296.516,282.479C296.646,282.063 296.818,281.661 297.031,281.276C297.245,280.891 297.49,280.531 297.776,280.198C298.057,279.865 298.375,279.563 298.719,279.292C299.063,279.016 299.432,278.786 299.823,278.589C300.219,278.391 300.625,278.234 301.047,278.12C301.469,278.005 301.901,277.932 302.339,277.901C302.776,277.875 303.214,277.891 303.651,277.948C304.083,278.005 304.51,278.109 304.922,278.255C305.339,278.396 305.734,278.583 306.109,278.807C306.49,279.031 306.839,279.292 307.167,279.583C307.49,279.88 307.781,280.203 308.042,280.557C308.302,280.911 308.526,281.286 308.708,281.682C308.896,282.083 309.036,282.495 309.141,282.922C309.594,284.609 309.672,287.516 309.323,289.99C308.833,293.422 307.651,295.484 305.901,295.964C305.646,296.031 305.385,296.068 305.125,296.068ZM302.818,280.365C302.49,280.365 302.167,280.401 301.849,280.479C301.531,280.552 301.224,280.661 300.927,280.807C300.635,280.953 300.359,281.13 300.109,281.339C299.854,281.547 299.625,281.786 299.427,282.047C299.229,282.307 299.063,282.583 298.927,282.885C298.792,283.182 298.693,283.495 298.63,283.818C298.568,284.141 298.542,284.464 298.552,284.792C298.563,285.12 298.615,285.443 298.698,285.76C299.016,286.927 300.177,289.208 301.703,291.125C303.344,293.182 304.688,293.932 305.307,293.766C305.922,293.594 306.703,292.266 307.073,289.667C307.417,287.234 307.26,284.682 306.943,283.51C306.818,283.063 306.625,282.641 306.365,282.25C306.104,281.865 305.786,281.526 305.411,281.24C305.042,280.958 304.63,280.74 304.188,280.589C303.745,280.443 303.286,280.365 302.818,280.365Z" style="fill:rgb(125,10,10);fill-rule:nonzero;"/>
            </g>
            <g transform="matrix(1.09322,0,0,1.04891,-24.0847,-14.9185)">
                <path d="M339.193,294.255C339.016,294.255 338.839,294.24 338.667,294.208C336.88,293.885 335.521,291.932 334.74,288.552C334.177,286.12 334,283.219 334.313,281.495C334.375,281.063 334.484,280.641 334.63,280.224C334.781,279.813 334.969,279.417 335.198,279.042C335.427,278.667 335.688,278.318 335.984,277.995C336.286,277.677 336.615,277.385 336.969,277.13C337.328,276.875 337.703,276.656 338.104,276.474C338.505,276.292 338.922,276.156 339.349,276.057C339.776,275.964 340.208,275.906 340.651,275.901C341.089,275.891 341.526,275.922 341.958,276C342.391,276.078 342.807,276.198 343.219,276.365C343.625,276.526 344.01,276.729 344.38,276.969C344.745,277.208 345.089,277.484 345.401,277.792C345.714,278.099 345.99,278.438 346.234,278.802C346.479,279.167 346.682,279.552 346.849,279.958C347.016,280.365 347.141,280.786 347.224,281.214C347.307,281.646 347.349,282.083 347.344,282.521C347.339,282.958 347.286,283.396 347.198,283.823C346.885,285.542 345.703,288.203 344.328,290.281C342.594,292.896 340.833,294.255 339.193,294.255ZM340.745,278.385C340.245,278.385 339.76,278.474 339.292,278.646C338.823,278.818 338.396,279.063 338.01,279.385C337.63,279.703 337.313,280.083 337.063,280.516C336.807,280.948 336.641,281.406 336.552,281.901C336.333,283.094 336.401,285.651 336.958,288.042C337.547,290.599 338.448,291.859 339.073,291.969C339.698,292.078 340.984,291.219 342.427,289.031C343.781,286.984 344.745,284.615 344.958,283.417C345.016,283.109 345.036,282.802 345.021,282.49C345.01,282.177 344.964,281.87 344.88,281.563C344.802,281.26 344.688,280.974 344.547,280.693C344.401,280.417 344.229,280.156 344.026,279.917C343.828,279.677 343.604,279.464 343.354,279.271C343.104,279.083 342.839,278.922 342.557,278.786C342.271,278.656 341.979,278.557 341.672,278.49C341.37,278.422 341.057,278.385 340.745,278.385Z" style="fill:rgb(125,10,10);fill-rule:nonzero;"/>
            </g>
            <g transform="matrix(1.09322,0,0,1.04891,-24.0847,-14.9185)">
                <path d="M326.401,267.141C313.484,267.141 306.927,269.25 300.583,271.292C294.125,273.365 288.021,275.328 275.464,275.328C262.906,275.328 256.802,273.365 250.339,271.292C243.995,269.25 237.432,267.141 224.521,267.141C211.604,267.141 205.047,269.25 198.698,271.292C192.24,273.365 186.135,275.328 173.578,275.328C161.021,275.328 154.917,273.365 148.453,271.292C142.109,269.25 135.547,267.141 122.635,267.141L122.635,269.417C135.188,269.417 141.297,271.375 147.76,273.453C149.958,274.161 152.188,274.875 154.693,275.51L154.083,278.411L152.073,277.99L151.151,282.354L159.354,284.083L160.271,279.719L158.266,279.292L158.87,276.422C162.781,277.135 167.469,277.604 173.578,277.604C180.839,277.604 186.094,276.938 190.427,275.99L191.094,278.943L189.089,279.396L190.073,283.755L198.245,281.911L197.26,277.552L195.26,278.005L194.573,274.948C196.255,274.469 197.828,273.964 199.391,273.458C205.854,271.38 211.958,269.422 224.516,269.422C225.563,269.422 226.568,269.432 227.526,269.458L227.339,273.115L225.286,273.01L225.057,277.469L233.427,277.901L233.656,273.443L231.609,273.333L231.797,269.672C239.719,270.271 244.568,271.828 249.641,273.458C253.573,274.724 257.583,276.01 263.141,276.813L262.766,279.979L260.724,279.734L260.203,284.172L268.521,285.156L269.047,280.719L267.01,280.479L267.385,277.297C269.786,277.495 272.448,277.609 275.458,277.609C286.089,277.609 292.411,276.182 297.854,274.542L298.688,277.594L296.708,278.135L297.88,282.443L305.964,280.245L304.792,275.932L302.813,276.474L301.932,273.25C308.161,271.25 314.271,269.422 326.406,269.422C332.427,269.422 336.964,269.88 340.766,270.573L340.052,274.526L338.036,274.161L337.24,278.557L345.49,280.047L346.281,275.651L344.26,275.286L344.943,271.5C347.266,272.094 349.375,272.771 351.526,273.464C357.875,275.505 364.432,277.615 377.349,277.615L377.349,275.339C364.792,275.339 358.688,273.375 352.224,271.297C345.875,269.25 339.318,267.141 326.401,267.141Z" style="fill:rgb(125,10,10);fill-rule:nonzero;"/>
            </g>
        </g>
    </g>
</svg>
