<svg xmlns="http://www.w3.org/2000/svg" xmlns:xlink="http://www.w3.org/1999/xlink" width="1080" zoomAndPan="magnify" viewBox="0 0 810 809.999993" height="1080" preserveAspectRatio="xMidYMid meet" version="1.0"><defs><clipPath id="223be62967"><path d="M 35.4375 62.0625 L 384 62.0625 L 384 394 L 35.4375 394 Z M 35.4375 62.0625 " clip-rule="nonzero"/></clipPath><clipPath id="c0d1b4baa3"><path d="M 35.4375 426 L 384 426 L 384 758.0625 L 35.4375 758.0625 Z M 35.4375 426 " clip-rule="nonzero"/></clipPath><clipPath id="2014bd993c"><path d="M 416 62.0625 L 764.4375 62.0625 L 764.4375 394 L 416 394 Z M 416 62.0625 " clip-rule="nonzero"/></clipPath><clipPath id="6a334f81bc"><path d="M 416 426 L 764.4375 426 L 764.4375 758.0625 L 416 758.0625 Z M 416 426 " clip-rule="nonzero"/></clipPath></defs><g clip-path="url(#223be62967)"><path fill="#000000" d="M 35.4375 95.207031 C 35.4375 76.902344 50.273438 62.0625 68.574219 62.0625 L 350.234375 62.0625 C 368.535156 62.0625 383.371094 76.902344 383.371094 95.207031 L 383.371094 360.351562 C 383.371094 378.65625 368.535156 393.492188 350.234375 393.492188 L 68.574219 393.492188 C 50.273438 393.492188 35.4375 378.65625 35.4375 360.351562 Z M 101.710938 128.351562 L 101.710938 327.207031 L 317.097656 327.207031 L 317.097656 128.351562 Z M 101.710938 128.351562 " fill-opacity="1" fill-rule="evenodd"/></g><g clip-path="url(#c0d1b4baa3)"><path fill="#000000" d="M 35.4375 459.777344 C 35.4375 441.472656 50.273438 426.636719 68.574219 426.636719 L 350.234375 426.636719 C 368.535156 426.636719 383.371094 441.472656 383.371094 459.777344 L 383.371094 724.921875 C 383.371094 743.226562 368.535156 758.0625 350.234375 758.0625 L 68.574219 758.0625 C 50.273438 758.0625 35.4375 743.226562 35.4375 724.921875 Z M 101.710938 492.921875 L 101.710938 691.777344 L 317.097656 691.777344 L 317.097656 492.921875 Z M 101.710938 492.921875 " fill-opacity="1" fill-rule="evenodd"/></g><g clip-path="url(#2014bd993c)"><path fill="#000000" d="M 416.507812 95.207031 C 416.507812 76.902344 431.339844 62.0625 449.644531 62.0625 L 731.300781 62.0625 C 749.601562 62.0625 764.4375 76.902344 764.4375 95.207031 L 764.4375 360.351562 C 764.4375 378.65625 749.601562 393.492188 731.300781 393.492188 L 449.644531 393.492188 C 431.339844 393.492188 416.507812 378.65625 416.507812 360.351562 Z M 482.777344 128.351562 L 482.777344 327.207031 L 698.164062 327.207031 L 698.164062 128.351562 Z M 482.777344 128.351562 " fill-opacity="1" fill-rule="evenodd"/></g><g clip-path="url(#6a334f81bc)"><path fill="#000000" d="M 416.507812 459.777344 C 416.507812 441.472656 431.339844 426.636719 449.644531 426.636719 L 731.300781 426.636719 C 749.601562 426.636719 764.4375 441.472656 764.4375 459.777344 L 764.4375 724.921875 C 764.4375 743.226562 749.601562 758.0625 731.300781 758.0625 L 449.644531 758.0625 C 431.339844 758.0625 416.507812 743.226562 416.507812 724.921875 Z M 482.777344 492.921875 L 482.777344 691.777344 L 698.164062 691.777344 L 698.164062 492.921875 Z M 482.777344 492.921875 " fill-opacity="1" fill-rule="evenodd"/></g></svg>