<svg xmlns="http://www.w3.org/2000/svg" xmlns:xlink="http://www.w3.org/1999/xlink" width="1080" zoomAndPan="magnify" viewBox="0 0 810 809.999993" height="1080" preserveAspectRatio="xMidYMid meet" version="1.0"><defs><clipPath id="a400f910d8"><path d="M 125 123 L 678 123 L 678 698.25 L 125 698.25 Z M 125 123 " clip-rule="nonzero"/></clipPath><clipPath id="490a844a3e"><path d="M 643 100.5 L 699.992188 100.5 L 699.992188 176 L 643 176 Z M 643 100.5 " clip-rule="nonzero"/></clipPath></defs><g clip-path="url(#a400f910d8)"><path fill="#000000" d="M 666.828125 658.582031 C 665.503906 575.246094 590.707031 506.570312 494.441406 496.214844 L 494.441406 455.402344 C 494.441406 452.777344 492.324219 450.65625 489.699219 450.65625 L 461.734375 450.65625 C 459.109375 450.65625 456.992188 452.777344 456.992188 455.402344 L 456.992188 495.160156 C 389.742188 498.585938 331.4375 530.082031 298.675781 575.785156 L 298.675781 498.382812 C 318.296875 501.269531 382.09375 506.429688 400.132812 454.796875 C 429.003906 447.332031 424.699219 405.355469 424.496094 403.515625 C 424.226562 401.109375 422.199219 399.292969 419.78125 399.292969 L 410.246094 399.292969 L 410.246094 336.472656 C 412.925781 333.539062 413.636719 329.609375 414.003906 327.472656 C 415.210938 320.28125 412.953125 312.78125 407.480469 305.789062 C 404.265625 301.664062 400.441406 299.105469 397.292969 297.527344 C 401.730469 292.988281 406.675781 285.960938 407.320312 276.734375 C 408.207031 264.140625 400.894531 251.386719 385.589844 238.84375 C 384.167969 237.679688 382.199219 237.4375 380.554688 238.222656 C 378.894531 239.011719 377.839844 240.679688 377.839844 242.511719 C 377.839844 242.683594 377.726562 259.792969 367.765625 269.765625 C 364.046875 273.492188 362.230469 277.992188 362.507812 282.789062 C 362.765625 287.253906 364.789062 291.257812 367.066406 294.496094 C 362.765625 295.433594 358.988281 297.25 356.832031 300.515625 C 354.824219 303.5625 353.558594 308.621094 355.238281 313.070312 C 355.839844 314.648438 356.746094 316.027344 358.085938 317.402344 C 359.535156 318.890625 361.050781 319.910156 362.566406 320.753906 L 362.566406 399.296875 L 350.160156 399.296875 C 347.742188 399.296875 345.710938 401.113281 345.445312 403.519531 C 345.25 405.269531 341.335938 443.464844 365.945312 453.523438 C 349.367188 476.15625 310.335938 468.632812 298.671875 465.761719 L 298.671875 374.171875 C 320.855469 361 320.59375 332.53125 317.179688 318.851562 C 316.652344 316.742188 314.75 315.257812 312.574219 315.257812 L 303.332031 315.257812 L 303.332031 223.507812 C 305.289062 222.484375 307.246094 221.144531 309.089844 219.246094 C 310.636719 217.65625 311.675781 216.085938 312.347656 214.304688 C 314.546875 208.5 312.222656 202.542969 310.503906 199.949219 C 307.777344 195.816406 302.742188 193.714844 297.101562 192.742188 C 300.167969 188.734375 303.066406 183.503906 303.40625 177.679688 C 303.722656 172.132812 301.609375 166.914062 297.289062 162.589844 C 284.902344 150.179688 284.695312 128.796875 284.695312 128.578125 C 284.6875 126.746094 283.625 125.082031 281.976562 124.304688 C 280.316406 123.523438 278.359375 123.753906 276.945312 124.921875 C 258.546875 140.003906 249.75 155.257812 250.804688 170.277344 C 251.625 181.96875 258.257812 190.691406 263.78125 196.035156 C 259.851562 197.804688 254.683594 200.933594 250.386719 206.4375 C 243.894531 214.746094 241.214844 223.617188 242.648438 232.097656 C 243.109375 234.835938 243.933594 239.507812 247.238281 242.847656 L 247.238281 315.261719 L 238 315.261719 C 235.824219 315.261719 233.929688 316.746094 233.398438 318.859375 C 229.984375 332.535156 229.726562 361.003906 251.898438 374.179688 L 251.898438 465.773438 C 240.234375 468.648438 201.21875 476.21875 184.628906 453.527344 C 209.242188 443.472656 205.320312 405.277344 205.125 403.523438 C 204.855469 401.121094 202.832031 399.304688 200.414062 399.304688 L 192.058594 399.304688 L 192.058594 336.472656 C 194.75 333.53125 195.453125 329.589844 195.8125 327.472656 C 197.023438 320.28125 194.765625 312.78125 189.292969 305.789062 C 186.078125 301.664062 182.25 299.105469 179.101562 297.527344 C 183.542969 292.988281 188.488281 285.960938 189.132812 276.734375 C 190.019531 264.140625 182.707031 251.386719 167.402344 238.84375 C 165.976562 237.679688 164.011719 237.4375 162.363281 238.222656 C 160.707031 239.011719 159.652344 240.679688 159.652344 242.511719 C 159.652344 242.683594 159.539062 259.792969 149.578125 269.765625 C 145.859375 273.492188 144.042969 277.992188 144.316406 282.789062 C 144.578125 287.253906 146.597656 291.257812 148.878906 294.496094 C 144.578125 295.433594 140.800781 297.25 138.640625 300.515625 C 136.636719 303.5625 135.371094 308.621094 137.046875 313.070312 C 137.644531 314.636719 138.546875 316.011719 139.898438 317.402344 C 141.34375 318.890625 142.863281 319.910156 144.378906 320.753906 L 144.378906 399.296875 L 130.804688 399.296875 C 128.386719 399.296875 126.355469 401.113281 126.089844 403.519531 C 125.886719 405.359375 121.582031 447.332031 150.457031 454.804688 C 168.488281 506.429688 232.304688 501.269531 251.914062 498.386719 L 251.914062 634.179688 C 245.773438 636.757812 233.390625 643.558594 231.449219 657.128906 C 226.84375 658.621094 218.992188 662.117188 214.597656 669.410156 C 211.007812 675.375 210.457031 682.457031 212.960938 690.460938 C 213.582031 692.4375 215.410156 693.785156 217.484375 693.785156 L 267.480469 693.785156 C 269.046875 695.132812 270.851562 696.40625 272.894531 697.609375 C 273.621094 698.035156 274.453125 698.257812 275.296875 698.257812 L 662.160156 698.257812 C 663.003906 698.257812 663.832031 698.035156 664.558594 697.609375 C 672.671875 692.851562 677.023438 686.925781 677.484375 680 C 678.140625 670.105469 670.484375 661.910156 666.828125 658.582031 Z M 466.476562 460.144531 L 484.957031 460.144531 L 484.957031 495.394531 C 479.753906 495.046875 474.507812 494.820312 469.195312 494.820312 C 468.28125 494.820312 467.386719 494.867188 466.476562 494.875 Z M 469.195312 504.304688 C 571.074219 504.304688 654.308594 571.957031 657.332031 656.078125 L 280.121094 656.078125 C 283.160156 571.957031 366.808594 504.304688 469.195312 504.304688 Z M 374.488281 276.480469 C 381.742188 269.207031 384.902344 259.433594 386.277344 252.238281 C 394.476562 260.519531 398.378906 268.496094 397.871094 276.007812 C 397.335938 283.992188 391.824219 289.953125 388.226562 293.035156 L 388.226562 276.847656 C 388.226562 274.226562 386.105469 272.105469 383.484375 272.105469 C 380.863281 272.105469 378.742188 274.226562 378.742188 276.847656 L 378.742188 293.554688 C 376.25 291.199219 372.230469 286.566406 371.980469 282.238281 C 371.863281 280.140625 372.652344 278.304688 374.488281 276.480469 Z M 372.054688 324.347656 C 372.914062 324.6875 373.523438 325.039062 373.804688 325.5 C 373.992188 325.796875 374.027344 326.304688 374.027344 326.6875 C 374.027344 329.308594 376.148438 331.429688 378.769531 331.429688 C 381.394531 331.429688 383.511719 329.308594 383.511719 326.6875 C 383.511719 324.34375 382.957031 322.253906 381.859375 320.484375 C 379.390625 316.539062 375.496094 315.386719 372.0625 314.367188 C 369.273438 313.539062 366.867188 312.828125 364.890625 310.792969 C 364.359375 310.246094 364.199219 309.9375 364.109375 309.703125 C 363.609375 308.386719 364.292969 306.441406 364.753906 305.75 C 366.878906 302.515625 379.398438 302.527344 389.265625 304.550781 C 389.324219 304.5625 395.597656 305.96875 400.019531 311.628906 C 403.808594 316.472656 405.410156 321.410156 404.65625 325.914062 C 404.441406 327.144531 404.007812 329.707031 403.074219 330.273438 C 402.988281 330.320312 401.167969 331.367188 395.589844 329.835938 C 395.34375 329.769531 394.804688 329.644531 394.546875 329.621094 C 391.972656 329.328125 389.609375 331.234375 389.335938 333.84375 C 389.074219 336.292969 390.726562 338.492188 393.082031 338.980469 L 393.082031 338.988281 C 395.914062 339.765625 398.476562 340.152344 400.769531 340.160156 L 400.769531 399.304688 L 372.054688 399.304688 Z M 260.269531 169.542969 C 259.59375 159.628906 264.929688 149.148438 276.140625 138.3125 C 277.578125 147.0625 281.230469 159.921875 290.585938 169.292969 C 293.007812 171.714844 294.105469 174.273438 293.949219 177.105469 C 293.617188 183.003906 288.050781 189.210938 284.875 192.097656 C 284.453125 192.117188 284.023438 192.136719 283.609375 192.160156 L 283.609375 170.476562 C 283.609375 167.855469 281.488281 165.734375 278.867188 165.734375 C 276.242188 165.734375 274.125 167.855469 274.125 170.476562 L 274.125 192.429688 C 269.917969 189.195312 261.042969 181.046875 260.269531 169.542969 Z M 256.730469 246.585938 C 257.066406 246.601562 257.347656 246.695312 257.699219 246.695312 C 260.425781 246.691406 263.527344 246.222656 267.007812 245.273438 C 269.320312 244.761719 270.9375 242.582031 270.691406 240.164062 C 270.425781 237.558594 268.167969 235.722656 265.492188 235.917969 C 265.230469 235.945312 264.617188 236.082031 264.367188 236.15625 C 257.40625 238.066406 254.871094 236.84375 254.429688 236.578125 C 252.867188 235.632812 252.332031 232.429688 252.003906 230.515625 C 251.03125 224.734375 253.054688 218.4375 257.863281 212.277344 C 263.503906 205.058594 271.511719 203.285156 271.585938 203.269531 C 282.570312 201.019531 299.464844 200.425781 302.59375 205.179688 C 303.382812 206.371094 304.210938 209.035156 303.484375 210.945312 C 303.332031 211.34375 303.082031 211.828125 302.289062 212.640625 C 299.691406 215.3125 296.488281 216.269531 293.097656 217.273438 C 289.078125 218.464844 284.527344 219.8125 281.730469 224.292969 C 280.496094 226.28125 279.871094 228.636719 279.871094 231.300781 C 279.871094 233.925781 281.992188 236.046875 284.613281 236.046875 C 287.234375 236.046875 289.355469 233.925781 289.355469 231.300781 C 289.355469 230.433594 289.496094 229.769531 289.78125 229.3125 C 290.441406 228.257812 291.769531 227.644531 293.855469 226.96875 L 293.855469 315.261719 L 256.726562 315.261719 L 256.726562 246.585938 Z M 156.308594 276.480469 C 163.566406 269.207031 166.722656 259.433594 168.097656 252.238281 C 176.296875 260.519531 180.199219 268.496094 179.691406 276.007812 C 179.15625 283.992188 173.644531 289.953125 170.046875 293.035156 L 170.046875 276.847656 C 170.046875 274.226562 167.925781 272.105469 165.304688 272.105469 C 162.683594 272.105469 160.5625 274.226562 160.5625 276.847656 L 160.5625 293.554688 C 158.070312 291.199219 154.050781 286.566406 153.800781 282.238281 C 153.683594 280.140625 154.472656 278.304688 156.308594 276.480469 Z M 153.878906 324.347656 C 154.734375 324.6875 155.34375 325.039062 155.625 325.5 C 155.8125 325.796875 155.851562 326.304688 155.851562 326.6875 C 155.851562 329.308594 157.96875 331.429688 160.589844 331.429688 C 163.214844 331.429688 165.332031 329.308594 165.332031 326.6875 C 165.332031 324.34375 164.777344 322.253906 163.679688 320.484375 C 161.210938 316.539062 157.316406 315.386719 153.882812 314.367188 C 151.09375 313.539062 148.691406 312.828125 146.722656 310.800781 C 146.179688 310.242188 146.019531 309.933594 145.929688 309.703125 C 145.433594 308.386719 146.113281 306.441406 146.574219 305.75 C 148.699219 302.515625 161.21875 302.527344 171.085938 304.550781 C 171.148438 304.5625 177.421875 305.96875 181.839844 311.628906 C 185.628906 316.472656 187.230469 321.410156 186.476562 325.898438 C 186.269531 327.132812 185.835938 329.703125 184.894531 330.273438 C 184.8125 330.320312 182.980469 331.367188 177.410156 329.835938 C 177.164062 329.769531 176.625 329.644531 176.367188 329.621094 C 173.808594 329.328125 171.429688 331.234375 171.15625 333.84375 C 170.894531 336.292969 172.546875 338.492188 174.902344 338.980469 L 174.902344 338.988281 C 177.734375 339.765625 180.296875 340.152344 182.589844 340.160156 L 182.589844 399.304688 L 153.878906 399.304688 Z M 222.695312 674.339844 C 226.792969 667.484375 236.703125 665.503906 236.789062 665.492188 C 239.039062 665.074219 240.667969 663.113281 240.667969 660.828125 C 240.667969 647.359375 257.820312 642.085938 257.976562 642.035156 C 260.003906 641.445312 261.390625 639.589844 261.390625 637.484375 L 261.390625 492.75 C 261.390625 491.308594 260.738281 489.953125 259.617188 489.050781 C 258.496094 488.152344 257.019531 487.8125 255.621094 488.121094 C 254.820312 488.304688 175.796875 505.195312 158.644531 449.339844 C 158.117188 447.621094 156.660156 446.347656 154.890625 446.054688 C 136.417969 442.972656 135.050781 418.730469 135.285156 408.796875 L 195.949219 408.796875 C 196.203125 418.730469 194.871094 442.960938 176.339844 446.054688 C 173.90625 446.464844 172.332031 448.667969 172.535156 451.125 C 172.621094 452.074219 172.996094 452.949219 173.574219 453.652344 C 194.207031 493.082031 255.433594 474.738281 258.039062 473.941406 C 260.03125 473.324219 261.386719 471.484375 261.386719 469.40625 L 261.386719 371.363281 C 261.386719 369.566406 260.371094 367.925781 258.765625 367.121094 C 239.039062 357.238281 240.515625 333.792969 241.914062 324.746094 L 308.636719 324.746094 C 309.960938 333.769531 311.34375 357.332031 291.804688 367.121094 C 290.199219 367.925781 289.183594 369.566406 289.183594 371.363281 L 289.183594 469.40625 C 289.183594 471.484375 290.539062 473.324219 292.53125 473.941406 C 295.136719 474.734375 355.839844 492.925781 376.722656 454.167969 C 377.542969 453.394531 378.082031 452.324219 378.1875 451.121094 C 378.386719 448.660156 376.675781 446.457031 374.242188 446.050781 C 355.769531 442.96875 354.402344 418.726562 354.636719 408.789062 L 415.300781 408.789062 C 415.554688 418.726562 414.21875 442.957031 395.691406 446.050781 C 393.921875 446.347656 392.464844 447.617188 391.9375 449.332031 C 374.804688 505.09375 298.195312 488.835938 294.953125 488.117188 C 293.523438 487.808594 292.082031 488.152344 290.957031 489.050781 C 289.832031 489.949219 289.183594 491.3125 289.183594 492.746094 L 289.183594 590.714844 C 277.609375 611.390625 270.996094 634.367188 270.609375 658.578125 C 266.953125 661.90625 259.300781 670.101562 259.960938 679.988281 C 260.058594 681.472656 260.371094 682.898438 260.828125 684.289062 L 221.175781 684.289062 C 220.511719 680.421875 221.011719 677.148438 222.695312 674.339844 Z M 660.828125 688.761719 L 276.625 688.761719 C 272.082031 685.871094 269.664062 682.722656 269.429688 679.378906 C 269.058594 674.035156 274.039062 668.304688 277.039062 665.566406 L 660.410156 665.566406 C 663.324219 668.238281 668.371094 674.019531 668.019531 679.359375 C 667.796875 682.707031 665.375 685.867188 660.828125 688.761719 Z M 660.828125 688.761719 " fill-opacity="1" fill-rule="nonzero"/></g><path fill="#000000" d="M 515.695312 375.832031 C 524.699219 378.039062 533.800781 379.125 542.839844 379.125 C 563.332031 379.125 583.496094 373.519531 601.464844 362.601562 C 627.355469 346.863281 645.574219 321.96875 652.765625 292.503906 C 667.621094 231.679688 630.304688 170.09375 569.574219 155.214844 L 569.570312 155.214844 C 563.574219 153.746094 557.335938 152.765625 551.019531 152.289062 C 548.902344 152.136719 547.039062 153.339844 546.265625 155.246094 C 545.496094 157.15625 546.046875 159.355469 547.640625 160.675781 C 578.148438 185.957031 591.785156 227.164062 582.378906 265.65625 C 570.261719 315.289062 524.613281 348.507812 473.792969 344.707031 C 471.679688 344.527344 469.808594 345.746094 469.035156 347.664062 C 468.265625 349.574219 468.816406 351.773438 470.410156 353.097656 C 483.660156 364.0625 498.894531 371.714844 515.695312 375.832031 Z M 591.597656 267.902344 C 600.644531 230.867188 590.136719 191.519531 564.699219 163.828125 C 565.582031 164.015625 566.449219 164.222656 567.324219 164.433594 L 567.320312 164.433594 C 622.96875 178.070312 657.171875 234.507812 643.550781 290.25 C 636.957031 317.253906 620.265625 340.070312 596.539062 354.496094 C 572.808594 368.917969 544.902344 373.226562 517.953125 366.617188 C 507.363281 364.019531 497.453125 359.898438 488.347656 354.300781 C 537.460938 351.453125 579.59375 317.039062 591.597656 267.902344 Z M 591.597656 267.902344 " fill-opacity="1" fill-rule="nonzero"/><path fill="#000000" d="M 638.847656 469.476562 C 641.4375 469.476562 643.542969 467.398438 643.589844 464.816406 C 643.589844 464.8125 643.589844 464.804688 643.589844 464.792969 C 643.589844 464.789062 643.589844 464.789062 643.589844 464.785156 C 643.589844 464.777344 643.589844 464.769531 643.589844 464.761719 C 643.589844 464.761719 643.589844 464.742188 643.589844 464.734375 C 643.589844 464.453125 643.804688 436.796875 662.15625 436.796875 C 664.777344 436.796875 666.894531 434.675781 666.894531 432.050781 C 666.894531 429.425781 664.777344 427.308594 662.15625 427.308594 C 643.890625 427.308594 643.59375 400.507812 643.589844 399.359375 C 643.585938 396.742188 641.464844 394.625 638.847656 394.625 C 636.257812 394.625 634.152344 396.703125 634.105469 399.285156 C 634.105469 399.289062 634.105469 399.296875 634.105469 399.308594 C 634.105469 399.3125 634.105469 399.3125 634.105469 399.316406 C 634.105469 399.328125 634.105469 399.332031 634.105469 399.339844 C 634.105469 399.339844 634.105469 399.359375 634.105469 399.371094 C 634.105469 399.648438 633.894531 427.308594 615.546875 427.308594 C 612.925781 427.308594 610.804688 429.425781 610.804688 432.050781 C 610.804688 434.675781 612.925781 436.796875 615.546875 436.796875 C 633.746094 436.796875 634.101562 463.417969 634.105469 464.726562 L 634.105469 464.734375 C 634.105469 467.355469 636.230469 469.476562 638.847656 469.476562 Z M 630.285156 432.054688 C 634.03125 429.203125 636.824219 425.308594 638.851562 421.0625 C 640.882812 425.3125 643.675781 429.210938 647.421875 432.054688 C 643.675781 434.90625 640.882812 438.800781 638.851562 443.046875 C 636.824219 438.800781 634.03125 434.902344 630.285156 432.054688 Z M 630.285156 432.054688 " fill-opacity="1" fill-rule="nonzero"/><path fill="#000000" d="M 401.140625 180.019531 C 419.40625 180.019531 419.703125 206.816406 419.707031 207.964844 C 419.710938 210.585938 421.832031 212.699219 424.449219 212.699219 C 427.039062 212.699219 429.144531 210.621094 429.191406 208.042969 C 429.191406 208.035156 429.191406 208.027344 429.191406 208.019531 C 429.191406 208.011719 429.191406 208.011719 429.191406 208.007812 C 429.191406 208 429.191406 207.996094 429.191406 207.984375 C 429.191406 207.984375 429.191406 207.964844 429.191406 207.957031 C 429.191406 207.675781 429.402344 180.019531 447.753906 180.019531 C 450.375 180.019531 452.496094 177.898438 452.496094 175.273438 C 452.496094 172.652344 450.375 170.53125 447.753906 170.53125 C 429.488281 170.53125 429.195312 143.730469 429.191406 142.582031 C 429.183594 139.964844 427.066406 137.847656 424.449219 137.847656 C 421.859375 137.847656 419.753906 139.925781 419.707031 142.507812 C 419.707031 142.511719 419.707031 142.523438 419.707031 142.53125 C 419.707031 142.535156 419.707031 142.535156 419.707031 142.539062 C 419.707031 142.550781 419.707031 142.554688 419.707031 142.5625 C 419.707031 142.5625 419.707031 142.582031 419.707031 142.59375 C 419.707031 142.871094 419.492188 170.53125 401.140625 170.53125 C 398.519531 170.53125 396.402344 172.652344 396.402344 175.273438 C 396.402344 177.898438 398.519531 180.019531 401.140625 180.019531 Z M 424.449219 164.277344 C 426.476562 168.527344 429.269531 172.421875 433.015625 175.269531 C 429.269531 178.121094 426.476562 182.015625 424.449219 186.261719 C 422.417969 182.011719 419.625 178.117188 415.878906 175.269531 C 419.625 172.421875 422.417969 168.527344 424.449219 164.277344 Z M 424.449219 164.277344 " fill-opacity="1" fill-rule="nonzero"/><g clip-path="url(#490a844a3e)"><path fill="#000000" d="M 694.78125 133.179688 C 676.515625 133.179688 676.222656 106.382812 676.21875 105.234375 C 676.214844 102.613281 674.09375 100.5 671.476562 100.5 C 668.886719 100.5 666.78125 102.578125 666.734375 105.15625 C 666.734375 105.164062 666.734375 105.171875 666.734375 105.179688 C 666.734375 105.1875 666.734375 105.1875 666.734375 105.191406 C 666.734375 105.199219 666.734375 105.203125 666.734375 105.214844 C 666.734375 105.214844 666.734375 105.234375 666.734375 105.242188 C 666.734375 105.523438 666.523438 133.179688 648.171875 133.179688 C 645.546875 133.179688 643.429688 135.300781 643.429688 137.925781 C 643.429688 140.546875 645.546875 142.667969 648.171875 142.667969 C 666.4375 142.667969 666.730469 169.46875 666.734375 170.617188 C 666.738281 173.234375 668.859375 175.351562 671.476562 175.351562 C 674.066406 175.351562 676.171875 173.273438 676.21875 170.691406 C 676.21875 170.6875 676.21875 170.675781 676.21875 170.667969 C 676.21875 170.664062 676.21875 170.664062 676.21875 170.660156 C 676.21875 170.648438 676.21875 170.644531 676.21875 170.636719 C 676.21875 170.636719 676.21875 170.617188 676.21875 170.605469 C 676.21875 170.328125 676.433594 142.667969 694.78125 142.667969 C 697.40625 142.667969 699.523438 140.546875 699.523438 137.925781 C 699.523438 135.300781 697.40625 133.179688 694.78125 133.179688 Z M 671.476562 148.917969 C 669.449219 144.667969 666.65625 140.769531 662.910156 137.925781 C 666.65625 135.074219 669.449219 131.179688 671.476562 126.933594 C 673.507812 131.183594 676.300781 135.078125 680.046875 137.925781 C 676.300781 140.769531 673.507812 144.671875 671.476562 148.917969 Z M 671.476562 148.917969 " fill-opacity="1" fill-rule="nonzero"/></g></svg>