<svg xmlns="http://www.w3.org/2000/svg" xmlns:xlink="http://www.w3.org/1999/xlink" width="1080" zoomAndPan="magnify" viewBox="0 0 810 809.999993" height="1080" preserveAspectRatio="xMidYMid meet" version="1.0"><defs><clipPath id="3b794051c5"><path d="M 82 187 L 728 187 L 728 623.203125 L 82 623.203125 Z M 82 187 " clip-rule="nonzero"/></clipPath></defs><g clip-path="url(#3b794051c5)"><path fill="#000000" d="M 318.960938 271.453125 C 317.9375 275.027344 318.449219 279.109375 320.492188 284.726562 C 323.554688 292.894531 327.128906 301.574219 330.703125 310.253906 C 332.234375 313.824219 331.214844 317.398438 327.640625 319.953125 C 327.128906 319.953125 326.621094 319.953125 325.085938 320.464844 C 321.511719 320.972656 318.960938 319.441406 317.9375 316.378906 C 311.300781 302.082031 307.214844 291.875 305.171875 284.726562 C 301.597656 272.984375 304.664062 262.261719 312.832031 252.5625 C 312.832031 252.5625 315.386719 248.988281 321.003906 242.351562 C 327.128906 234.695312 329.171875 226.015625 326.621094 216.316406 C 325.597656 213.253906 323.554688 207.125 319.472656 197.425781 C 317.9375 193.34375 319.472656 190.277344 323.554688 188.746094 C 323.554688 188.746094 323.554688 188.238281 324.066406 188.238281 C 328.152344 186.703125 331.214844 188.238281 333.257812 192.320312 C 337.34375 201.511719 340.40625 209.679688 341.9375 217.335938 C 346.023438 237.246094 332.746094 251.03125 321.003906 265.835938 C 320.492188 266.859375 319.980469 268.390625 318.960938 271.453125 Z M 189.773438 497.617188 L 189.773438 532.332031 C 189.773438 535.90625 187.730469 538.457031 183.132812 539.480469 C 183.132812 539.480469 182.625 539.480469 182.113281 539.480469 C 177.519531 538.96875 175.476562 535.90625 175.476562 531.308594 L 175.476562 488.9375 C 175.476562 484.34375 178.027344 481.789062 182.625 481.789062 L 282.707031 481.789062 C 286.789062 481.789062 289.34375 484.34375 289.855469 489.445312 C 289.855469 489.445312 289.855469 489.445312 289.855469 489.957031 C 288.832031 494.042969 286.28125 496.082031 281.683594 496.082031 L 191.304688 496.082031 C 190.285156 496.082031 189.773438 496.59375 189.773438 497.617188 Z M 477.253906 412.359375 C 494.613281 376.621094 523.71875 358.242188 564.570312 357.730469 C 565.078125 357.730469 565.589844 357.222656 565.589844 356.710938 C 564.570312 328.632812 567.121094 302.082031 572.738281 277.578125 C 576.3125 262.773438 598.78125 254.605469 613.078125 251.542969 C 622.269531 250.011719 631.972656 249.5 641.671875 249.5 C 660.054688 250.011719 684.566406 255.117188 696.820312 269.410156 C 699.375 272.984375 701.417969 278.089844 702.949219 285.238281 C 711.628906 332.203125 710.605469 382.746094 695.800781 429.203125 C 693.246094 437.882812 688.140625 449.117188 680.480469 463.921875 C 674.863281 474.132812 669.246094 485.875 664.140625 498.125 C 657.503906 513.953125 654.4375 530.289062 654.949219 547.648438 C 654.949219 548.15625 655.460938 548.667969 655.972656 548.667969 L 720.308594 548.667969 C 724.90625 548.667969 727.457031 551.222656 727.96875 556.324219 C 727.96875 556.324219 727.96875 556.835938 727.96875 557.347656 C 726.4375 561.429688 723.882812 563.472656 719.289062 563.472656 L 709.074219 563.472656 C 708.566406 563.472656 708.054688 563.984375 708.054688 565.003906 C 708.054688 565.515625 708.054688 569.601562 707.542969 577.257812 C 707.03125 603.804688 685.585938 623.203125 658.523438 623.203125 C 365.9375 622.695312 194.878906 622.695312 145.859375 622.695312 C 135.648438 622.695312 125.433594 618.609375 116.242188 609.421875 C 106.03125 599.722656 100.925781 587.46875 101.945312 572.664062 C 101.945312 570.621094 101.945312 567.558594 101.945312 564.496094 C 101.433594 563.984375 100.925781 563.472656 100.414062 563.472656 L 89.179688 562.964844 C 84.074219 562.964844 82.03125 560.921875 82.03125 556.324219 C 82.03125 555.816406 82.03125 555.816406 82.03125 555.816406 C 82.542969 551.222656 84.585938 548.667969 89.179688 548.667969 L 148.921875 548.667969 C 149.433594 548.667969 149.433594 548.667969 149.433594 548.15625 L 149.433594 473.621094 C 149.433594 472.601562 149.433594 472.089844 148.414062 472.089844 L 142.796875 472.089844 C 138.710938 472.089844 136.667969 470.046875 136.667969 465.453125 C 136.667969 464.941406 136.667969 464.429688 136.667969 463.921875 C 136.667969 460.347656 139.730469 457.792969 142.796875 457.792969 C 143.304688 457.792969 143.304688 457.792969 143.304688 457.792969 L 179.558594 457.792969 C 180.070312 457.792969 181.09375 457.285156 181.09375 456.773438 C 214.792969 402.148438 263.300781 371.003906 327.640625 362.835938 C 328.152344 362.324219 328.660156 361.816406 328.660156 361.304688 C 328.660156 358.753906 328.660156 355.6875 329.171875 351.605469 C 329.171875 342.925781 332.234375 337.308594 338.875 334.246094 C 348.066406 330.164062 358.789062 333.738281 362.875 343.4375 C 364.917969 348.03125 363.894531 357.222656 363.894531 361.304688 C 363.894531 362.324219 364.40625 362.835938 365.425781 362.835938 C 371.042969 363.347656 375.640625 364.367188 378.703125 364.878906 C 382.277344 365.898438 385.851562 365.390625 389.425781 363.859375 C 401.679688 359.261719 412.402344 353.136719 420.574219 346.5 C 424.148438 343.4375 428.742188 339.351562 434.359375 333.738281 C 450.699219 317.910156 458.359375 298 456.316406 275.027344 C 455.808594 268.898438 457.847656 263.285156 462.445312 258.179688 C 473.167969 247.457031 494.105469 247.457031 502.785156 261.242188 C 504.828125 264.816406 505.847656 270.941406 507.378906 275.027344 C 507.890625 277.066406 509.933594 278.601562 512.484375 278.601562 C 522.699219 279.621094 533.421875 280.640625 538.527344 289.832031 C 543.125 298 544.144531 306.167969 541.589844 313.824219 C 537.507812 326.078125 524.230469 329.652344 512.484375 330.671875 C 500.230469 331.695312 492.0625 334.246094 483.890625 342.414062 C 470.105469 356.199219 460.402344 373.046875 455.296875 393.980469 C 455.296875 395 455.296875 396.019531 456.316406 396.53125 L 476.230469 412.359375 C 476.742188 412.867188 476.742188 412.867188 477.253906 412.359375 Z M 688.652344 283.195312 C 688.652344 271.964844 665.671875 262.261719 637.078125 262.261719 C 608.484375 262.261719 584.996094 271.964844 584.996094 283.195312 C 584.996094 294.9375 608.484375 304.125 637.078125 304.125 C 665.671875 304.125 688.652344 294.9375 688.652344 283.195312 Z M 469.082031 333.738281 C 469.59375 333.738281 470.105469 333.738281 470.105469 333.738281 C 477.253906 326.078125 485.421875 320.972656 494.613281 317.910156 C 502.785156 314.847656 513.507812 315.867188 521.675781 313.316406 C 528.316406 311.273438 527.804688 303.617188 525.761719 298.511719 C 524.742188 296.980469 522.1875 295.957031 518.101562 295.445312 C 511.976562 294.425781 507.890625 293.914062 506.359375 293.40625 C 495.125 290.34375 493.082031 282.171875 490.019531 271.964844 C 487.464844 263.792969 476.742188 264.816406 472.65625 270.429688 C 472.148438 270.941406 472.148438 271.964844 472.148438 272.984375 C 472.148438 281.152344 472.148438 287.277344 472.148438 290.34375 C 471.125 303.617188 467.039062 315.359375 460.402344 326.589844 C 459.890625 327.609375 459.890625 328.121094 460.402344 328.632812 C 462.445312 330.671875 465.507812 332.203125 469.082031 333.738281 Z M 637.078125 383.769531 C 655.972656 383.769531 677.925781 380.195312 693.757812 366.921875 C 694.265625 366.410156 694.777344 365.898438 694.777344 364.878906 C 696.308594 344.457031 695.800781 323.527344 692.734375 303.105469 C 692.734375 302.59375 692.226562 302.082031 692.226562 302.082031 C 691.714844 302.082031 691.714844 302.59375 691.714844 302.59375 C 674.863281 313.316406 656.480469 316.890625 637.078125 316.890625 C 617.164062 316.890625 598.78125 313.316406 581.929688 302.59375 C 581.421875 302.59375 580.910156 302.59375 580.910156 303.105469 C 578.355469 323.527344 577.335938 344.457031 578.867188 364.878906 C 578.867188 365.898438 579.378906 366.410156 579.886719 366.921875 C 595.71875 380.195312 617.675781 383.769531 637.078125 383.769531 Z M 441 386.320312 C 445.59375 371.003906 451.722656 357.730469 458.871094 347.519531 C 459.382812 346.5 459.382812 345.988281 458.871094 345.480469 L 451.210938 340.882812 C 450.699219 340.375 450.191406 340.375 449.679688 340.882812 C 437.933594 352.117188 426.191406 363.859375 410.871094 371.515625 C 409.851562 372.027344 409.851562 372.535156 410.871094 373.046875 L 440.488281 386.320312 C 440.488281 386.320312 441 386.320312 441 386.320312 Z M 553.847656 459.835938 C 555.890625 461.367188 556.910156 463.410156 555.890625 466.472656 C 554.867188 471.066406 551.292969 472.601562 545.164062 472.089844 C 543.632812 472.089844 543.125 472.601562 543.125 473.621094 L 543.125 548.15625 C 543.125 548.667969 543.632812 548.667969 543.632812 548.667969 L 617.164062 548.667969 C 618.183594 548.667969 618.695312 548.15625 618.695312 547.648438 C 620.226562 519.566406 609.503906 495.0625 596.738281 470.046875 C 588.570312 454.222656 582.953125 442.480469 579.886719 434.820312 C 572.738281 415.421875 569.164062 395.511719 566.613281 374.066406 C 566.613281 373.046875 566.101562 372.535156 565.078125 372.535156 C 537.507812 372.027344 515.039062 382.238281 498.699219 404.1875 C 494.613281 409.804688 491.039062 415.929688 488.996094 423.078125 C 488.488281 424.101562 488.488281 424.609375 488.996094 425.121094 L 511.976562 456.773438 C 512.484375 457.285156 512.996094 457.792969 514.019531 457.792969 C 529.847656 457.792969 540.570312 457.792969 546.1875 457.285156 C 549.25 457.285156 551.804688 457.792969 553.847656 459.835938 Z M 346.535156 457.792969 C 395.554688 457.792969 444.574219 457.792969 493.59375 457.285156 C 494.105469 457.285156 494.105469 457.285156 494.105469 456.773438 C 469.082031 418.996094 434.871094 394.488281 391.46875 382.238281 C 377.683594 378.664062 362.363281 376.621094 346.535156 376.621094 C 330.195312 376.621094 314.875 378.664062 301.089844 382.238281 C 257.683594 394.488281 223.472656 418.996094 198.453125 456.773438 C 198.453125 457.285156 198.453125 457.285156 198.964844 457.285156 C 247.984375 457.792969 297.003906 457.792969 346.535156 457.792969 Z M 528.316406 473.109375 C 528.316406 472.601562 528.316406 472.089844 527.804688 472.089844 L 165.261719 472.089844 C 164.753906 472.089844 164.242188 472.601562 164.242188 473.109375 L 164.242188 547.648438 C 164.242188 548.15625 164.753906 548.667969 165.261719 548.667969 L 527.804688 548.667969 C 528.316406 548.667969 528.316406 548.15625 528.316406 547.648438 Z M 637.078125 548.667969 C 638.609375 548.667969 639.632812 548.667969 640.140625 548.667969 C 641.164062 548.667969 641.671875 548.15625 641.671875 547.136719 C 640.652344 527.738281 644.738281 508.847656 653.417969 489.957031 C 653.929688 489.445312 653.929688 489.445312 653.929688 489.445312 C 653.929688 489.445312 653.417969 488.9375 653.417969 488.9375 C 653.417969 488.9375 653.417969 488.9375 652.90625 488.9375 C 646.269531 491.488281 641.164062 492.511719 637.078125 492.511719 C 632.992188 492.511719 627.375 491.488281 620.738281 488.9375 C 620.738281 488.9375 620.738281 488.9375 620.226562 488.9375 C 620.226562 488.9375 620.226562 489.445312 620.226562 489.445312 C 620.226562 489.445312 620.226562 489.445312 620.226562 489.957031 C 628.90625 508.847656 632.992188 527.738281 631.972656 547.136719 C 631.972656 548.15625 632.480469 548.667969 633.503906 548.667969 C 634.015625 548.667969 635.035156 548.667969 637.078125 548.667969 Z M 691.203125 563.472656 L 118.285156 563.472656 C 116.753906 563.472656 115.734375 564.496094 115.734375 565.515625 L 115.734375 573.683594 C 115.734375 593.082031 131.5625 608.398438 150.964844 608.398438 L 658.523438 608.398438 C 677.925781 608.398438 693.757812 593.082031 693.757812 573.683594 L 693.757812 565.515625 C 693.757812 564.496094 692.734375 563.472656 691.203125 563.472656 Z M 365.9375 271.453125 C 364.917969 275.027344 365.425781 279.109375 367.46875 284.726562 C 371.042969 292.894531 374.105469 301.574219 378.191406 310.253906 C 379.722656 313.824219 378.191406 316.890625 374.617188 319.953125 C 374.617188 319.953125 373.597656 319.953125 372.574219 320.464844 C 369 320.972656 366.449219 319.441406 364.917969 316.378906 C 358.277344 302.082031 354.191406 291.875 352.152344 284.726562 C 348.578125 272.984375 352.152344 262.261719 359.808594 252.5625 C 359.808594 252.5625 362.875 248.988281 368.492188 242.351562 C 374.617188 234.695312 376.148438 226.015625 373.597656 216.316406 C 372.574219 213.253906 370.53125 207.125 366.957031 197.425781 C 365.425781 193.34375 366.449219 190.789062 370.53125 188.746094 C 371.042969 188.746094 371.042969 188.238281 371.042969 188.238281 C 375.128906 186.703125 378.191406 188.238281 380.234375 192.320312 C 384.320312 201.511719 387.382812 209.679688 388.914062 217.335938 C 393 237.246094 380.234375 251.03125 367.980469 265.835938 C 367.46875 266.859375 366.957031 268.390625 365.9375 271.453125 Z M 365.9375 271.453125 " fill-opacity="1" fill-rule="evenodd"/></g></svg>