<svg xmlns="http://www.w3.org/2000/svg" xmlns:xlink="http://www.w3.org/1999/xlink" width="1080" zoomAndPan="magnify" viewBox="0 0 810 809.999993" height="1080" preserveAspectRatio="xMidYMid meet" version="1.0"><path fill="#000000" d="M 270.242188 260.675781 C 268.167969 257.746094 268.777344 253.722656 271.703125 251.527344 C 299.402344 231.402344 331.976562 218.714844 365.894531 214.8125 C 374.316406 213.960938 375.902344 226.765625 367.359375 227.742188 C 335.636719 231.402344 305.257812 243.234375 279.390625 262.015625 C 276.464844 264.210938 272.4375 263.601562 270.242188 260.675781 Z M 657.621094 286.535156 L 667.015625 562.929688 C 667.382812 572.441406 663.84375 581.589844 657.253906 588.421875 C 638.832031 608.546875 603.203125 598.179688 597.957031 571.832031 C 498.640625 707.101562 287.933594 709.785156 184.46875 577.6875 C 169.828125 612.570312 117.484375 601.960938 117.242188 564.148438 C 117.117188 563.171875 126.636719 291.902344 126.511719 290.804688 C 100.28125 284.339844 81.125 260.429688 81.125 232.988281 L 81.125 128.699219 C 81.859375 101.253906 122.121094 101.253906 122.851562 128.699219 C 122.851562 128.699219 122.851562 222.132812 122.851562 222.132812 C 122.851562 225.914062 128.832031 225.914062 128.832031 222.132812 C 128.832031 222.132812 128.832031 131.261719 128.832031 131.261719 C 128.832031 125.039062 131.273438 119.183594 135.664062 114.671875 C 149.695312 100.035156 176.292969 110.890625 175.683594 131.382812 C 175.683594 131.382812 175.683594 222.253906 175.683594 222.253906 C 175.5625 226.035156 181.660156 226.15625 181.539062 222.253906 C 181.539062 222.253906 181.539062 128.820312 181.539062 128.820312 C 181.539062 123.332031 183.734375 118.085938 187.519531 114.0625 C 200.085938 100.890625 223.753906 110.648438 223.265625 128.820312 C 223.265625 128.820312 223.265625 209.933594 223.265625 209.933594 C 318.191406 129.796875 469.480469 132.234375 561.355469 215.789062 C 553.058594 163.828125 587.464844 106.5 632 107.839844 C 714.234375 110.648438 728.875 251.769531 657.621094 286.535156 Z M 174.21875 564.148438 C 174.21875 561.097656 165.066406 295.316406 165.066406 292.511719 C 164.335938 292.511719 140.300781 292.511719 139.566406 292.511719 C 139.566406 293.363281 130.296875 563.292969 130.296875 564.027344 C 131.027344 592.933594 173.488281 593.054688 174.21875 564.148438 Z M 210.332031 232.988281 L 210.332031 128.820312 C 210.332031 118.574219 194.59375 118.453125 194.59375 128.820312 C 194.59375 128.820312 194.59375 222.253906 194.59375 222.253906 C 194.59375 231.035156 187.394531 238.230469 178.609375 238.230469 C 169.828125 238.230469 162.628906 231.035156 162.628906 222.253906 L 162.628906 131.382812 C 162.871094 121.992188 150.550781 117.597656 144.691406 124.0625 C 142.863281 126.015625 141.765625 128.578125 141.765625 131.382812 L 141.765625 222.253906 C 141.277344 243.234375 110.285156 243.355469 109.796875 222.253906 C 109.796875 222.253906 109.796875 128.820312 109.796875 128.820312 C 109.675781 118.695312 94.300781 118.453125 94.179688 128.820312 C 94.179688 128.820312 94.179688 233.109375 94.179688 233.109375 C 94.179688 256.164062 111.382812 275.921875 134.199219 279.214844 C 138.835938 280.070312 158.96875 279.582031 163.847656 279.703125 C 189.105469 279.703125 210.578125 258.359375 210.332031 232.988281 Z M 606.375 291.167969 C 604.914062 288.851562 603.691406 286.167969 601.984375 283.972656 C 586.246094 274.703125 573.921875 258.480469 566.96875 238.71875 C 478.265625 144.433594 318.433594 139.3125 223.390625 226.886719 C 225.828125 255.675781 206.429688 284.09375 178 290.679688 L 187.152344 559.757812 C 286.710938 699.90625 505.230469 695.148438 597.46875 550 Z M 654.082031 563.414062 L 644.808594 291.167969 C 636.511719 293 627.851562 293 619.433594 291.167969 L 610.523438 554.023438 L 610.523438 554.144531 C 610.523438 554.144531 610.160156 563.292969 610.160156 563.292969 L 610.160156 564.148438 C 610.890625 593.542969 654.203125 592.8125 654.082031 563.414062 Z M 690.683594 200.175781 C 690.683594 156.507812 664.332031 120.894531 632 120.894531 C 566.480469 122.355469 551.59375 242.625 611.257812 274.335938 C 655.914062 295.070312 691.050781 248.234375 690.683594 200.175781 Z M 507.0625 503.890625 C 507.0625 531.703125 484.367188 554.390625 456.550781 554.390625 C 389.6875 551.828125 389.6875 455.957031 456.550781 453.515625 C 484.367188 453.394531 507.0625 476.082031 507.0625 503.890625 Z M 494.007812 503.890625 C 492.417969 454.371094 420.679688 454.492188 419.09375 503.890625 C 420.679688 553.414062 492.417969 553.414062 494.007812 503.890625 Z M 598.566406 346.910156 C 598.445312 356.667969 589.296875 362.15625 583.683594 368.867188 C 596.492188 423.632812 584.78125 482.914062 552.082031 528.652344 C 543.664062 580.613281 504.375 619.644531 452.15625 602.8125 C 261.332031 665.140625 108.332031 440.097656 235.46875 285.3125 C 237.785156 282.507812 241.933594 282.144531 244.617188 284.460938 C 247.425781 286.777344 247.789062 290.925781 245.472656 293.609375 C 132.613281 429.855469 255.476562 633.0625 428.730469 595.617188 C 391.519531 583.175781 351.5 572.320312 331 534.265625 C 314.894531 504.136719 311.234375 459.617188 333.441406 440.34375 C 352.109375 424.609375 373.460938 436.804688 395.300781 435.707031 C 392.738281 429.855469 393.835938 419.730469 391.273438 414.730469 C 390.054688 413.265625 385.785156 411.800781 382.609375 410.824219 C 365.773438 406.433594 360.773438 396.554688 367.847656 380.453125 C 369.066406 377.160156 370.652344 373.015625 370.167969 371.0625 C 369.800781 369.355469 366.507812 366.183594 364.1875 363.988281 C 350.765625 352.523438 350.765625 341.179688 364.1875 329.710938 C 366.507812 327.394531 369.800781 324.347656 370.167969 322.636719 C 370.652344 320.6875 369.066406 316.539062 367.847656 313.246094 C 360.769531 297.269531 365.894531 287.265625 382.609375 282.875 C 385.785156 281.777344 390.054688 280.433594 391.273438 278.972656 C 392.492188 277.507812 392.859375 273.117188 393.226562 269.578125 C 393.714844 252.257812 402.5 245.183594 419.582031 248.601562 C 423.117188 249.085938 427.390625 249.574219 429.097656 248.84375 C 432.878906 246.160156 436.296875 237.621094 440.078125 233.597656 C 428.851562 230.425781 417.382812 228.230469 405.671875 227.253906 C 402.132812 226.886719 399.449219 223.839844 399.691406 220.179688 C 400.058594 216.640625 403.230469 213.960938 406.769531 214.324219 C 433 216.640625 458.011719 223.960938 481.195312 236.160156 C 496.8125 225.058594 507.792969 222.496094 517.917969 241.402344 C 519.628906 244.207031 521.945312 248.113281 523.53125 248.84375 C 531.707031 250.550781 544.761719 244.453125 552.570312 251.285156 C 560.988281 257.382812 557.9375 271.285156 561.355469 278.972656 C 568.1875 284.09375 582.339844 284.214844 586.488281 293.851562 C 591.371094 303 582.339844 314.222656 582.339844 322.761719 C 586.367188 330.078125 599.054688 336.542969 598.566406 346.910156 Z M 537.5625 472.300781 C 530.242188 443.027344 494.25 381.550781 462.039062 418.511719 C 440.566406 443.515625 402.621094 453.761719 371.265625 446.6875 C 322.214844 434.246094 324.902344 493.644531 342.59375 528.042969 C 359.0625 558.902344 391.03125 569.390625 424.703125 580.492188 C 457.648438 591.46875 477.535156 597.933594 497.300781 589.519531 C 536.464844 572.929688 548.300781 511.820312 537.5625 472.300781 Z M 575.753906 413.386719 C 575.753906 411.921875 575.628906 410.335938 575.628906 408.875 C 571.480469 410.703125 563.917969 412.289062 561.355469 414.730469 C 560.136719 416.191406 559.769531 420.707031 559.402344 424.121094 C 559.160156 435.097656 554.277344 446.6875 541.46875 445.832031 C 549.886719 463.273438 553.914062 480.839844 554.277344 500.234375 C 568.308594 473.519531 575.753906 444.003906 575.753906 413.386719 Z M 585.511719 346.910156 C 582.707031 340.203125 570.992188 333.980469 569.652344 325.6875 C 567.332031 317.269531 574.777344 307.027344 574.777344 299.585938 C 569.164062 294.707031 556.109375 294.21875 551.226562 287.265625 C 545.492188 281.046875 547.8125 268.117188 544.394531 261.527344 C 537.199219 259.699219 525.242188 264.824219 517.796875 260.675781 C 509.867188 257.503906 506.574219 244.695312 500.59375 240.425781 C 493.273438 242.136719 484.976562 251.527344 476.191406 251.160156 C 467.40625 251.648438 459.109375 241.890625 451.914062 240.425781 C 445.933594 244.820312 442.519531 257.503906 434.585938 260.675781 C 426.535156 264.945312 416.40625 259.699219 407.988281 261.527344 C 404.695312 268.117188 407.011719 281.046875 401.277344 287.265625 C 396.519531 294.21875 383.222656 294.707031 377.730469 299.585938 C 377.609375 307.027344 385.171875 317.269531 382.855469 325.6875 C 381.636719 333.980469 369.679688 340.324219 366.992188 347.03125 C 366.992188 348.742188 370.777344 352.398438 373.214844 354.839844 C 377.363281 358.863281 381.636719 362.890625 382.855469 368.5 C 384.074219 374.113281 382 379.964844 380.050781 385.210938 C 378.949219 388.136719 377.121094 393.140625 377.730469 394.601562 C 378.464844 396.066406 383.464844 397.773438 386.515625 398.75 C 392.007812 400.578125 397.742188 402.410156 401.277344 406.921875 C 404.9375 411.4375 405.425781 417.414062 406.035156 423.144531 C 406.28125 426.316406 406.890625 431.5625 408.109375 432.539062 C 424.703125 435.464844 444.957031 417.65625 452.765625 409.605469 C 464.84375 395.335938 482.78125 388.992188 501.203125 399.117188 C 506.816406 394.480469 514.503906 397.164062 520.847656 397.285156 C 522.066406 391.796875 521.214844 385.332031 525.117188 380.453125 C 527.316406 377.648438 531.464844 377.160156 534.269531 379.476562 C 537.074219 381.675781 537.5625 385.820312 535.367188 388.625 C 534.878906 389.359375 534.636719 392.164062 534.511719 393.871094 C 534.390625 404.972656 528.046875 412.289062 516.332031 410.214844 C 523.289062 416.800781 529.144531 424.488281 534.148438 432.539062 C 537.320312 432.902344 543.054688 433.757812 544.394531 432.78125 C 545.738281 431.804688 546.226562 426.4375 546.46875 423.265625 C 547.082031 417.535156 547.566406 411.4375 551.226562 407.042969 C 554.765625 402.652344 560.5 400.703125 565.992188 398.871094 C 569.042969 397.894531 574.167969 396.1875 574.777344 394.726562 C 574.65625 391.554688 573.554688 388.136719 572.457031 385.457031 C 566.847656 373.015625 568.433594 364.109375 579.167969 355.082031 C 581.730469 352.277344 585.511719 348.617188 585.511719 346.910156 Z M 416.40625 379.722656 C 415.066406 379.234375 412.871094 378.503906 411.894531 378.015625 C 413.113281 372.527344 416.773438 367.035156 415.308594 360.9375 C 414.332031 356.667969 411.039062 353.496094 408.234375 350.691406 C 407.011719 349.59375 405.0625 347.644531 404.695312 346.667969 C 404.574219 343.128906 401.765625 340.445312 398.226562 340.445312 C 394.566406 340.445312 391.761719 343.375 391.761719 346.910156 C 391.640625 354.59375 399.082031 358.863281 402.742188 363.621094 C 401.765625 369.71875 396.640625 376.671875 400.179688 383.625 C 403.476562 390.578125 412.015625 391.066406 417.382812 393.992188 C 418.726562 395.578125 420.554688 396.433594 422.507812 396.433594 C 427.753906 396.554688 431.050781 389.96875 427.632812 385.820312 C 424.582031 382.40625 420.191406 380.941406 416.40625 379.722656 Z M 534.511719 303.367188 C 534.269531 290.558594 526.828125 284.703125 514.382812 287.265625 C 512.671875 287.507812 509.867188 287.875 509.136719 287.632812 C 508.402344 287.144531 506.9375 284.828125 506.085938 283.363281 C 503.644531 279.335938 500.714844 274.335938 495.105469 273.117188 C 491.566406 272.261719 487.90625 274.457031 487.171875 277.996094 C 486.320312 281.53125 488.394531 284.949219 491.933594 285.679688 C 492.664062 286.167969 494.128906 288.609375 495.105469 290.070312 C 497.179688 293.488281 499.496094 297.390625 503.523438 299.339844 C 509.257812 302.148438 515.359375 299.828125 520.96875 299.828125 C 522.433594 306.171875 521.214844 318.492188 530.488281 319.222656 C 535.734375 319.34375 539.027344 312.757812 535.609375 308.734375 C 535 307.757812 534.757812 304.953125 534.511719 303.367188 Z M 466.308594 289.949219 C 463.015625 288.605469 459.234375 290.070312 457.769531 293.363281 C 457.28125 294.097656 454.964844 295.683594 453.621094 296.65625 C 442.519531 303 440.933594 312.269531 449.105469 322.027344 C 450.082031 323.371094 451.789062 325.6875 451.914062 326.417969 C 451.789062 327.273438 450.449219 329.710938 449.59375 331.175781 C 447.277344 335.203125 444.347656 340.203125 445.933594 345.8125 C 446.910156 349.351562 450.570312 351.425781 453.988281 350.449219 C 457.402344 349.472656 459.476562 346.058594 458.5 342.640625 C 458.625 341.789062 459.964844 339.226562 460.820312 337.761719 C 462.894531 334.347656 465.089844 330.445312 464.84375 325.929688 C 464.601562 319.589844 459.597656 315.320312 456.914062 310.441406 C 461.0625 306.660156 467.285156 304.34375 469.726562 298.488281 C 471.191406 295.195312 469.605469 291.289062 466.308594 289.949219 Z M 239.859375 333.738281 C 249.132812 289.949219 286.957031 258.722656 331.734375 258.113281 C 347.714844 257.746094 358.699219 274.09375 353.574219 288.851562 C 351.375 298.976562 342.347656 306.292969 331.609375 306.660156 C 317.703125 307.148438 305.136719 313.734375 296.714844 324.222656 C 318.191406 318.855469 339.296875 328.980469 332.953125 353.621094 C 330.757812 363.742188 321.851562 371.0625 311.113281 371.429688 C 304.648438 371.671875 298.179688 373.257812 292.324219 376.183594 C 296.960938 384.601562 303.914062 391.554688 312.699219 395.824219 C 322.339844 400.578125 327.707031 410.949219 325.511719 421.070312 C 324.414062 432.660156 314.53125 442.660156 302.695312 442.417969 C 288.296875 441.320312 276.21875 430.585938 265.96875 421.195312 C 266.945312 437.78125 276.585938 453.027344 292.203125 460.589844 C 301.839844 465.347656 307.085938 475.714844 305.011719 485.839844 C 303.671875 501.453125 286.957031 511.941406 272.679688 505.113281 C 217.042969 480.960938 199.597656 405.703125 238.152344 359.230469 C 237.417969 350.691406 238.03125 342.152344 239.859375 333.738281 Z M 288.664062 339.472656 C 285.859375 347.277344 285.734375 355.9375 287.566406 363.988281 C 294.886719 360.574219 302.695312 358.621094 310.746094 358.375 C 315.628906 358.253906 319.410156 355.207031 320.386719 350.8125 C 326.363281 330.078125 300.132812 335.933594 288.664062 339.472656 Z M 251.085938 360.449219 C 252.304688 375.210938 257.550781 389.480469 266.214844 401.554688 C 272.925781 411.3125 304.769531 443.269531 312.089844 421.804688 C 313.917969 416.316406 313.066406 410.460938 307.085938 407.53125 C 251.449219 379.964844 269.140625 296.292969 331.246094 293.730469 C 336.125 293.609375 340.03125 290.558594 340.882812 286.167969 L 341.617188 282.753906 C 343.082031 276.898438 337.957031 270.921875 331.976562 271.164062 C 293.300781 271.773438 260.722656 298.609375 252.671875 336.542969 C 250.839844 344.472656 250.351562 352.523438 251.085938 360.449219 Z M 240.835938 377.769531 C 217.042969 418.753906 234.492188 473.886719 277.925781 493.035156 C 283.296875 495.597656 290.371094 492.304688 291.347656 486.449219 C 293.179688 480.960938 292.324219 474.984375 286.34375 472.179688 C 261.699219 460.226562 248.402344 433.390625 253.769531 406.679688 C 248.035156 397.773438 243.640625 388.015625 240.835938 377.769531 Z M 240.835938 377.769531 " fill-opacity="1" fill-rule="nonzero"/></svg>