<svg xmlns="http://www.w3.org/2000/svg" xmlns:xlink="http://www.w3.org/1999/xlink" width="1080" zoomAndPan="magnify" viewBox="0 0 810 809.999993" height="1080" preserveAspectRatio="xMidYMid meet" version="1.0"><defs><clipPath id="841b46c466"><path d="M 62 415 L 729.292969 415 L 729.292969 670.738281 L 62 670.738281 Z M 62 415 " clip-rule="nonzero"/></clipPath></defs><g clip-path="url(#841b46c466)"><path fill="#000000" d="M 485.527344 670.542969 L 306.40625 670.542969 C 171.941406 670.542969 62.554688 561.179688 62.554688 426.742188 L 62.554688 426.496094 C 62.554688 420.363281 67.53125 415.386719 73.664062 415.386719 L 718.269531 415.386719 C 724.402344 415.386719 729.378906 420.363281 729.378906 426.496094 L 729.378906 426.742188 C 729.378906 561.179688 619.992188 670.542969 485.527344 670.542969 Z M 85.054688 437.605469 C 90.738281 554.769531 187.84375 648.324219 306.40625 648.324219 L 485.527344 648.324219 C 604.089844 648.324219 701.207031 554.769531 706.878906 437.605469 Z M 85.054688 437.605469 " fill-opacity="1" fill-rule="nonzero"/></g><path fill="#000000" d="M 254.648438 437.605469 C 252.957031 437.605469 251.234375 437.214844 249.613281 436.390625 C 242.019531 432.515625 223.757812 421.316406 218.332031 400.933594 C 214.886719 387.972656 217.246094 374.171875 225.347656 359.820312 C 219.996094 346.09375 208.914062 310.417969 224.046875 280.992188 C 233.769531 262.085938 252.015625 249.644531 278.308594 243.945312 C 286.785156 230.519531 314.003906 192.503906 350.425781 191.9375 C 356.558594 191.820312 361.609375 196.742188 361.710938 202.875 C 361.8125 209.007812 356.90625 214.058594 350.769531 214.160156 C 325.507812 214.5625 301.9375 246.882812 294.992188 259.308594 C 293.371094 262.214844 290.503906 264.253906 287.222656 264.835938 C 265.429688 268.695312 250.832031 277.535156 243.828125 291.089844 C 230.050781 317.722656 247.632812 355.597656 247.820312 355.988281 C 249.46875 359.488281 249.195312 363.597656 247.082031 366.835938 C 240.078125 377.527344 237.632812 387.089844 239.804688 395.234375 C 243.015625 407.300781 255.851562 414.648438 259.699219 416.601562 C 265.167969 419.378906 267.339844 426.078125 264.5625 431.546875 C 262.609375 435.394531 258.703125 437.605469 254.648438 437.605469 Z M 254.648438 437.605469 " fill-opacity="1" fill-rule="nonzero"/><path fill="#000000" d="M 350.597656 437.605469 C 344.460938 437.605469 339.484375 432.628906 339.484375 426.496094 L 339.484375 291.222656 C 339.484375 285.085938 344.460938 280.109375 350.597656 280.109375 C 356.734375 280.109375 361.710938 285.085938 361.710938 291.222656 L 361.710938 426.496094 C 361.710938 432.628906 356.734375 437.605469 350.597656 437.605469 Z M 350.597656 437.605469 " fill-opacity="1" fill-rule="nonzero"/><path fill="#000000" d="M 344.882812 417.859375 C 328.460938 417.859375 304.394531 410.699219 297.4375 382.503906 C 295.960938 376.542969 299.605469 370.527344 305.570312 369.050781 C 311.53125 367.574219 317.550781 371.21875 319.023438 377.179688 C 324.207031 398.128906 346.503906 395.710938 349.035156 395.363281 C 355.082031 394.539062 360.710938 398.75 361.578125 404.796875 C 362.449219 410.84375 358.296875 416.457031 352.261719 417.351562 C 350.078125 417.671875 347.574219 417.859375 344.882812 417.859375 Z M 344.882812 417.859375 " fill-opacity="1" fill-rule="nonzero"/><path fill="#000000" d="M 344.882812 365.417969 C 328.460938 365.417969 304.394531 358.257812 297.4375 330.0625 C 295.960938 324.101562 299.605469 318.085938 305.570312 316.609375 C 311.53125 315.132812 317.550781 318.78125 319.023438 324.738281 C 324.363281 346.351562 347.964844 343.082031 348.976562 342.9375 C 355.039062 342.027344 360.699219 346.222656 361.609375 352.285156 C 362.519531 358.34375 358.324219 364 352.261719 364.914062 C 350.078125 365.230469 347.574219 365.417969 344.882812 365.417969 Z M 344.882812 365.417969 " fill-opacity="1" fill-rule="nonzero"/><path fill="#000000" d="M 356.328125 417.859375 C 353.636719 417.859375 351.148438 417.671875 348.960938 417.339844 C 342.898438 416.425781 338.703125 410.769531 339.617188 404.710938 C 340.527344 398.664062 346.140625 394.480469 352.1875 395.351562 C 354.765625 395.710938 377.035156 398.085938 382.199219 377.164062 C 383.675781 371.207031 389.695312 367.574219 395.65625 369.035156 C 401.617188 370.511719 405.25 376.527344 403.789062 382.488281 C 396.8125 410.699219 372.734375 417.859375 356.328125 417.859375 Z M 356.328125 417.859375 " fill-opacity="1" fill-rule="nonzero"/><path fill="#000000" d="M 356.328125 365.417969 C 353.636719 365.417969 351.148438 365.230469 348.960938 364.898438 C 342.898438 363.988281 338.703125 358.332031 339.617188 352.269531 C 340.527344 346.222656 346.140625 342.042969 352.1875 342.910156 C 354.765625 343.257812 377.035156 345.644531 382.199219 324.726562 C 383.675781 318.765625 389.695312 315.132812 395.65625 316.59375 C 401.617188 318.070312 405.25 324.089844 403.789062 330.046875 C 396.8125 358.257812 372.734375 365.417969 356.328125 365.417969 Z M 356.328125 365.417969 " fill-opacity="1" fill-rule="nonzero"/><path fill="#000000" d="M 188.710938 437.605469 C 185.976562 437.605469 183.242188 436.609375 181.085938 434.582031 L 103.011719 360.933594 C 94.648438 353.050781 89.871094 342.34375 89.554688 330.785156 C 89.21875 318.605469 93.808594 306.875 102.460938 297.757812 L 133.238281 265.382812 C 139.90625 258.351562 147.734375 253.839844 157.15625 251.570312 L 200.59375 241.109375 C 223.886719 235.511719 246.867188 247.765625 254.042969 269.636719 C 255.953125 275.46875 252.785156 281.746094 246.953125 283.65625 C 241.121094 285.566406 234.839844 282.394531 232.929688 276.566406 C 229.402344 265.789062 217.722656 259.84375 205.800781 262.707031 L 162.363281 273.167969 C 157.097656 274.441406 153.089844 276.753906 149.355469 280.675781 L 118.578125 313.050781 C 114.019531 317.839844 111.605469 323.914062 111.777344 330.164062 C 111.9375 335.777344 114.238281 340.957031 118.261719 344.761719 L 196.339844 418.410156 C 200.808594 422.621094 201.011719 429.648438 196.800781 434.121094 C 194.617188 436.433594 191.664062 437.605469 188.710938 437.605469 Z M 188.710938 437.605469 " fill-opacity="1" fill-rule="nonzero"/><path fill="#000000" d="M 110.257812 316.78125 C 108.03125 316.78125 105.773438 316.117188 103.820312 314.730469 L 54.378906 279.5625 C 53.074219 278.636719 51.992188 277.449219 51.195312 276.058594 C 46.332031 267.640625 46.085938 257.050781 50.527344 247.027344 C 54.507812 238.058594 61.886719 230.113281 71.320312 224.675781 C 74.144531 223.054688 77.09375 221.679688 80.105469 220.597656 C 81.40625 207.835938 90.21875 194.859375 103.890625 186.960938 C 117.566406 179.0625 133.207031 177.921875 144.929688 183.171875 C 147.375 181.101562 150.035156 179.238281 152.855469 177.601562 C 173.792969 165.507812 197.769531 169.140625 207.4375 185.863281 C 208.230469 187.238281 208.722656 188.785156 208.867188 190.359375 L 214.613281 250.757812 C 215.191406 256.863281 210.707031 262.289062 204.601562 262.867188 C 198.480469 263.445312 193.066406 258.960938 192.488281 252.855469 L 187.046875 195.539062 C 183.039062 191.808594 173.273438 191.476562 163.984375 196.84375 C 160.511719 198.851562 157.472656 201.441406 155.203125 204.351562 C 153.203125 206.894531 150.210938 208.457031 146.96875 208.617188 C 143.742188 208.761719 140.585938 207.503906 138.375 205.160156 C 134.710938 201.296875 124.742188 200.589844 115.035156 206.203125 C 105.324219 211.816406 100.941406 220.785156 102.460938 225.890625 C 103.386719 229 102.910156 232.34375 101.15625 235.0625 C 99.40625 237.78125 96.554688 239.605469 93.34375 240.054688 C 89.699219 240.558594 85.9375 241.890625 82.449219 243.902344 C 77.136719 246.96875 72.914062 251.378906 70.859375 256.023438 C 70.121094 257.6875 69.152344 260.566406 69.773438 263.226562 L 116.710938 296.617188 C 121.71875 300.175781 122.875 307.105469 119.332031 312.109375 C 117.160156 315.164062 113.730469 316.78125 110.257812 316.78125 Z M 110.257812 316.78125 " fill-opacity="1" fill-rule="nonzero"/><path fill="#000000" d="M 112.660156 363.292969 C 109.203125 363.292969 105.800781 361.671875 103.632812 358.648438 C 100.042969 353.671875 101.214844 346.699219 106.191406 343.125 C 107.308594 342.316406 133.902344 323.609375 163.101562 338.367188 C 168.585938 341.128906 170.769531 347.8125 168.007812 353.296875 C 165.242188 358.777344 158.542969 360.964844 153.074219 358.199219 C 136.074219 349.605469 119.792969 360.730469 119.113281 361.210938 C 117.160156 362.628906 114.902344 363.292969 112.660156 363.292969 Z M 112.660156 363.292969 " fill-opacity="1" fill-rule="nonzero"/><path fill="#000000" d="M 156.765625 404.824219 C 153.304688 404.824219 149.90625 403.21875 147.734375 400.195312 C 144.148438 395.21875 145.289062 388.277344 150.265625 384.6875 C 151.382812 383.878906 177.976562 365.171875 207.175781 379.929688 C 212.660156 382.691406 214.84375 389.375 212.082031 394.859375 C 209.316406 400.339844 202.617188 402.527344 197.148438 399.761719 C 179.859375 391.023438 163.421875 402.613281 163.246094 402.726562 C 161.277344 404.144531 159.007812 404.824219 156.765625 404.824219 Z M 156.765625 404.824219 " fill-opacity="1" fill-rule="nonzero"/><path fill="#000000" d="M 713.652344 484.015625 L 78.28125 484.015625 C 72.144531 484.015625 67.167969 479.039062 67.167969 472.90625 C 67.167969 466.769531 72.144531 461.792969 78.28125 461.792969 L 713.652344 461.792969 C 719.785156 461.792969 724.765625 466.769531 724.765625 472.90625 C 724.765625 479.039062 719.785156 484.015625 713.652344 484.015625 Z M 713.652344 484.015625 " fill-opacity="1" fill-rule="nonzero"/><path fill="#000000" d="M 448.628906 276.957031 C 446.558594 276.957031 444.460938 276.378906 442.609375 275.175781 C 435.1875 270.375 425.550781 266.902344 413.972656 264.835938 C 410.675781 264.253906 407.824219 262.214844 406.203125 259.292969 C 399.257812 246.882812 375.6875 214.550781 350.4375 214.160156 C 344.304688 214.058594 339.414062 209.007812 339.5 202.875 C 339.601562 196.796875 344.550781 191.9375 350.613281 191.9375 C 350.667969 191.9375 350.726562 191.9375 350.785156 191.9375 C 387.207031 192.515625 414.421875 230.535156 422.902344 243.960938 C 435.257812 246.636719 445.921875 250.859375 454.691406 256.53125 C 459.84375 259.859375 461.316406 266.742188 457.988281 271.894531 C 455.847656 275.175781 452.273438 276.957031 448.628906 276.957031 Z M 448.628906 276.957031 " fill-opacity="1" fill-rule="nonzero"/><path fill="#000000" d="M 450.726562 437.605469 C 449.035156 437.605469 447.3125 437.214844 445.691406 436.390625 C 438.09375 432.515625 419.835938 421.316406 414.40625 400.933594 C 410.964844 387.972656 413.324219 374.171875 421.425781 359.820312 C 416.070312 346.09375 404.988281 310.417969 420.125 280.992188 C 429.847656 262.085938 448.09375 249.644531 474.382812 243.945312 C 482.863281 230.519531 510.082031 192.503906 546.5 191.9375 C 552.605469 191.851562 557.683594 196.742188 557.785156 202.875 C 557.886719 209.007812 552.984375 214.058594 546.847656 214.160156 C 521.582031 214.5625 498.011719 246.882812 491.066406 259.308594 C 489.445312 262.214844 486.582031 264.253906 483.296875 264.835938 C 461.507812 268.695312 446.921875 277.535156 439.902344 291.089844 C 426.128906 317.722656 443.707031 355.597656 443.898438 355.988281 C 445.546875 359.488281 445.273438 363.597656 443.160156 366.835938 C 436.15625 377.527344 433.710938 387.089844 435.882812 395.234375 C 439.09375 407.300781 451.925781 414.648438 455.777344 416.601562 C 461.246094 419.394531 463.417969 426.078125 460.636719 431.546875 C 458.671875 435.394531 454.777344 437.605469 450.726562 437.605469 Z M 450.726562 437.605469 " fill-opacity="1" fill-rule="nonzero"/><path fill="#000000" d="M 546.675781 437.605469 C 540.539062 437.605469 535.5625 432.628906 535.5625 426.496094 L 535.5625 291.222656 C 535.5625 285.085938 540.539062 280.109375 546.675781 280.109375 C 552.808594 280.109375 557.785156 285.085938 557.785156 291.222656 L 557.785156 426.496094 C 557.785156 432.628906 552.808594 437.605469 546.675781 437.605469 Z M 546.675781 437.605469 " fill-opacity="1" fill-rule="nonzero"/><path fill="#000000" d="M 539.25 427.046875 C 519.066406 427.046875 489.417969 418.65625 480.792969 385.601562 C 479.246094 379.667969 482.804688 373.59375 488.738281 372.042969 C 494.671875 370.496094 500.746094 374.054688 502.296875 379.988281 C 509.890625 409.078125 543.679688 404.636719 545.109375 404.433594 C 551.1875 403.582031 556.816406 407.804688 557.671875 413.882812 C 558.523438 419.957031 554.300781 425.585938 548.222656 426.4375 C 545.574219 426.816406 542.535156 427.046875 539.25 427.046875 Z M 539.25 427.046875 " fill-opacity="1" fill-rule="nonzero"/><path fill="#000000" d="M 539.25 362.480469 C 519.066406 362.480469 489.417969 354.09375 480.792969 321.035156 C 479.246094 315.105469 482.804688 309.027344 488.738281 307.480469 C 494.671875 305.933594 500.746094 309.492188 502.296875 315.421875 C 509.890625 344.515625 543.679688 340.074219 545.109375 339.871094 C 551.1875 339.019531 556.816406 343.242188 557.671875 349.316406 C 558.523438 355.394531 554.300781 361.019531 548.222656 361.875 C 545.574219 362.25 542.535156 362.480469 539.25 362.480469 Z M 539.25 362.480469 " fill-opacity="1" fill-rule="nonzero"/><path fill="#000000" d="M 554.097656 427.046875 C 550.8125 427.046875 547.773438 426.828125 545.109375 426.453125 C 539.035156 425.597656 534.808594 419.972656 535.664062 413.894531 C 536.515625 407.835938 542.128906 403.609375 548.179688 404.449219 C 548.4375 404.476562 558.003906 405.664062 568.160156 402.859375 C 580.429688 399.457031 587.910156 391.992188 591.039062 380 C 592.585938 374.070312 598.664062 370.496094 604.59375 372.058594 C 610.527344 373.605469 614.085938 379.683594 612.539062 385.613281 C 603.929688 418.640625 574.28125 427.046875 554.097656 427.046875 Z M 554.097656 427.046875 " fill-opacity="1" fill-rule="nonzero"/><path fill="#000000" d="M 554.097656 362.480469 C 550.8125 362.480469 547.773438 362.265625 545.109375 361.890625 C 539.035156 361.035156 534.808594 355.410156 535.664062 349.332031 C 536.515625 343.269531 542.128906 339.0625 548.179688 339.886719 C 548.4375 339.914062 558.003906 341.101562 568.160156 338.292969 C 580.429688 334.894531 587.910156 327.429688 591.039062 315.4375 C 592.585938 309.507812 598.664062 305.933594 604.59375 307.496094 C 610.527344 309.042969 614.085938 315.121094 612.539062 321.050781 C 603.929688 354.09375 574.28125 362.480469 554.097656 362.480469 Z M 554.097656 362.480469 " fill-opacity="1" fill-rule="nonzero"/><path fill="#000000" d="M 642.621094 437.605469 C 638.570312 437.605469 634.675781 435.394531 632.710938 431.53125 C 629.929688 426.0625 632.101562 419.378906 637.570312 416.585938 C 641.433594 414.621094 654.253906 407.269531 657.46875 395.21875 C 659.636719 387.074219 657.175781 377.527344 650.1875 366.824219 C 648.0625 363.582031 647.785156 359.457031 649.449219 355.957031 C 649.625 355.597656 667.203125 317.722656 653.429688 291.089844 C 646.425781 277.535156 631.828125 268.710938 610.035156 264.835938 C 606.738281 264.253906 603.886719 262.214844 602.265625 259.292969 C 595.320312 246.882812 571.75 214.550781 546.5 214.160156 C 540.363281 214.058594 535.472656 209.007812 535.5625 202.875 C 535.664062 196.742188 540.65625 191.851562 546.847656 191.9375 C 583.253906 192.515625 610.46875 230.535156 618.964844 243.945312 C 645.269531 249.644531 663.5 262.085938 673.222656 280.992188 C 688.359375 310.417969 677.277344 346.09375 671.921875 359.820312 C 680.023438 374.171875 682.382812 387.972656 678.941406 400.933594 C 673.511719 421.316406 655.253906 432.515625 647.65625 436.390625 C 646.035156 437.214844 644.3125 437.605469 642.621094 437.605469 Z M 642.621094 437.605469 " fill-opacity="1" fill-rule="nonzero"/><path fill="#000000" d="M 156.621094 615.6875 C 152.800781 615.6875 149.082031 613.71875 147.011719 610.175781 C 143.914062 604.882812 145.710938 598.066406 151.003906 594.988281 C 216.261719 556.882812 303.253906 535.890625 395.972656 535.890625 C 488.695312 535.890625 575.699219 556.882812 640.941406 594.988281 C 646.238281 598.082031 648.03125 604.882812 644.9375 610.175781 C 641.839844 615.472656 635.039062 617.265625 629.742188 614.167969 C 567.84375 578.015625 484.816406 558.113281 395.972656 558.113281 C 307.132812 558.113281 224.121094 578.015625 162.203125 614.167969 C 160.4375 615.195312 158.515625 615.6875 156.621094 615.6875 Z M 156.621094 615.6875 " fill-opacity="1" fill-rule="nonzero"/></svg>